<?xml version="1.0" encoding="utf-8"?>
<!-- Generator: Adobe Illustrator 18.0.0, SVG Export Plug-In . SVG Version: 6.00 Build 0)  -->
<!DOCTYPE svg PUBLIC "-//W3C//DTD SVG 1.1//EN" "http://www.w3.org/Graphics/SVG/1.1/DTD/svg11.dtd">
<svg version="1.1" xmlns="http://www.w3.org/2000/svg" xmlns:xlink="http://www.w3.org/1999/xlink" x="0px" y="0px"
	 viewBox="0 0 567.4 304.5" enable-background="new 0 0 567.4 304.5" xml:space="preserve">
<g id="Grid" display="none">
</g>
<g id="Layer_1">
</g>
<g id="Desktop">
</g>
<g id="Guides">
</g>
<g id="Page_1">
</g>
<g id="Layer_1_1_">
	<path fill-rule="evenodd" clip-rule="evenodd" fill="#181A28" d="M293.7,214c13.3-5.8,12.8-4.9,22.6-12.8
		c9.7-8,14.6-10.6,21.7-12.8c7.1-2.2,11.5-3.1,20.4-6.2c8.9-3.1,6.2-1.3,17.7-8.4c11.5-7.1,8.4-3.5,19.5-10.6
		c11.1-7.1,8.4-6.6,21.7-10.6c13.3-4,14.6-4.4,24.8-7.5c10.2-3.1,13.7-2.7,24.3-5.8c10.6-3.1,8.4-3.1,16.8-4.9
		c8.4-1.8,6.6-3.1,14.6-4c8-0.9,0.9,0.4,13.3-2.7c12.4-3.1,11.1-2.2,18.6-6.6c7.5-4.4-1.3-0.4,11.5-7.1c12.8-6.6,7.5-3.5,19.9-11.5
		c2.6-1.6,4.7-3.2,6.4-4.5v113l-269.7,30L293.7,214L293.7,214z"/>
</g>
</svg>
