<?xml version="1.0" encoding="utf-8"?>
<!-- Generator: Adobe Illustrator 18.0.0, SVG Export Plug-In . SVG Version: 6.00 Build 0)  -->
<!DOCTYPE svg PUBLIC "-//W3C//DTD SVG 1.1//EN" "http://www.w3.org/Graphics/SVG/1.1/DTD/svg11.dtd">
<svg version="1.1" xmlns="http://www.w3.org/2000/svg" xmlns:xlink="http://www.w3.org/1999/xlink" x="0px" y="0px"
	 viewBox="0 0 567.4 304.5" enable-background="new 0 0 567.4 304.5" xml:space="preserve">
<g id="Grid" display="none">
</g>
<g id="Layer_1">
</g>
<g id="Desktop">
</g>
<g id="Guides">
</g>
<g id="Page_1">
</g>
<g id="Layer_1_1_">
	<path fill-rule="evenodd" clip-rule="evenodd" fill="#222436" d="M66.4,121.2c7.4,0.5,5.2,0.7,11.8,0.5c6.6-0.2,10.1-1.5,14-1.7
		c3.9-0.2,7.6-2,11.8-0.7c4.2,1.2,5.4,1,9.6,3.2c4.2,2.2,7.6,2.2,11.8,4.7c4.2,2.5,3.2,1.7,8.9,4.2c5.7,2.5,7.9,2,12.5,4.2
		c4.7,2.2,6.1,2.5,10.6,4.9c4.4,2.5,4.9,2.7,10.6,4.4c5.7,1.7,3.2,1.2,10.3,2.7c7.1,1.5,9.3,0.2,13,1c3.7,0.7,6.9,0.7,9.6,2.5
		c2.7,1.7,4.4,1.7,7.9,3.7c3.4,2,9.1,2.9,12,5.2c3,2.2,4.4,2.7,7.4,4.9c3,2.2,6.4,3.7,9.6,5.2c3.2,1.5,5.9,1.5,8.1,2.9
		c2.2,1.5,12,3.9,14.8,5.4c2.7,1.5,4.2,1,7.6,1.7c3.4,0.7,5.7,1.2,9.1,3.2c3.4,2,7.1,2.7,9.1,4.2c2,1.5,7.1,4.2,9.6,6.1
		c2.5,2,4.9,4.7,6.4,5.7c1.5,1,0.7,3.7,0.7,3.7l-4.1,29.5L65.2,203l-16.6-63.1L66.4,121.2L66.4,121.2z"/>
</g>
</svg>
