<?xml version="1.0" encoding="utf-8"?>
<!-- Generator: Adobe Illustrator 18.0.0, SVG Export Plug-In . SVG Version: 6.00 Build 0)  -->
<!DOCTYPE svg PUBLIC "-//W3C//DTD SVG 1.1//EN" "http://www.w3.org/Graphics/SVG/1.1/DTD/svg11.dtd">
<svg version="1.1" xmlns="http://www.w3.org/2000/svg" xmlns:xlink="http://www.w3.org/1999/xlink" x="0px" y="0px"
	 viewBox="0 0 567.4 304.5" enable-background="new 0 0 567.4 304.5" xml:space="preserve">
<g id="Grid" display="none">
</g>
<g id="Layer_1">
</g>
<g id="Desktop">
</g>
<g id="Guides">
</g>
<g id="Page_1">
</g>
<g id="Layer_1_1_">
	<path fill-rule="evenodd" clip-rule="evenodd" fill="#382837" d="M0,94.3c4.9-1,7.5-2.1,13.5-2.1c6.4,0,8.7-1.5,14.9,0.5
		c6.2,2.1,3.1,1.5,11.6,3.3c8.5,1.8,8,1.8,17.2,3.1c9.3,1.3,8.7,1.8,16.2,0.3c7.5-1.5,6.4-3.3,12.4-3.1c5.9,0.3,7.7,0,11.3,1
		c3.6,1,2.1,1,7.7,1.5c5.7,0.5,3.3,2.6,10.8,0.5c7.5-2.1,4.6-2.6,11.3-3.9c6.7-1.3,6.9-2.3,12.9-4.6c5.9-2.3,3.9-3.9,7.7-2.6
		c3.9,1.3,5.4-0.3,10,2.8c4.6,3.1,6.2,3.6,11.3,6.2c5.1,2.6,10,2.6,15.2,5.4c5.1,2.8-2.1,3.9,10,5.4c12.1,1.5,9,0,15.2,1.8
		c6.2,1.8,13.9,2.1,17.2,3.1c3.3,1,4.4,1,11.8,3.6c7.5,2.6,13.1,4.1,16.5,4.9c3.3,0.8,4.6-0.8,8,0.3c3.3,1,3.1,0,7.5,1.8
		c4.4,1.8,5.7,1.5,9,3.3c3.3,1.8,5.1,1.8,7.5,3.6c2.3,1.8,8,3.1,11.1,4.6c3.1,1.5,9,2.8,11.1,3.3c2.1,0.5,4.4-0.3,8.5,2.3
		c4.1,2.6,4.9,3.3,8.2,4.9c3.3,1.5,6.9,2.3,10.6,4.1c3.6,1.8,12.4,10.8,12.4,10.8l-63,22.8L0,168.1V94.3L0,94.3z"/>
</g>
</svg>
