<?xml version="1.0" encoding="utf-8"?>
<!-- Generator: Adobe Illustrator 18.0.0, SVG Export Plug-In . SVG Version: 6.00 Build 0)  -->
<!DOCTYPE svg PUBLIC "-//W3C//DTD SVG 1.1//EN" "http://www.w3.org/Graphics/SVG/1.1/DTD/svg11.dtd">
<svg version="1.1" xmlns="http://www.w3.org/2000/svg" xmlns:xlink="http://www.w3.org/1999/xlink" x="0px" y="0px"
	 viewBox="0 0 567.4 304.5" enable-background="new 0 0 567.4 304.5" xml:space="preserve">
<g id="Grid" display="none">
</g>
<g id="Layer_1">
</g>
<g id="Desktop">
</g>
<g id="Guides">
</g>
<g id="Page_1">
</g>
<g id="Layer_1_1_">
	<path fill-rule="evenodd" clip-rule="evenodd" fill="#2F2839" d="M120.2,129.9c-0.3,0,2.8,0.6,9.4-0.8c6.6-1.4,3.6-0.6,10.8-3
		c7.2-2.5,6.4-3.6,11.3-3.6c5,0-0.6,1.1,6.9,0c7.5-1.1,4.1-2.5,10.5-2.2c6.4,0.3,10.2,0.3,13,1.7c2.8,1.4,4.4,1.1,8.6,3.6
		c4.1,2.5,9.1,3.9,11.9,5.5c2.8,1.7,2.8,0.8,6.1,2.2c3.3,1.4,7.2,3,9.1,3.9c1.9,0.8,4.7,2.5,7.2,3.9c2.5,1.4,3,2.2,4.4,2.8
		c1.4,0.6,1.4,0.3,6.4,1.9c5,1.7,6.9,1.4,11.3,3.9c4.4,2.5,6.1,3,10.2,4.7c4.1,1.7,8,2.5,11.1,3.6c3,1.1,11.1,3.6,11.1,3.6l-26.5,27
		l-137.7-33.3C115.2,155.1,120.4,129.9,120.2,129.9L120.2,129.9z"/>
</g>
</svg>
