<?xml version="1.0" encoding="utf-8"?>
<!-- Generator: Adobe Illustrator 18.0.0, SVG Export Plug-In . SVG Version: 6.00 Build 0)  -->
<!DOCTYPE svg PUBLIC "-//W3C//DTD SVG 1.1//EN" "http://www.w3.org/Graphics/SVG/1.1/DTD/svg11.dtd">
<svg version="1.1" xmlns="http://www.w3.org/2000/svg" xmlns:xlink="http://www.w3.org/1999/xlink" x="0px" y="0px"
	 viewBox="0 0 567.4 304.5" enable-background="new 0 0 567.4 304.5" xml:space="preserve">
<g id="Grid" display="none">
</g>
<g id="Layer_1">
</g>
<g id="Desktop">
</g>
<g id="Guides">
</g>
<g id="Page_1">
</g>
<g id="Layer_1_1_">
	<path fill-rule="evenodd" clip-rule="evenodd" fill="#4A282E" d="M285.7,99.7c-0.6,0,5.2-2.9,9.9-2.9s4.7-0.3,8.7-1.7
		c4.1-1.5,5.8-2.9,8.2-2.9s5.2-0.6,7,1.2c1.7,1.7,3.2,2,6.4,4.7c3.2,2.6,5.5,3.5,9,5.5c3.5,2,4.4,6.4,11.6,6.1
		c7.3-0.3,2.9,1.2,10.2-1.5c7.3-2.6,2.3,2.3,9.3-3.5c7-5.8,11.6-9.9,13.7-8.4c2,1.5,2.9,1.5,6.4,3.8c3.5,2.3,3.8,2.6,9.3,3.5
		c5.5,0.9,5.5-0.9,9,0.6c3.5,1.5,6.4,0.9,9.3,2.3c2.9,1.5,7.3,2.9,7.3,2.9l4.7,3.5c0,0,4.4,2.9,5.8,4.1c1.5,1.2,5.5,7.6,5.5,7.6
		l-173.5,12.8C263.6,137.3,286.3,99.7,285.7,99.7L285.7,99.7z"/>
</g>
</svg>
