<?xml version="1.0" encoding="utf-8"?>
<!-- Generator: Adobe Illustrator 18.0.0, SVG Export Plug-In . SVG Version: 6.00 Build 0)  -->
<!DOCTYPE svg PUBLIC "-//W3C//DTD SVG 1.1//EN" "http://www.w3.org/Graphics/SVG/1.1/DTD/svg11.dtd">
<svg version="1.1" xmlns="http://www.w3.org/2000/svg" xmlns:xlink="http://www.w3.org/1999/xlink" x="0px" y="0px"
	 viewBox="0 0 567.4 304.5" enable-background="new 0 0 567.4 304.5" xml:space="preserve">
<g id="Grid" display="none">
</g>
<g id="Layer_1">
</g>
<g id="Desktop">
</g>
<g id="Guides">
</g>
<g id="Page_1">
</g>
<g id="Layer_1_1_">
	<path fill-rule="evenodd" clip-rule="evenodd" fill="#131520" d="M367.4,212.7C367.5,212.7,367.5,212.8,367.4,212.7
		c0.3,0.3,0.6,0.2,0.8,0.4c0.3-0.6,0.5-1.7,0.5-1.2c0,0.8,0.1,1,0.1,1s0,0,0,0.1c0.1,0,0.4,0,0.5,0.3c0,0,0,0,0,0
		c0.4-1,0.8-2.6,0.9-0.9c0,0.8,0.1,1.3,0.1,1.7c0.1,0,0.1-0.1,0.2-0.1c0.2-0.1,0.3-0.2,0.4-0.2c0.1-0.1,0.2-0.1,0.3,0
		c0.3,0,0.5,0.1,0.5,0.1c0.4-0.2,0.6-0.7,1.1-0.5c0.5,0.2,0.9,0.9,0.9,0.9s0.3,0.1,0.7-0.4c0.4-0.5,0.4-0.3,0.4-0.3
		c0.2,0.1,0.4,0.3,0.5,0.3c0.1,0-0.1-1.4,0.3-0.8c0.4,0.6,0.5,1.1,0.8,0.5c0.3-0.6,0.6-1.5,0.8-0.7c0.2,0.8,0.5,0.9,0.5,0.9
		s0.2,0.5,0.4,0.8c0.2,0.3-0.2,0.7,0.5,0.4c0.7-0.3,0.8-0.6,1.3-0.7c0.5-0.1,0.1-0.5,0.8-0.5c0.7,0,0.5-0.3,1.1,0.1
		c0.6,0.4,0.5-0.2,1-0.2c0.5,0,0.5-1,0.8-0.6c0.3,0.4,0.7-1.1,0.9-0.1c0.3,1,0.1,0.1,0.8,0.1c0.7,0,0.9-0.3,1.1,0
		c0.2,0.3,0.6-0.5,0.8-0.1c0.2,0.4,0.3-0.7,0.8-0.4c0.4,0.3,0.7-0.9,1.2-0.2c0.5,0.7,0.4,0,1.1,0c0.7,0,1.5-0.9,1.7-0.5
		c0.2,0.4,0.5,0.3,0.5,0.3s0-0.5,0.8-0.6c0.7-0.1,0.6,0.5,1.2,0.4c0.6-0.2,0.9-0.6,1.7-1c0.7-0.4,0.6-1.1,1.1-0.3
		c0.5,0.8,1,1.1,1,1.1c0.3-0.4,0.7-1,0.9-1.2c0.1-0.2,0.6-0.9,1-0.2c0.4,0.7-0.2,0.8,0.5,0.6c0.7-0.2,0.6-0.5,1.3-0.8
		c0.7-0.4,0.4-0.8,1-1c0.6-0.2,0.4-0.9,0.8-0.4c0.4,0.5,0.6,0.5,0.6,0.5c0.3,0,0.8-0.1,1-0.1c0.2,0-0.1-1.1,1-1
		c1.1,0,1.3,0.1,1.3,0.1c0.3,0,0.4-0.1,0.7,0.1c0.3,0.2,0.9-0.4,0.9-0.4c0.2-0.2,0.3-0.4,0.5-0.7c0.2,0,0.4,0.1,0.5,0.2
		c0.1-0.1-0.1,0,0.5-0.2c0.7-0.1,1.9-1.2,1.9-1.2c0.1,0.1,0,0.3,0.4,0.2c0.4-0.1,0.4,0,1-0.6c0.5-0.6,0.5-1.1,0.6-0.9
		c0,1-0.2,1,0.7,0.5c0.8-0.5,1-1.5,1.2-1.1c0.2,0.4,0.3,0.6,0.3,0.6c0.2,0,0.3,0,0.5,0c0.2-0.2,0.4-0.4,0.6-0.6
		c0.3-0.1,0.4-0.2,0.6-0.3c0.3,0,0.6,0.1,0.9,0.1c0.3-0.3,0.6-0.5,0.8-0.8c0,0.1-0.3,0.2,0.1,0.4c0.4,0.1,0.9-0.1,1.4-0.8
		c0.5-0.7,0.6-1.3,0.6-0.9c0,0.5,0,0.9,0,0.9s0.4-0.5,0.5-0.2c0.1,0.3,0.3-1.4,0.8-0.9c0.5,0.5,0.3,0.2,0.7,0.4
		c0.4,0.3,0.5,0.2,0.5,0.2c0.3-0.3,0.6-0.6,0.9-0.9c0.5-0.5,1.1-2.3,1.1-1.5c0,0.8,0,0.8,0.2,1.1c0.2,0.3,0.4,0.6,0.4,0.6
		c0.4-0.4,0.6-0.9,1-1.1c0.4-0.2,0.6,0.6,0.6,0.6c0.4-0.5,1-1.1,1.2-1.4c0.2-0.2,0.6-1.2,0.6-0.5c0,0.7-0.2,1.4,0.2,0.7
		c0.4-0.8,0.8-1.6,0.8-1.6s0.2-0.4,0.5,0.1c0.3,0.5-0.2,1.3,0.5,0.1c0.7-1.2,0.6-1.9,1.1-1.7c0.6,0.2,0.8,0.8,0.8,0.8
		s0.2-0.1,0.4,0.2c0.1,0.3,1.4-1.9,1.4-1.9s0.2-1.2,0.4-0.5c0.2,0.7,0,0.7,0.2,1c0.2,0.2-0.1,0.7,0.5,0.4c0.6-0.3,0.8-1.7,1.3-1.6
		c0.5,0.1,0,0.5,0.5,0.1c0.5-0.3,0.6-1.3,1.1-1.9c0.5-0.6,0.7-0.9,0.9-0.3c0.2,0.6,0.2,0.8,0.2,0.8s0.2-1.6,1.1-1.6
		c0.9,0.1,0.6,0.2,1,0.4c0.4,0.2,0.5,0.4,0.8-0.4c0.2-0.9,0.6-1.7,0.6-1.7s0.2,0,0.4,0.4c0.1,0.4,0,0.5,0.8-0.1
		c0.8-0.6,1.4-1.9,1.4-1.9s0.1,0.3,0.3,0.6c0.1,0.3,0.1,0.4,0.6-0.4c0.5-0.8,0.8-2.1,1-1.4c0.3,0.7-0.1,1.4,0.4,0.6
		c0.5-0.8,0.2-1.3,0.7-0.8c0.5,0.5,0.2,0.8,0.7,0.2c0.5-0.5,0.1-0.7,0.6-0.7c0.5,0,0.9-2,1.4-1.3c0.7,1,0.6-0.2,1.4,0
		c1.1,0.2,1.3,0,1.5-0.7c0.8-2.1-0.1,1.5,1.8-0.6c0.7-0.8,0.8-1.2,1-0.7c0.3,0.6,0,0.9,0.5,0.4c0.5-0.5-0.1-1.1,0.9-1.1
		c1,0,0.9-0.7,1.2-0.4c0.3,0.3,0.7-0.3,0.9,0c0.8,1.6,1.4-2.5,2-0.4c0.1,0.4,0.8-2.1,1.7-0.6c0,0,0.9-2.2,0.9-1.8
		c0.1,1.7,1.1,1.9,1.6,0.7c0.4-1.2,1.2-0.9,1.1-0.4c-0.2,0.9-0.1,1-0.1,1c0.9-1.1,1.2-2.1,1.3-0.9c0.1,0.8,0.8,0.3,0.8,0.3
		c0.3-0.4,0.8-1,0.9-1.1c0.1-0.2,0.6-0.9,0.7-0.1c0,0.7-0.4,1,0.4,0c0.8-0.9,0.6-1.7,0.9-0.8c0.3,0.9-0.1,1.4,0.5,1.1
		c0.6-0.3,1-2.4,1.6-1.5c0.5,0.9,0.4,0.8,1,0.8c0.6-0.1,0.7-1.5,1.2-1c0.6,0.4,0.6-0.4,1.2,0.2c0.5,0.6,1.1,0.2,1.1,0.2s1-2.2,1.1-1
		c0.1,1.2,0.2,0.4,0.5,1.1c0.2,0.7,0.3,0.7,1-0.1c0.7-0.8,0.6-1.5,1-0.6c0.4,0.9,0.1,0.9,0.9,0.6c0.8-0.3,0.9-2.3,1.2-1.3
		c0.2,1,0.8,1,0.8,1s0.2-1.9,0.9-0.9c0.7,1,1.7-1.4,2.1-0.3c0.4,1.1,0.9,0.6,1.2,1.4c0.2,0.8,0.1,0.6,0.5,0.5c0.5-0.1,0.5-1.4,1-0.9
		c0.5,0.5,0.9-0.6,1.2,0.5c0.4,1.1,0.8-0.3,1.3-0.1c0.5,0.2,0.2-2.1,1.2-0.9c1,1.2,1.4,1.8,1.4,1.8s0.5,0.1,0.9,0.3
		c0.4,0.3,0.6-1.3,0.8-1.3c0.3,0,0.7,1.6,1.5,2.6c0.1-0.2-0.2-0.6,0.2-0.7c0.4-0.1,0.7-0.4,0.8,0.5c0.1,0.9,0.3,1.1,0.3,1.1
		c0.2-0.3,0.1-1,0.6-1c0.5,0,0.5,0.7,1,1.4c0.5,0.7,0,0.4,0.6,0.6c0.6,0.2,0.9-1,1-0.9c0.1,0.5,0.3,1.3,0.3,1.5c0,0.2,1.3-3.2,1-0.6
		c-0.3,2.6,0.9-0.7,1,0.4c0.1,1.1,0,2,0.7,1.6c0.7-0.3,1.2-1,1.2-1c0.2,0.4,0.5,0.9,0.6,1c0.1,0.2,0.6-0.9,0.7-0.1
		c0.1,0.7,0.3-1.2,0.5-0.2c0.2,1,0.7,1.2,0.7,1.2s0.4,1.5,0.7,0.7c0.2-0.8,0.3-1.1,0.3-1.1s0.4-0.1,0.8,1.1c0.4,1.2,1.4-0.8,1.4-0.8
		s0.4,0.2,0.6,1.9c0.2,1.7,0.6,0.7,0.6,0.7s0.9-1.3,1.4-0.4c0.5,0.9,0.6-1.7,1-0.6c0.4,1.1,0.6,0.7,0.6,1.5c0,0.8,0.1,1.5,0.1,1.5
		s0.4,1,0.8,0.1c0.4-0.9,0.4-2.2,0.7-1c0.3,1.2,0.5,1.3,0.5,1.3s0-2.6,0.5-0.8c0.5,1.9,0.8,1.7,0.8,1.7s0.2-2.6,0.7-1.2
		c0.5,1.4,0.7,1.8,0.7,1.8s0.6-1.6,1.1,1.2c0.6,2.8,1.3-1.5,1.3-0.7c0,0.8,0.1,1,0.1,1s-0.1,1.6,0.3,1c0.4-0.6,1.1-3.6,1.2-1.5
		c0.1,2.1,0.3,2.2,0.3,2.2s0.6-1.6,1-0.6c0.4,1,0.6,0.5,0.8,1.3c0.2,0.8,0.6-0.5,0.6-0.5s0.4-0.1,0.6,0.7c0.2,0.8,0.3-2,0.7-0.4
		c0.4,1.7,0,3,0.7,2.2c0.7-0.8,1.2,0.1,1.2,0.1c0.4-0.2,0.5-1.4,1.1-0.7c0.7,0.6,0.9,2.2,0.9,2.2s0.3,0.4,0.7-0.5
		c0.4-0.9,0.4-0.5,0.4-0.5c0.1,0.3,0.4,0.7,0.5,0.9c0.1,0.1-0.1-2.9,0.3-1.5c0.4,1.4,0.6,2.4,0.8,1.3c0.3-1.1,0.6-2.7,0.8-1.1
		c0.2,1.6,0.6,1.8,0.6,1.8s0.2,1,0.4,1.8c0.2,0.8-0.2,1.1,0.5,0.9c0.7-0.2,0.8-0.7,1.3-0.6c0.5,0.1,0.1-0.9,0.8-0.3
		c0.7,0.6,0.5-0.3,1.1,0.9c0.6,1.2,0.5-0.1,1,0.3c0.5,0.4,0.5-1.6,0.8-0.6c0.3,1.1,0.6-1.8,1,0.4c0.4,2.1,0.1,0.2,0.8,0.8
		c0.7,0.6,1,0,1.2,0.8c0.2,0.8,0.6-0.5,0.8,0.4c0.2,0.9,0.4-1,0.9-0.2c0.5,0.8,0.7-1.2,1.2,0.4c0.6,1.7,0.4,0.2,1.1,0.8
		c0.7,0.6,1.4-0.1,1.7,0.8c0.2,0.9,0.6,1,0.6,1s0-0.9,0.8-0.3c0.7,0.6,0.7,1.6,1.3,1.8c0.6,0.3,0.9-0.1,1.7-0.2
		c0.7,0,0.5-1.3,1.1,0.5c0.6,1.9,1.3,3,1.3,3c0.3-0.4,0.6-1,0.8-1.2c0.1-0.2,0.6-0.9,1.1,0.6c0.5,1.5-0.1,1.2,0.6,1.5
		c0.7,0.3,0.6-0.2,1.4,0c0.7,0.2,0.4-0.7,0.9-0.4v82H416.3v10H195.8l12.5-72.4c0.1,0,0-0.1,0.3,0.1c0.2,0.2,0.6,0.1,0.8,0.5
		c0.2,0.3,0.5-0.3,0.5-0.3s0.4-0.1,0.6,0.3c0.2,0.3,0.3-1.1,0.7-0.3c0.4,0.8,0,1.4,0.7,0.9c0.7-0.5,1.2-0.1,1.2-0.1
		c0.4-0.2,0.6-0.7,1.1-0.5c0.5,0.2,0.9,0.9,0.9,0.9s0.3,0.1,0.7-0.4c0.4-0.5,0.4-0.3,0.4-0.3c0.2,0.1,0.4,0.3,0.5,0.3
		c0.1,0-0.1-1.4,0.3-0.8c0.4,0.6,0.5,1.1,0.8,0.5c0.3-0.6,0.6-1.5,0.8-0.7c0.2,0.8,0.5,0.8,0.5,0.8s0.2,0.5,0.4,0.8
		c0.2,0.3-0.2,0.7,0.5,0.4c0.7-0.3,0.8-0.6,1.3-0.7c0.5-0.1,0.1-0.5,0.8-0.5c0.7,0,0.5-0.3,1.1,0.1c0.6,0.4,0.5-0.2,1-0.2
		c0.5,0,0.5-1,0.8-0.6c0.3,0.4,0.7-1.1,0.9-0.1c0.3,1,0.1,0.1,0.8,0.1c0.7,0,0.9-0.3,1.1,0c0.2,0.3,0.6-0.5,0.8-0.1
		c0.2,0.4,0.3-0.7,0.8-0.4c0.4,0.3,0.7-0.9,1.2-0.2c0.5,0.7,0.4,0,1.1,0c0.7,0,1.5-0.9,1.7-0.5c0.2,0.4,0.5,0.3,0.5,0.3
		s0-0.5,0.8-0.6c0.7-0.1,0.6,0.5,1.2,0.4c0.6-0.2,0.9-0.6,1.7-1c0.7-0.4,0.6-1.1,1.1-0.3c0.5,0.8,1,1.1,1,1.1c0.3-0.4,0.7-1,0.9-1.2
		c0.1-0.2,0.6-0.9,1-0.2c0.4,0.7-0.2,0.8,0.5,0.6c0.7-0.2,0.6-0.5,1.3-0.9c0.7-0.4,0.4-0.8,1-1c0.6-0.2,0.4-0.9,0.8-0.4
		c0.4,0.5,0.6,0.5,0.6,0.5c0.3,0,0.8-0.1,1-0.1c0.2,0-0.1-1.1,1-1c1.1,0,1.3,0.1,1.3,0.1c0.3,0,0.4-0.1,0.7,0.1
		c0.3,0.2,0.9-0.4,0.9-0.4c0.2-0.2,0.3-0.4,0.5-0.7c0.2,0,0.4,0.1,0.5,0.2c0.1-0.1-0.1,0,0.5-0.2c0.7-0.1,1.9-1.2,1.9-1.2
		c0.1,0.1,0,0.3,0.4,0.2c0.4-0.1,0.4,0,1-0.6c0.5-0.6,0.5-1.1,0.6-0.9c0,1-0.2,1,0.7,0.5c0.8-0.5,1-1.5,1.2-1.1
		c0.2,0.4,0.3,0.6,0.3,0.6c0.2,0,0.3,0,0.5,0c0.2-0.2,0.4-0.4,0.6-0.6c0.3-0.1,0.4-0.2,0.6-0.3c0.3,0,0.6,0.1,0.9,0.1
		c0.3-0.3,0.6-0.5,0.8-0.8c0,0.1-0.3,0.2,0.1,0.4c0.4,0.1,0.9-0.1,1.4-0.8c0.5-0.7,0.6-1.3,0.6-0.9c0,0.5,0,0.9,0,0.9
		s0.4-0.5,0.5-0.2c0.1,0.3,0.3-1.4,0.8-0.9c0.5,0.5,0.3,0.2,0.7,0.4c0.4,0.3,0.5,0.2,0.5,0.2c0.3-0.3,0.6-0.6,0.9-0.9
		c0.5-0.5,1.1-2.3,1.1-1.5c0,0.8,0,0.8,0.2,1.1c0.2,0.3,0.4,0.6,0.4,0.6c0.4-0.4,0.6-0.9,1-1.1c0.4-0.2,0.6,0.6,0.6,0.6
		c0.4-0.5,1-1.1,1.2-1.4c0.2-0.2,0.6-1.2,0.6-0.5c0,0.7-0.2,1.4,0.2,0.7c0.4-0.8,0.8-1.6,0.8-1.6s0.2-0.4,0.5,0.1
		c0.3,0.5-0.2,1.3,0.5,0.1c0.7-1.2,0.6-1.9,1.1-1.7c0.6,0.2,0.8,0.8,0.8,0.8s0.2-0.1,0.4,0.2c0.1,0.3,1.4-1.9,1.4-1.9
		s0.2-1.2,0.4-0.5c0.2,0.7,0,0.7,0.2,1c0.2,0.2-0.1,0.7,0.5,0.4c0.6-0.3,0.8-1.7,1.3-1.6c0.5,0.1,0,0.5,0.5,0.1
		c0.5-0.3,0.6-1.3,1.1-1.9c0.5-0.6,0.7-0.9,0.9-0.3c0.2,0.6,0.2,0.8,0.2,0.8s0.2-1.6,1.1-1.6c0.9,0.1,0.6,0.2,1,0.4
		c0.4,0.2,0.5,0.4,0.8-0.4c0.2-0.9,0.6-1.7,0.6-1.7s0.2,0,0.4,0.4c0.1,0.4,0,0.5,0.8-0.1c0.8-0.6,1.4-1.9,1.4-1.9s0.1,0.3,0.3,0.6
		c0.1,0.3,0.1,0.4,0.6-0.4c0.5-0.8,0.8-2.1,1-1.4c0.3,0.7-0.1,1.4,0.4,0.6c0.5-0.8,0.2-1.3,0.7-0.8c0.5,0.5,0.2,0.8,0.7,0.2
		c0.5-0.5,0.1-0.7,0.6-0.7c0.5,0,0.9-2,1.4-1.3c0.7,1,0.6-0.2,1.4,0c1.1,0.2,1.3,0,1.5-0.7c0.8-2.2-0.1,1.5,1.8-0.6
		c0.7-0.8,0.8-1.2,1-0.7c0.3,0.6,0,0.9,0.5,0.4c0.5-0.5-0.1-1.1,0.9-1.1c1,0,0.9-0.7,1.2-0.4c0.3,0.3,0.7-0.3,0.9,0
		c0.8,1.6,1.4-2.5,2-0.4c0.1,0.4,0.8-2.1,1.7-0.6c0,0,0.9-2.2,0.9-1.8c0.1,1.7,1.1,1.9,1.6,0.7c0.4-1.2,1.2-0.9,1.1-0.4
		c-0.2,0.9-0.1,1-0.1,1c0.9-1.1,1.2-2.1,1.3-0.9c0.1,0.8,0.8,0.3,0.8,0.3c0.3-0.4,0.8-1,0.9-1.1c0.1-0.2,0.6-0.9,0.7-0.1
		c0,0.7-0.3,1,0.4,0c0.8-0.9,0.6-1.7,0.9-0.8c0.3,0.9-0.1,1.4,0.5,1.1c0.6-0.3,1-2.4,1.6-1.5c0.5,0.9,0.4,0.8,1,0.8
		c0.6-0.1,0.7-1.5,1.2-1c0.6,0.4,0.6-0.4,1.2,0.2c0.5,0.6,1.1,0.2,1.1,0.2s1-2.2,1.1-1c0.1,1.2,0.2,0.4,0.5,1.1
		c0.2,0.7,0.3,0.7,1-0.1c0.7-0.8,0.6-1.5,1-0.6c0.4,1,0.1,0.9,0.9,0.6c0.8-0.3,0.9-2.3,1.2-1.3c0.2,1,0.8,1,0.8,1s0.2-1.9,0.9-0.9
		c0.7,1,1.7-1.4,2.1-0.3c0.4,1.1,0.9,0.6,1.2,1.4c0.2,0.8,0.1,0.6,0.5,0.5c0.5-0.1,0.5-1.4,1-0.9c0.5,0.5,0.9-0.6,1.2,0.5
		c0.4,1.1,0.8-0.3,1.3-0.1c0.5,0.2,0.2-2.1,1.2-0.9c1,1.2,1.4,1.8,1.4,1.8s0.5,0.1,0.9,0.3c0.4,0.3,0.6-1.3,0.8-1.3
		c0.3,0,0.7,1.6,1.5,2.6c0.1-0.2-0.2-0.6,0.2-0.7c0.4-0.1,0.7-0.4,0.8,0.5c0.1,0.9,0.3,1.1,0.3,1.1c0.2-0.3,0.1-1,0.6-1
		c0.5,0,0.5,0.7,1,1.4c0.5,0.7,0,0.4,0.6,0.6c0.6,0.2,0.9-1,1-0.9c0.1,0.5,0.3,1.3,0.3,1.5c0,0.2,1.3-3.2,1-0.6
		c-0.3,2.6,0.9-0.7,1,0.4c0.1,1.1,0,2,0.7,1.6c0.7-0.3,1.2-1,1.2-1c0.2,0.4,0.5,0.9,0.6,1c0.1,0.2,0.6-0.9,0.7-0.1
		c0.1,0.7,0.3-1.2,0.5-0.2c0.2,1,0.7,1.2,0.7,1.2s0.4,1.5,0.7,0.7c0.2-0.8,0.3-1.1,0.3-1.1s0.4-0.1,0.8,1.1c0.4,1.2,1.4-0.9,1.4-0.9
		s0.4,0.2,0.6,1.9c0.2,1.7,0.6,0.7,0.6,0.7s0.9-1.3,1.4-0.4c0.5,0.9,0.6-1.7,1-0.6c0.4,1.1,0.6,0.7,0.6,1.5c0,0.8,0.1,1.5,0.1,1.5
		s0.4,1,0.8,0.1c0.4-0.9,0.5-2.2,0.7-1c0.3,1.2,0.5,1.3,0.5,1.3s0-2.6,0.5-0.8c0.5,1.9,0.8,1.7,0.8,1.7s0.2-2.6,0.7-1.2
		c0.5,1.4,0.7,1.8,0.7,1.8s0.6-1.6,1.1,1.2C367.4,212.6,367.4,212.7,367.4,212.7L367.4,212.7z"/>
</g>
</svg>
