<?xml version="1.0" encoding="utf-8"?>
<!-- Generator: Adobe Illustrator 18.0.0, SVG Export Plug-In . SVG Version: 6.00 Build 0)  -->
<!DOCTYPE svg PUBLIC "-//W3C//DTD SVG 1.1//EN" "http://www.w3.org/Graphics/SVG/1.1/DTD/svg11.dtd">
<svg version="1.1" xmlns="http://www.w3.org/2000/svg" xmlns:xlink="http://www.w3.org/1999/xlink" x="0px" y="0px"
	 viewBox="0 0 567.4 304.5" enable-background="new 0 0 567.4 304.5" xml:space="preserve">
<g id="Grid" display="none">
</g>
<g id="Layer_1">
</g>
<g id="Desktop">
</g>
<g id="Guides">
</g>
<g id="Page_1">
</g>
<g id="Layer_1_1_">
	<path fill-rule="evenodd" clip-rule="evenodd" fill="#0F1018" d="M81.3,170.3C81.3,170.3,81.3,170.3,81.3,170.3
		c0.1-0.1,0.4-0.4,0.4-0.4C82.3,169.9,81.8,170.5,81.3,170.3L81.3,170.3z M0,303.4h245.7l15.5-25.7c0,0,0-0.1,0.1,0
		c0.1,0,0.2,0,0.3,0h2.7c0.2-0.2,0.4-0.5,0.4-0.5c0-0.6-1.1,0.8-0.6,0c0.8-1.3-0.8-2.3-0.7-3.6c0,0-0.3,0.8-0.2,0.8
		c0.2,0-0.2,0.7-0.3,0.6c-0.2-0.1,0.1,0.4,0.3,0.4c0.1,0-0.7,0.2-0.3,0.2c0.6-0.1-0.6,0.1-0.3,0.2c0.1,0,0.7,0.9,0,0.6
		c-0.6-0.3-0.1,0.2,0,0.3c0.6,0.9-0.3,0.5-0.3,0.3c0,0-0.5-0.5-0.3-0.7c0.5-0.5-0.7-0.5-0.7-0.5c0.8-0.3-0.2-0.3-0.2-0.3
		c0.5-1.1-0.2-0.9-0.2-2c0-0.6-0.2,0.6-0.7,0.7c0.2-0.5-0.8,0.1-0.6,0c0.7-0.4,0.6-1.3,0.6-1.3c-0.7,0.8-0.6,0.3,0.1-0.7
		c0,0-0.6,0.1-0.8,0.2c0.1-0.2,0.5-1.1,0.3-0.9c-0.2,0.2-0.5-1.2-0.4-1.4c0.1-0.6-1-1.1-0.7-0.5c0.2,0.3-1,2.8-0.4,3.1
		c0,0-0.7-0.5-0.7-0.3c-0.3,1.5-0.8,0.9-0.8,0.9c0.1,0.3,0.8-1,0.6-0.9c-2.1,1.2,0.8-0.9-0.6-0.3c0,0-0.3-2-0.3-2.1
		c0.4-0.7-0.9-0.4-0.5-1.7c0-0.1-0.7,0.1-0.7,0.1c0.7-0.2-0.3-2-0.3-2.4c-0.1-0.7-0.5,1.6-0.7,1.5c-0.6-0.3,0.9,0.8,0.1,0.7
		c-0.7-0.1-0.3,0.4-0.1,1.1c0.1,0.4-0.8-0.1-0.5-0.2c0.3-0.2-1.7,0.3-1.8,0.3c-0.3-0.2,3-3.1,0.7-1.2c-1.5,1.2,0.7-1.5,0.7-1.5
		c0-0.8-1.4,1-1.6,0.3c0-0.1,1.7-0.5,0.9-0.9c-0.1,0,0.6-1.5-0.3-0.9c-1.3,0.8,0.8-1.6-0.2-1.2c-0.4,0.2-0.2-1.9-0.4-1.7
		c-1.5,0.9,0.3-0.7-0.1-0.5c-0.1,0-0.9-1.9-0.7-0.8c0.5,0.4-1.7,2.8-0.2,2.7c0.2,0-1.3,0.4-0.6,0.4c1-0.1-1.7,0.7-0.1,1.1
		c0.2,0.1,0.4,0.6-0.3,0.3c-1.3-0.6,0.6,1.1,0.6,1.3c0,0.5-1.2,0.2-1.1-0.2c0.2-0.8-0.2,0.2-0.6,0.3c-0.1-0.2,1.4-1.6,0.2-0.8
		c-0.2,0.2,0-1-0.3-1.7c0.7-0.4-1.3,0.2-1,0c0.5-0.2,1.5-1.9-0.2-1.4c0-0.2,1-1.2-0.1-0.6c-0.9,0.5,1.7-1.8,0.6-1.2
		c-3,1.5,2.3-1.7-0.7-0.4c-0.6-0.6,0-0.8,0.4-1.4c0.9-1.1-0.4-0.1-0.9,0.1c-2.9,1.4,0.4-1.7-0.7-0.9c-0.4,0.3,2.3-1.9,0.9-1.5
		c-2.5,0.9-0.1-0.7,0-0.7c0.4-0.2-0.8,0.1-0.9,0.1c-2.9,0.6,1.2-0.8,0.9-1.9c0-0.1-0.6,0.4-0.6,0.4c-2.2,1.9-0.7-0.2-0.2-0.5
		c0.1,0,0.5-0.3,0.5-0.5c0-0.1-2.8,0.5-1.5,0.1c1.6-0.4-0.1-0.8,0.7-1.4c0.3-0.2,0.4-0.6-0.4-0.2c-1,0.5-0.2-0.3-0.1-0.8
		c-0.3,0,0.6-0.6,0.2-0.5c-1.7,0.3,0.1,0.2-0.8-0.4c-0.5-0.3,1-0.9-0.1-0.5c-0.3,0.1,0.5-0.9,0-0.7c-1.8,1,1.1-0.8-0.3-0.3
		c-0.9,0.3,0.4-0.5,0.2-0.5c-0.5-0.1-0.7-1.8-0.9-0.5c0,0.3-0.6,1.2,0.1,0.9c0.7-0.3-1.2-0.1-0.2,0.6c0.2,0.2-1.2-0.4-0.5,0.4
		c0.2,0.2-0.8-0.3,0.1,0.7c0.2,0.2-2.9,0.9-1.4,0.1c0.2-0.1,1.4-1.6,0.1-0.6c-1.5,1.2,1.5-1.2-0.4-0.5c-1.2,0.4,1.4-1.7-0.4-1.3
		c-0.4,0.1,0.9-1.2,0.2-0.9c-0.6,0.2,0.5-1.4-0.8-0.8c0,0,0.7-0.6,0-0.5c0,0,0.1-0.6,0.1-0.6c0-0.1-0.2-0.2-0.2-0.2
		c-0.2-1.1-0.6,0.8-0.2,0.6c0.4-0.2-0.4,0-0.4,0.2c0,0.9,0-0.4,0.1,0.6c0.1,1-0.2,0.6-0.3,0.5c-0.8-0.5,0.6,0.4,0,0.3
		c-1-0.2,0.3,0-0.7,0.6c-1.5,0.8-0.8,0-0.3-0.5c0.3-0.2-0.7-0.1-1.1-0.5c0,0,0.6-0.1,0.7-0.1c0.8-0.2,0.7-0.8,1.2-1.1
		c0.1,0-2.6,0.8-1.6,0.1c0,0,2.5-1.1,0.7-0.6c-1.8,0.5,1.7-2.6-0.4-0.9c-0.9,0.8-0.2-0.2-0.1-0.2c0.1,0,0-0.4,0.3-0.7
		c1.3-1-1.6,0.7-0.5-1.2c0.8-1.3-0.5-0.3-0.2-0.6c0,0,0-0.2,0.1-0.2c0,0,0.5-1.2-0.4-0.9c-0.5,0.1,0.7-1,0.4-0.9
		c-0.4,0.1-0.7-1-0.7-1.2c0.1-1.1-0.1-0.7-0.5-0.2c-0.1,0.2,0,0.5,0.1,0.7c0,0.1-0.5-0.3-0.1,0.6c0,0-0.4,0-0.5,0.4
		c-0.2,0.4-1.2,0.1,0.1-1.1c0.8-0.7-1.6,0.3-0.4-0.7c0,0,0.5-0.7,0-0.4c-0.1,0-0.5-0.4-0.3-0.6c0.2-0.4-0.6-1,0-1.2
		c0,0-0.8,0.3-0.2-0.2c0,0-0.4-1.8-0.6-0.8c-0.1,0.3-0.1,0.3-0.2,0.5c-0.1,0.1-0.3,0.9,0.2,1.3c0,0-0.4-0.7-0.4,0.3
		c0.1,1-0.5,0.2-0.3,0.7c0.2,0.8-0.1-0.4-0.1,0.5c0,1.7-0.4,0-0.5,0.7c-0.1,0.8,1.4,1.6,0.1,1.6c-1.5,0-0.1-0.2,0.1,0.8
		c0.3,1.2-1-0.3-1-0.2c0.6,1.5,2.6,1.1-0.1,1.3c0,0-0.6,0.9-0.4,0.4c0.2-0.6-0.1-2.7-0.7-3c-0.6-0.2-1.1,0.3-0.6,0
		c0.6-0.4,0.9-0.5,0.8-1.4c-0.1-0.3-1.5,1.4-0.1-0.5c0,0-0.9,0-0.9,0c0,0,0.8-1.1,0.3-0.7c-0.2,0.2-0.5-1.2-0.4-1.4
		c0.4-1.8-1.3,0.2-0.9,0.5c0.1,0.1-0.9,2.1,0,2c0,0-0.9-0.1-0.9-0.1c-0.2,1.1-0.5,0.8-0.3,1c-1.3,0.4,0.4-1.1,0.2-1
		c-2.1,1.2,0.8-0.9-0.6-0.3c-0.6,0.2-0.1-0.6,0-0.6c0,0-0.4-1.8-0.7-3c0,0-0.4,1.3,0-0.1c0-0.1-0.7,0.1-0.7,0.1
		c1-0.3-0.3-1.5-0.3-1.6c0-0.1,0-0.7,0-0.8c-0.1-0.7-0.5,1.6-0.7,1.5c-0.6-0.3,0.9,0.8,0.1,0.7c-0.8-0.2,0.2,2.6-2.4,1.1
		c-0.3-0.2,3-3.1,0.7-1.2c-1.5,1.2,0.7-1.5,0.7-1.5c0-0.8-1.3,1-1.6,0.3c0-0.1,1.7-0.5,0.9-0.9c-0.1,0,0.6-1.4-0.3-0.9
		c-1.3,0.8,0.8-1.6-0.2-1.2c-0.4,0.2-0.2-1.9-0.4-1.7c-1.5,0.9,0.3-0.7-0.1-0.5c-0.1,0-0.9-1.9-0.7-0.8c0.5,0.4-1.7,2.8-0.2,2.7
		c0.2,0-1.3,0.4-0.6,0.4c1-0.1-1.7,0.7-0.1,1.1c0.8,0.2-1.2-0.6-0.3,0.8c1.1,1.6-0.6,0.8-0.5,0.5c0.2-0.8-0.2,0.2-0.6,0.3
		c-0.1-0.2,1.4-1.6,0.2-0.8c-0.2,0.2-0.4-1.8-0.4-1.7c0,0-1.6,0.4-0.9,0.1c1.5-0.6-0.4-0.4-0.4-0.5c0.5-1,0.7-1.8,0-1.5
		c-1.1,0.5,1-1.3,0-0.7c-0.2,0.1-0.7-1.8-0.8-1.5c1.1,0.7-3.6,2.3-1.1,0.9c0.3-0.1,0.9-0.9,0.1-0.6c-1.2,0.5,0.5-2.3-0.2-1.6
		c-1.5,1.6-1.4,0.4-0.9,0.3c0.5,0,2-2,0.7-1.5c-1.6,0.6-0.5-0.6-1.4-0.3c0,0,0.1,0,0.1-0.1c0.2-0.4,1.2-1.2,1-1.4
		c-0.2-0.2-1.8,0.6-0.7-0.4c0.5-0.4,0.5-0.6-0.5-0.4c0,0,0.8-1,0.5-0.8c-2.3,1.3,1.1-1.1-0.6-0.5c-0.3,0.1,0.8-0.9,0-0.6
		c-1.2,0.5,1-1-0.3-0.5c-0.9,0.3,0.4-0.4,0.2-0.4c-0.8-0.1,0.1-0.7-0.4-1.2c-0.5-0.4-0.3,1-0.4,1.2c-0.2,0.6-0.2-0.5,0.1,0.4
		c0,0-1.1-0.2,0,0.9c0.3,0.3-0.7-0.7-0.7-0.2c0,0.5-0.8,1.6-1.1,0.6c-0.2-0.5,2.6-2,0.3-1.5c-0.5,0.1,1.2-1.8,0.2-1.4
		c-1.5,0.6,1.5-0.8-0.9-0.2c-0.3,0.1,0.3-0.3,0.3-0.4c0-0.1,0.4-0.6,0.4-0.6c0,0-0.2,0-0.2-0.7c0-0.1-1.1,0.5-0.6,0.2
		c0.5-0.3-0.2-0.7-0.1-1.1c0-0.2-0.2-0.5-0.1-0.9c0.2-0.5-0.6,1.1-0.6,1.1c-0.8,0,1,0.8,0,0.6c-1.3-0.3,1.2,1.1-0.1,0.8
		c-0.7-0.2-0.3,0.5-0.3,0.6c-0.1,0.2-0.8,0.9-0.2,0.9c1.2-0.1-1.6,0.2-0.3,0.5c1.3,0.3,0.6,1.2,0,1c-2.1-0.7,0.7,1.1-0.5,0.7
		c-0.6-0.2,1.5,1.3,0.4,1.4c-0.3,0-1.9-1.3-1.2-0.2c0.3,0.5,0.9,0.8,1.2,1.3c0.3,0.6-1.2-1.3-1.3-0.3c-0.1,1.1,1.3,0.9,1.7,1.4
		c0.3,0.4-1.7,0-2,0c-0.1,0-0.3,1-0.4,0.3c-0.1-0.6,0.1-1.3-0.2-1c-0.7,0.7-0.2-0.5,0-0.4c0.2,0-0.8-1.1-0.6-2.1
		c0-0.3-0.2,0.8-1.1,1c-1.5,0.4,1.5-2.2-0.4-0.7c-0.1,0.1-0.8,0,0.1-0.8c1.1-0.9-2.1,0.4-0.1-1.3c0.6-0.5-0.6,0-0.6-0.2
		c0.3-1.1-0.6-2-0.3-2.5c0.1-0.2-0.2,0.2-0.2-0.2c0-0.3-0.1-1.3-0.3-0.3c0,0-0.4,0.8,0,1.3c0,0-0.5,0-0.6,0.3
		c-0.2,0.4,0.1,0.3,0.1,0.7c0,0-0.9,0.7,0,0.9c0.9,0.3-0.6-0.4-0.5,0.2c0,0.7-0.4,0.1,0.2,0.9c0.2,0.3,0.4,0.3-0.5,0.1
		c-1.2-0.4,1.4,2,0,0.9c-1.1-0.9-0.1,0.5,0.1,0.6c1.9,1-2.9,0-1.4,0.3c0.3,0,1.4-0.9,0.5-0.6c-1.9,0.7,1.4-2.3-0.5-0.7
		c-0.5,0.4-0.5-0.8,0.1-0.6c0,0-0.8-0.2-0.2-1.2c0,0-0.2-1.3-0.2-1.5c0-0.6-0.8,0.8-0.3-0.2c0.3-0.7-0.2-0.2,0-0.4
		c0.1-0.1-0.4-0.7-0.3-1c0.2-1.4-0.7-0.1-0.3,0.4c0,0-1.2,2.2-0.4,2.5c0.8,0.3-0.6-0.4-0.5,0.2c0,0.4-0.5,0.7,0.4,1
		c0.3,0.1-0.3,0.1-0.7,0c-1.1-0.4,0.5,0.7,0.4,1c-0.1,0.6-1.3-1.1-0.7,0.1c0.6,1,0.6,0.2-0.5,0.9c-0.3,0.2-1,0.5-0.8,0.3
		c1-1,0.9-0.5,0.1-0.4c-0.2,0,0.2-1,0.2-1c0.2,0-0.3-0.2-0.3-0.4c-0.1-0.3,0-0.7-0.1-0.7c0,0-0.2-0.4-0.2-0.5c0,0-0.3-0.6-0.2-0.6
		c0.2,0-0.4-1.1-0.4-0.6c0,0.9-0.7,1.1-0.4,1.5c0.5,0.8-0.7,0-0.3,0.3c0.6,0.5-0.8,0.1,0.1,0.7c0,0-1-0.2,0,0.6
		c0.6,0.5-1.2,0.3-1.2,0.3c0.6-0.3-0.1-0.6-0.1-1.3c0,0-0.3,0.5-0.2,0.6c0,0-0.2,0.5-0.2,0.9c0,0-0.1,0.1-0.3,0.2c0,0,0-0.1,0-0.1
		c0-0.1-0.2-0.2-0.2-0.2c-0.1-0.8-0.4,0.1-0.4,0.5c-0.3,0.1-0.5,0.1-0.8,0c0,0,1.4-1.3,1.4-1.3c-1,0.3-1.9,1.5-1.4,0.5
		c0.5-0.9,1.5-1.7,0-1.4c-0.3,0.1,2-1-0.7-0.5c0,0,2.3-2.1,0.5-0.8c-1,0.7,1.8-1.4-0.2-0.7c-0.1,0-1.1,0,0-0.3
		c0.2-0.1,0.3-0.7,0.2-0.6c-0.8,0.3,1.1-0.7-0.5-0.4c-0.2,0,0.1-0.4,0.2-0.6c-0.1,0-0.4-0.6-0.1-1.2c0.1-0.3-0.9,0.3-0.6-0.3
		c0.2-0.3,0-0.5-0.3-1.4c0-0.1-0.1,0.2-0.1,0.3c0,1.2-0.4,0.6-0.3,1.6c0.1,1-0.1,0.6-0.4,0.5c0,0,0,0,0,0c0-0.1,0-0.2,0-0.3
		c0.1-1.1-0.1-0.7-0.5-0.2c-0.1,0.2,0,0.5,0.1,0.7c0,0.1-0.5-0.3-0.1,0.6c0,0-0.4,0-0.5,0.4c-0.2,0.4-1.2,0.1,0.1-1.1
		c0.8-0.7-1.6,0.3-0.4-0.7c0,0,0.5-0.7,0-0.4c-0.1,0-0.5-0.4-0.3-0.6c0.2-0.4-0.6-1,0-1.2c0,0-0.8,0.3-0.2-0.2c0,0-0.4-1.8-0.6-0.8
		c-0.1,0.3-0.1,0.3-0.2,0.5c-0.1,0.1-0.3,0.9,0.2,1.3c0,0-0.4-0.7-0.4,0.3c0.1,1-0.5,0.2-0.3,0.7c0.2,0.8-0.1-0.4-0.1,0.5
		c0,0.1,0,0.3,0,0.4c-0.3,0-0.6,0.1-0.6,0.1c-1,0.2,0.5-0.7,0.5-1c0-0.2-1.3,0.1-0.4-0.5c0.8-0.6-1,0.2,0.1-0.8c0,0-0.9,0-0.2-0.3
		c0,0-0.2-0.5-0.2-0.5c0,0-0.8-0.5-0.5-1.3c0.3-0.7-0.6,1-0.6,1c-0.6-0.2,0.8,0.8,0.1,0.6c-0.5-0.1-0.7,0.6-0.3,0.9
		c0.3,0.2-0.1,0.1-0.3,0.1c-0.7-0.1,0.3,0.6,0.3,0.8c0,0.2-0.7-0.6-0.6,0.1c-0.2,0-0.5,0-0.5,0c0,0,0.8-1.1,0.3-0.7
		c-0.2,0.2-0.5-1.2-0.4-1.4c0.4-1.8-1.3,0.2-0.9,0.5c0.1,0.1-0.3,0.9-0.4,1.5c-0.1,0.1-0.2,0.2-0.2,0.2c0,0,0,0,0,0.1
		c0.1,0.2,0.1,0.3,0.1,0.3c-0.2,0-0.5,0-0.5,0c-0.2,1.1-0.4,0.8-0.3,1c-1.3,0.4,0.4-1.1,0.2-1c-2.1,1.2,0.8-0.9-0.6-0.3
		c-0.6,0.2-0.1-0.6,0-0.6c0,0-0.4-1.8-0.7-3c0,0-0.4,1.3,0-0.1c0-0.1-0.7,0.1-0.7,0.1c1-0.3-0.3-1.5-0.3-1.6c0-0.1,0-0.7,0-0.8
		c-0.1-0.7-0.5,1.6-0.7,1.5c-0.6-0.3,0.9,0.8,0.1,0.7c-0.8-0.2,0.2,2.6-2.4,1.1c-0.3-0.2,3-3.2,0.7-1.2c-1.5,1.2,0.7-1.5,0.7-1.5
		c0-0.8-1.3,1-1.6,0.3c0-0.1,1.7-0.5,0.9-0.9c-0.1,0,0.6-1.4-0.3-0.9c-1.3,0.8,0.8-1.6-0.2-1.2c-0.4,0.2-0.2-1.9-0.4-1.7
		c-1.5,0.9,0.3-0.7-0.1-0.5c-0.1,0-0.9-1.9-0.7-0.8c0.5,0.4-1.7,2.8-0.2,2.7c0.2,0-1.3,0.4-0.6,0.4c1-0.1-1.7,0.7-0.1,1.1
		c0.8,0.2-1.2-0.6-0.3,0.8c1.1,1.6-0.6,0.8-0.5,0.5c0.2-0.8-0.2,0.2-0.6,0.3c-0.1-0.2,1.4-1.6,0.2-0.8c-0.2,0.2-0.4-1.8-0.4-1.7
		c0,0-1.6,0.4-0.9,0.1c1.5-0.6-0.4-0.5-0.4-0.5c0.5-1,0.7-1.8,0-1.5c-1.1,0.5,1-1.3,0-0.7c-0.2,0.1-0.7-1.8-0.8-1.5
		c1.1,0.7-3.6,2.3-1.1,0.9c0.3-0.1,0.9-0.9,0.1-0.6c-1.2,0.5,0.5-2.3-0.2-1.6c-1.5,1.6-1.4,0.4-0.9,0.3c0.5,0,2-2,0.7-1.5
		c-1.6,0.6-0.5-0.6-1.4-0.3c0,0,0.1,0,0.1-0.1c0.2-0.4,1.2-1.2,1-1.4c-0.2-0.2-1.8,0.6-0.7-0.4c0.5-0.4,0.5-0.6-0.5-0.4
		c0,0,0.8-1,0.5-0.8c-2.3,1.3,1.1-1.1-0.6-0.5c-0.3,0.1,0.8-0.9,0-0.6c-1.2,0.5,1-1-0.3-0.5c-0.8,0.3,0.4-0.4,0.2-0.4
		c-0.8-0.1,0.1-0.7-0.4-1.2c-0.5-0.4-0.3,1-0.4,1.2c-0.2,0.6-0.2-0.5,0.1,0.4c0,0-1.1-0.2,0,0.9c0.3,0.3-0.7-0.7-0.7-0.2
		c0,0.5-0.8,1.6-1.2,0.6c-0.2-0.5,2.6-2,0.3-1.5c-0.5,0.1,1.2-1.8,0.2-1.4c-1.5,0.6,1.5-0.8-0.9-0.2c-0.3,0.1,0.3-0.3,0.3-0.4
		c0-0.1,0.4-0.6,0.4-0.6c0,0-0.2,0-0.2-0.7c0-0.1-1.1,0.5-0.6,0.2c0.5-0.3-0.2-0.7-0.1-1.1c0-0.2-0.2-0.5-0.1-0.9
		c0.2-0.5-0.6,1.1-0.6,1.1c-0.8,0,1,0.8,0,0.6c-1.3-0.3,1.2,1.1-0.1,0.8c-0.7-0.2-0.3,0.5-0.3,0.6c-0.1,0.2-0.8,0.9-0.2,0.9
		c1.2-0.1-1.5,0.2-0.3,0.5c1.3,0.3,0.6,1.2,0,1c-2.1-0.7,0.7,1.1-0.5,0.7c-0.6-0.2,1.5,1.3,0.4,1.4c-0.3,0-1.9-1.3-1.2-0.2
		c0.3,0.5,0.9,0.8,1.2,1.3c0.3,0.6-1.2-1.3-1.3-0.3c-0.1,1.1,1.3,0.9,1.7,1.4c0.3,0.4-1.7,0-2,0c-0.1,0-0.3,1-0.4,0.3
		c-0.1-0.6,0.1-1.3-0.2-1c-0.7,0.7-0.2-0.5,0-0.4c0.2,0-0.8-1.1-0.6-2.1c0-0.3-0.2,0.8-1.1,1c-1.5,0.4,1.5-2.2-0.4-0.7
		c-0.1,0.1-0.8,0,0.1-0.8c1.1-0.9-2.1,0.4-0.1-1.3c0.6-0.5-0.6,0-0.6-0.2c0.3-1.1-0.6-2-0.3-2.5c0.1-0.2-0.2,0.2-0.2-0.2
		c0-0.3-0.1-1.3-0.3-0.3c0,0-0.4,0.8,0,1.3c0,0-0.5,0-0.6,0.3c-0.2,0.4,0.1,0.3,0.1,0.7c0,0-0.9,0.7,0,0.9c0.9,0.3-0.6-0.4-0.5,0.2
		c0,0.7-0.4,0.1,0.2,0.9c0.2,0.3,0.4,0.3-0.5,0.1c-1.2-0.4,1.4,2,0,0.9c-1.1-0.9-0.1,0.5,0.1,0.6c1.9,1-2.9,0-1.4,0.3
		c0.3,0,1.4-0.9,0.5-0.6c-1.9,0.7,1.4-2.3-0.5-0.7c-0.5,0.4-0.5-0.8,0.1-0.6c0,0-0.8-0.2-0.2-1.2c0,0-0.2-1.3-0.2-1.5
		c0-0.6-0.8,0.8-0.3-0.2c0.3-0.7-0.2-0.2,0-0.4c0.1-0.1-0.4-0.7-0.3-1c0.2-1.4-0.7-0.1-0.3,0.4c0,0-1.2,2.2-0.4,2.5
		c0.8,0.3-0.6-0.4-0.5,0.2c0,0.4-0.5,0.7,0.4,1c0.3,0.1-0.3,0.1-0.7,0c-1.1-0.4,0.5,0.7,0.4,1c-0.1,0.6-1.3-1.1-0.7,0.1
		c0.6,1,0.6,0.2-0.5,1c-0.3,0.2-1,0.5-0.8,0.3c1-1,0.9-0.5,0.1-0.4c-0.2,0,0.2-1,0.2-1c0.2,0-0.3-0.2-0.3-0.4
		c-0.1-0.3,0-0.7-0.1-0.7c0,0-0.2-0.4-0.2-0.5c0,0-0.3-0.6-0.2-0.6c0.2,0-0.4-1.1-0.4-0.6c0,0.9-0.7,1.1-0.4,1.5
		c0.5,0.8-0.7,0-0.3,0.3c0.6,0.5-0.8,0.1,0.1,0.7c0,0-1-0.2,0,0.6c0.6,0.5-1.2,0.3-1.2,0.3c0.6-0.3-0.1-0.6-0.1-1.3
		c0,0-0.3,0.5-0.2,0.6c0,0-0.2,0.5-0.2,0.9c0,0.1-0.8,0.7-1.6,0.5c0,0,1.4-1.3,1.4-1.3c-1,0.3-1.9,1.5-1.4,0.5
		c0.5-0.9,1.5-1.7,0-1.4c-0.3,0,2-1-0.7-0.5c0,0,2.3-2.1,0.5-0.8c-1,0.7,1.8-1.4-0.2-0.7c-0.1,0-1.1,0,0-0.3
		c0.2-0.1,0.3-0.7,0.2-0.6c-0.8,0.3,1.1-0.7-0.5-0.4c-0.2,0,0.1-0.4,0.2-0.6c-0.1,0-0.4-0.6-0.1-1.2c0.1-0.3-0.9,0.3-0.6-0.3
		c0.2-0.3,0-0.5-0.3-1.4c0-0.1-0.1,0.2-0.1,0.3c0,1.2-0.4,0.6-0.3,1.6c0.1,1-0.1,0.6-0.4,0.5c-0.8-0.3,0.7,0.5,0,0.4
		c-1.1-0.2,0.7,1.4-0.5,0.7c-0.6-0.4,0,0.3,0,0.3c0,0.8,1.7,0.9-0.7,0.8c-0.3,0,0.9,0.7,0.9,0.7c0.7,0.8-1.2,0.5-0.8-0.3
		c0.1-0.4-1.1,0.5-0.4-0.5c0.1-0.1-0.4-0.3-0.4-1.2c0-0.3-0.1,0.1-0.1,0.2c0.1,0.7,0,1.3-1.6,1.2c-1.1,0,2.7-1.2,0.2-0.6
		c-1,0.3,2.1-2.3-0.1-0.8c-0.4,0.3-0.7-0.6-0.1-0.5c0.1,0,0.6-0.6,0.8-0.7c0,0-1,0.1-1,0.1c-1,0.2,0.5-0.7,0.5-1
		c0-0.2-1.3,0.1-0.4-0.5c0.8-0.6-1,0.2,0.1-0.8c0,0-0.9,0-0.2-0.3c0,0-0.2-0.5-0.2-0.5c0,0-0.8-0.5-0.5-1.3c0.3-0.7-0.6,1-0.6,1
		c-0.6-0.2,0.8,0.8,0.1,0.6c-0.5-0.1-0.7,0.6-0.3,0.9c0.3,0.2-0.1,0.1-0.3,0.1c-0.7-0.1,0.3,0.6,0.3,0.8c0,0.2-0.7-0.6-0.6,0.2
		c0,0-0.5,1.1,0.6,0.9c1.1-0.2-1.3,0-1.3-0.7c0,0-0.4-0.2-0.4-0.2c0,0-0.2-0.8-0.2-0.8c0-0.1-0.2-0.7-0.2-0.4
		c0.1,0.7-0.6,1.1-0.6,1.1c0,0,0,0,0,0.1c0.4,0.6-0.4,0.1,0.2,0.5c0,0-0.5,1-0.5,1c0.4,0.3,0.9,0.7-0.1,0.4
		c-0.7-0.2,0.2,0.6,0.4,0.7c0.3,0.1-0.8-0.4-0.8-0.4c-0.7,0.1-0.1-1.1-0.8-1.4c-0.7-0.2-0.3,1-0.3,1c0,0,0,0.7-0.8,0.5
		c-0.1,0,1.2-0.5-0.2-0.2c-0.1,0,1.1-0.8,0.2-0.5c0,0-0.1-0.4-0.1-0.4c0.1-0.4-0.4-0.2-0.3-1.1c0.1-1-0.3,1-0.4,1
		c0,0-1.1,0.3-1.1,0.3c-1.6,0.4,2.5-1.9,0-0.7c-0.6,0.3-1.3,0.6-0.8,0.1c0,0,0.5-0.5,0.5-0.5c0,0-1.9-0.4-0.1-0.5
		c0.2,0,1.5-1.1,0.6-0.8c-1.4,0.5-2,0.5-0.5-0.1c2.1-0.7-1.9,0.3-0.2-0.7c0,0,1.4-1.6,0-0.6c-1,0.8-0.8-0.7-0.2-0.5
		c0.3,0.1-0.6-0.5-0.4-1.1c0-0.1,0.3-0.3,0.4-0.3c0.4-0.3-0.8,0.4-0.4-0.7c0,0-0.3-0.4-0.3-0.4c0-0.3-0.5,0-0.3-0.3
		c0.6-0.8,0-0.4,0-1.1c0-0.2-0.6-0.1-0.4-1c0,0-0.1-0.3-0.1-0.2c-0.3,1-0.7,1.3-0.1,1.8c0.1,0.1-0.8-0.7-0.5,0.1
		c0,0-0.3,0.7-0.3,0.7c0,0.1,0.8,0.4,0.2,0.3c-1.2-0.2,0.7,1.5-0.5,0.7c-0.6-0.4,0,0.3,0.1,0.4c0.1,0.1-0.8,0.5,0.4,0.8
		c0.3,0.1-0.6,0.2-1-0.4c-0.3-0.4-0.4,0.2-1.6,0c-1-0.1,0.5-0.2,0.8-0.3c0.2-0.1,0.7-0.5,0.6-0.6c0,0-2.5,0.1-1.2-0.1
		c0.6-0.1,0.7-1,1.1-1.2c0.4-0.2-1.3,0.8-1.8,0.2c0,0,1.4-0.9,1.4-0.9c0.2-0.1-1.4,0.3-1.3-0.2c0.1-0.3,1.4-1.7,0.3-1.1
		c-0.9,0.5-0.2-0.2-0.2-0.5c0-0.3,0.9-0.8-0.2-0.5c-0.7,0.2-0.1-0.2-0.1-0.2c0-0.1-0.7-0.4-0.2-0.4c0.2,0,0.2-0.6,0.2-1
		c0-0.1-1,0.3-0.2-0.2c0,0-0.6-0.2-0.5-0.4c0.3-0.5,0-0.1,0-0.6c0-0.1,0-0.1,0-0.2c0,0-1.2,1.5-0.4,1.8c0,0-0.4-0.7-0.4,0.3
		c0.1,1.1-0.1,0.4-0.3,0.9c-0.2,0.5,0.6,0.4-0.4,0c-0.6-0.2,1,1.3,0.2,1.1c-1.2-0.3-0.4-0.2-0.4,0.2c0.1,0.9-0.4,0.1-0.1,0.5
		c0.5,0.8,1.6,0.8-0.5,0.5c-1-0.2,2.3,2.6,0.2,1.2c-2-1.3,1.1,0.9,1.1,1c0.1,0.2-1.2,0.1-1.4,0.1c-0.6-0.1-0.8,0.9-1.7,0.5
		c0,0,0.5-0.9,0.9-1.2c1-0.7-1.4,0.4-0.7-0.3c1-0.9-0.4-0.8-0.4-0.8c0.8-0.3,0.9-0.5-0.3-0.2c0,0,0.7-0.7,0.6-0.7
		c-0.1-0.2-0.5,0.1-0.3-0.2c0.6-0.8-0.7-0.1-0.3-0.3c1.2-0.7-1,0.2,0.2-0.7c0,0-0.5-0.5-0.5-0.9c0-0.1-0.6,1.2-0.7,1.1
		c-0.7-0.2,1.4,1-0.1,0.4c0,0-0.9,0.3-0.9,0.3c-0.2-0.1,1.4-1.3,0.2-0.7c-0.7,0.4-0.1-0.2-0.1-0.3c0-0.5-0.1-0.7-0.2-0.6
		c-0.4,0.3,0-0.7,0-0.9c0-0.1-0.8,0-0.1-0.2c0,0-0.7,0.3-0.1-0.1c0,0-0.1-1-0.5-0.7c-0.3,0.3-0.4,1.6-0.4,1.6c0,0-0.4,0.5-0.4,0.5
		c0,0.1,0.7,0.4,0.1,0.3c-0.8-0.2,0.4,1.5-0.6,0.6c0,0,0,0.7,0.1,0.7c0.1,0,1.5,0.9-0.3,0.5c-0.9-0.2-1.2,0.8-0.5-0.3
		c-0.1-0.3-0.5,0-0.5-0.4c0.1-0.4-0.4-0.2-0.3-1c0.1-0.4-0.2,0-0.2,0.3c0,0.3-0.3,1.3-0.4,1.3c-0.1,0-0.6,0.9-1.9,0.5
		c0,0,1.8-1.6,1.8-1.6c-1.1,0.3-2.1,1.6-1.9,0.7c0.3-1.1,1.3-0.5-0.3-0.4c-0.3,0,0.7,0-0.4-0.4c0,0,3.1-1.6,1.4-1.1
		c-1.3,0.4-2.2-0.2-0.5-0.1c0.2,0,1.6-1.1,0.6-0.7c-3.1,1.1,1.9-2.7-0.9-0.7c-0.9,0.6-0.4-1.2,0.3-0.9c0,0,0.4-0.5,0.5-0.5
		c0.1,0-2.3,0.1-1.4-0.3c0.2-0.1,1.3-1.5,0.5-0.9c-1.4,1.1,0.7-1.2-0.6-0.8c-0.8,0.3,1.3-0.6-0.4-0.3c-0.5,0.1,1.3-0.7,0-0.7
		c-1.3,0-0.5-2.8-0.7-1.7c-0.1,0.5-0.8,1.2-0.1,1.5c0,0-0.4-0.7-0.4,0.3c0.1,1.1-0.5,1-0.5,1c-1-0.2,1.3,1.7-0.4,0.9
		c0.1,0-0.7-0.3-0.8-0.4c-0.1-0.1,0.5-1,0.1-1.2c-0.6-0.2-0.4,0.8-0.4,0.8c-1,0,0.3,0.1,0.1,0.4c0,0-1-0.3-0.6-0.1
		c1.2,0.6,0.1,0,0.1,0.9c0,0.5-0.4,0.7-0.5,0.8c0-0.5,0-1.1-0.2-1c-1.5,0.8,0.3-0.7-0.1-0.5c-0.1,0-0.9-2-0.7-0.9
		c0.3,0.3-0.3,1.1-0.6,1.7c-0.1,0-0.2,0-0.3,0c-0.7,0.1,0.6-1.4,0.2-1.1c-0.2,0.2-0.5,0.3-0.5,0c0.4-1.1-0.2-0.5,0.2-0.9
		c0.5-0.4-1.2,0.4-0.2-0.3c0.5-0.3-0.8-0.5-0.2-0.7c0,0-0.1-0.4-0.3-0.6c-0.8-0.6,0.4-0.1-0.6,0.3c0,0,0.8,0.9-0.1,0.5
		c-1-0.4,0,0.5,0,0.5c-0.2,0.3,0.1,0.7-0.4,0.6c-0.4-0.1,1,1.5-0.3,0.6c0-0.1-0.2,0.1-0.5,0.3c-0.1,0-0.1,0-0.2,0.1
		c-1,0.5,1-1.2,0-0.7c0.2-0.4,0.4-0.8,0.1-0.6c-0.2,0.1-0.3,0.2-0.4,0.2c0-0.1-0.1-0.2-0.1-0.3c0.1-0.1,0.3-0.3,0.4-0.3
		c0,0,0.2-0.3,0.1-0.3c-0.3,0-0.5,0-0.7,0c0,0.1,0,0.1,0.1,0.2c0.2-0.1,0.3-0.4,0.4-0.9c0.3-1.8-0.5,0.3-0.7,0.3
		c-0.1,0-0.2-0.8,0.1-0.9c0.6-0.4-1.1,0.4,0-0.5c0.1-0.1-0.6,0.1-0.5-0.1c0.3-0.6-0.1-0.5-0.1-1.2c0.1-0.6-0.5,0.9-0.7,1.6
		c0,0,0,0,0,0c-0.5,0.5-0.8,0.7-1,0.7c0,0,0.1-0.1,0.1-0.1c0.5-0.5,0.7-0.7,0.7-0.8c0.5-0.5,0.9-1.3,0-1c-0.3,0.1-0.5,0.1-0.7,0.1
		c0.2-0.4,0.7-0.5-0.3-0.3c0-0.1,0-0.1-0.1-0.2c0.4-0.3,1-0.7-0.1-0.3c0,0,0,0,0,0c0.3-0.4,1-0.9,0.8-1.1c-0.1-0.1-0.7,0-0.9,0
		c0.1-0.2,0.3-0.5,0.3-0.5c0,0,0,0,0,0c0.5-0.4,0.5-0.5-0.5-0.5c0,0,0,0,0-0.1c0.2-0.2,0.7-0.9,0.4-0.7c-0.2,0.1-0.3,0.2-0.4,0.2
		c0-0.1,0-0.2-0.1-0.3c0.3-0.3,0.7-0.7-0.1-0.5c-0.3,0.1,0.8-0.9,0-0.6c-1.2,0.4,1-0.9-0.3-0.5c-0.8,0.2,0.4-0.4,0.2-0.4
		c-0.8-0.2,0.1-0.7-0.4-1.2c-0.5-0.4-0.3,0.9-0.4,1.1c-0.2,0.6-0.2-0.5,0.1,0.4c0,0-1.1-0.2,0,0.9c0.3,0.3-0.7-0.7-0.7-0.2
		c0,0.5-0.8,1.5-1.2,0.6c-0.2-0.5,2.6-1.8,0.3-1.4c-0.5,0.1,1.2-1.7,0.2-1.4c-1.5,0.5,1.5-0.7-0.9-0.3c-0.3,0.1,0.3-0.3,0.3-0.4
		c0-0.1,0.4-0.6,0.4-0.6c0,0-0.2,0-0.2-0.8c0-0.1-1.1,0.4-0.6,0.1c0.5-0.3-0.2-0.7-0.1-1.1c0-0.2-0.2-0.5-0.1-0.9
		c0.2-0.5-0.6,1.1-0.6,1.1c-0.8-0.1,1,0.8,0,0.6c-1.4-0.4,1.2,1.2-0.1,0.8c-0.7-0.2-0.3,0.5-0.3,0.5c-0.1,0.1-0.8,0.9-0.2,0.8
		c1.2,0-1.5,0.1-0.3,0.5c1.3,0.4,0.6,1.2,0,1c-2.1-0.8,0.7,1.1-0.5,0.7c-0.6-0.2,1.5,1.4,0.4,1.4c-0.3,0-1.9-1.4-1.2-0.3
		c0.3,0.5,0.9,0.9,1.2,1.4c0.3,0.6-1.2-1.4-1.3-0.4c-0.1,1,1.3,1,1.7,1.5c0.3,0.4-1.7-0.2-2-0.1c-0.1,0-0.3,1-0.4,0.3
		c-0.1-0.6,0.1-1.3-0.2-1c-0.7,0.6-0.2-0.5,0-0.4c0.2,0-0.8-1.1-0.6-2.1c0-0.3-0.2,0.8-1.1,0.9c-1.5,0.3,1.5-2.1-0.4-0.8
		c-0.1,0.1-0.8-0.1,0.1-0.8c1.1-0.8-2.1,0.3-0.1-1.3c0.6-0.5-0.6,0-0.6-0.2c0.3-1.1-0.6-2-0.3-2.5c0.1-0.2-0.2,0.1-0.2-0.3
		c0-0.3-0.1-1.3-0.3-0.3c0,0-0.4,0.8,0,1.3c0,0-0.5,0-0.6,0.2c-0.2,0.4,0.1,0.3,0.1,0.7c0,0-0.9,0.6,0,0.9c0.9,0.4-0.6-0.5-0.5,0.2
		c0,0.7-0.4,0.1,0.2,1c0.2,0.3,0.4,0.4-0.5,0c-1.2-0.5,1.4,2.1,0,0.9c-1.1-0.9-0.1,0.5,0.1,0.6c1.9,1.1-2.9-0.2-1.4,0.2
		c0.3,0.1,1.4-0.8,0.5-0.5c-1.9,0.6,1.4-2.2-0.5-0.7c-0.5,0.4-0.5-0.9,0.1-0.6c0,0-0.8-0.3-0.2-1.2c0,0-0.2-1.3-0.2-1.6
		c0-0.6-0.8,0.8-0.3-0.2c0.3-0.6-0.2-0.2,0-0.4c0.1-0.1-0.4-0.8-0.3-1c0.2-1.4-0.7-0.1-0.3,0.4c0,0-1.2,2.2-0.4,2.5
		c0.8,0.3-0.6-0.5-0.5,0.2c0,0.4-0.5,0.6,0.4,1c0.3,0.2-0.3,0.1-0.7,0c-1.1-0.4,0.5,0.7,0.4,1c-0.1,0.6-1.3-1.2-0.7,0
		c0.6,1,0.6,0.2-0.5,0.9c-0.3,0.2-1,0.5-0.8,0.2c1-1,0.9-0.5,0.1-0.4c-0.2,0,0.2-1,0.2-1c0.2,0-0.3-0.2-0.3-0.4
		c-0.1-0.3,0-0.7-0.1-0.7c0,0-0.2-0.5-0.2-0.5c0,0-0.3-0.6-0.2-0.6c0.2,0-0.4-1.2-0.4-0.6c0,0.9-0.7,1-0.4,1.5
		c0.5,0.8-0.7-0.1-0.3,0.3c0.6,0.5-0.8,0,0.1,0.7c0,0-1-0.2,0,0.6c0.6,0.5-1.2,0.2-1.2,0.2c0.6-0.3-0.1-0.6-0.1-1.3
		c0,0-0.3,0.5-0.2,0.6c0,0-0.2,0.5-0.2,0.9c0,0-0.1,0.1-0.3,0.2c0,0,0-0.1,0-0.1c0-0.1-0.2-0.2-0.2-0.2c-0.1-0.9-0.4,0-0.4,0.4
		c-0.3,0-0.5,0-0.8,0c0,0,1.4-1.2,1.4-1.2c-1,0.2-1.9,1.3-1.4,0.4c0.5-0.8,1.5-1.6,0-1.4c-0.3,0,2-0.8-0.7-0.6c0,0,2.3-1.9,0.5-0.8
		c-1,0.6,1.8-1.2-0.2-0.7c-0.1,0-1.1-0.1,0-0.3c0.2,0,0.3-0.7,0.2-0.6c-0.8,0.3,1.1-0.6-0.5-0.4c-0.2,0,0.1-0.4,0.2-0.6
		c-0.1,0-0.4-0.6-0.1-1.2c0.1-0.3-0.9,0.2-0.6-0.4c0.2-0.3,0-0.5-0.3-1.4c0-0.1-0.1,0.2-0.1,0.3c0,1.2-0.4,0.6-0.3,1.6
		c0.1,1-0.1,0.6-0.4,0.4c0,0,0,0,0,0c0-0.1,0-0.2,0-0.3c0.1-1.1-0.1-0.7-0.5-0.2c-0.1,0.2,0,0.5,0.1,0.7c0,0.1-0.5-0.3-0.1,0.6
		c0,0-0.4,0-0.5,0.4c-0.2,0.4-1.2,0,0.1-1.1c0.8-0.6-1.6,0.2-0.4-0.7c0,0,0.5-0.6,0-0.4c-0.1,0-0.5-0.4-0.3-0.7c0.2-0.4-0.6-1,0-1.2
		c0,0-0.8,0.3-0.2-0.2c0,0-0.4-1.9-0.6-0.9c-0.1,0.3-0.1,0.3-0.2,0.5c-0.1,0.1-0.3,0.9,0.2,1.3c0,0-0.4-0.7-0.4,0.3
		c0.1,1-0.5,0.1-0.3,0.7c0.2,0.8-0.1-0.4-0.1,0.5c0,0.1,0,0.3,0,0.4c-0.3,0-0.6,0-0.6,0c-1,0.2,0.5-0.7,0.5-1c0-0.2-1.3,0-0.4-0.5
		c0.8-0.5-1,0.2,0.1-0.8c0,0-0.9-0.1-0.2-0.3c0,0-0.2-0.5-0.2-0.5c0,0-0.8-0.6-0.5-1.3c0.3-0.7-0.6,0.9-0.6,0.9
		c-0.6-0.3,0.8,0.8,0.1,0.6c-0.5-0.2-0.7,0.6-0.3,0.9c0.3,0.2-0.1,0.1-0.3,0.1c-0.7-0.2,0.3,0.6,0.3,0.8c0,0.2-0.6-0.6-0.6,0.1
		c-0.2,0-0.5-0.1-0.5-0.1c0,0,0.8-1,0.3-0.7c-0.2,0.2-0.5-1.2-0.4-1.4c0.4-1.8-1.3,0.1-0.9,0.4c0.1,0.1-0.3,0.9-0.4,1.4
		c-0.1,0.1-0.2,0.1-0.2,0.2c0,0,0,0,0,0.1c0.1,0.2,0.1,0.3,0.1,0.3c-0.2,0-0.5-0.1-0.5-0.1c-0.2,1-0.4,0.8-0.3,1
		c-1.3,0.3,0.4-1.1,0.2-1c-2.1,1,0.8-0.8-0.6-0.3c-0.6,0.2-0.1-0.6,0-0.6c0,0-0.4-1.9-0.7-3.1c0,0-0.4,1.2,0-0.1c0-0.1-0.7,0-0.7,0
		c1-0.2-0.3-1.5-0.3-1.6c0-0.1,0-0.7,0-0.8c-0.1-0.7-0.5,1.6-0.7,1.5c-0.6-0.4,0.9,0.9,0.1,0.7c-0.8-0.2,0.2,2.6-2.4,0.9
		c-0.3-0.2,3-2.9,0.7-1.2c-1.5,1.1,0.7-1.4,0.7-1.4c0-0.8-1.3,0.9-1.6,0.2c0-0.1,1.7-0.4,0.9-0.8c-0.1,0,0.6-1.4-0.3-0.9
		c-1.3,0.7,0.8-1.5-0.2-1.2c-0.4,0.1-0.2-1.9-0.4-1.8c-1.5,0.8,0.3-0.7-0.1-0.5c-0.1,0-0.9-2-0.7-0.9c0.5,0.5-1.7,2.7-0.2,2.7
		c0.2,0-1.3,0.3-0.6,0.3c1,0-1.7,0.6-0.1,1.1c0.8,0.3-1.2-0.7-0.3,0.8c1.1,1.6-0.6,0.8-0.5,0.5c0.2-0.7-0.2,0.2-0.6,0.3
		c-0.1-0.2,1.4-1.5,0.2-0.8c-0.2,0.1-0.4-1.9-0.4-1.7c0,0-1.6,0.3-0.9,0c1.5-0.5-0.4-0.5-0.4-0.5c0.5-1,0.7-1.8,0-1.5
		c-1.1,0.5,1-1.2,0-0.7c-0.2,0.1-0.7-1.9-0.8-1.5c1.1,0.8-3.6,2-1.1,0.8c0.3-0.1,0.9-0.9,0.1-0.6c-1.2,0.4,0.5-2.2-0.2-1.6
		c-1.5,1.5-1.4,0.3-0.9,0.3c0.5,0,2-1.9,0.7-1.5c-1.6,0.5-0.5-0.6-1.4-0.4c0,0,0.1,0,0.1,0c0.2-0.4,1.2-1.1,1-1.3
		c-0.2-0.2-1.8,0.4-0.7-0.5c0.5-0.4,0.5-0.6-0.5-0.5c0,0,0.8-1,0.5-0.8c-2.3,1.2,1.1-1.1-0.6-0.6c-0.3,0.1,0.8-0.9,0-0.6
		c-1.2,0.4,1-0.9-0.3-0.5c-0.8,0.2,0.4-0.4,0.2-0.4c-0.8-0.2,0.1-0.7-0.4-1.2c-0.5-0.4-0.3,0.9-0.4,1.1c-0.2,0.6-0.2-0.5,0.1,0.5
		c0,0-1.1-0.2,0,0.9c0.3,0.3-0.7-0.7-0.7-0.2c0,0.5-0.8,1.5-1.2,0.6c-0.2-0.5,2.6-1.8,0.3-1.4c-0.5,0.1,1.2-1.7,0.2-1.4
		c-1.5,0.5,1.5-0.7-0.9-0.3c-0.3,0.1,0.3-0.3,0.3-0.3c0-0.1,0.4-0.6,0.4-0.6c0,0-0.2,0-0.2-0.8c0-0.1-1.1,0.4-0.6,0.1
		c0.5-0.3-0.2-0.7-0.1-1.1c0-0.2-0.2-0.5-0.1-0.9c0.2-0.5-0.6,1.1-0.6,1.1c-0.8-0.1,1,0.8,0,0.6c-1.3-0.4,1.2,1.2-0.1,0.8
		c-0.7-0.2-0.3,0.5-0.3,0.5c-0.1,0.1-0.8,0.9-0.2,0.8c1.2,0-1.5,0.1-0.3,0.5c1.3,0.4,0.6,1.3,0,1c-2.1-0.8,0.7,1.1-0.5,0.7
		c-0.6-0.2,1.5,1.4,0.4,1.4c-0.3,0-1.9-1.4-1.2-0.3c0.3,0.5,0.9,0.9,1.2,1.4c0.3,0.6-1.2-1.4-1.3-0.4c-0.1,1,1.3,1,1.7,1.5
		c0.3,0.4-1.7-0.2-2-0.1c-0.1,0-0.3,1-0.4,0.3c-0.1-0.6,0.1-1.3-0.2-1c-0.7,0.6-0.2-0.5,0-0.4c0.2,0-0.8-1.1-0.6-2.1
		c0-0.3-0.2,0.8-1.1,0.9c-1.5,0.3,1.5-2.1-0.4-0.8c-0.1,0.1-0.8-0.1,0.1-0.8c1.1-0.8-2.1,0.3-0.1-1.3c0.6-0.5-0.6,0-0.6-0.2
		c0.3-1.1-0.6-2-0.3-2.5c0.1-0.2-0.2,0.1-0.2-0.3c0-0.3-0.1-1.3-0.3-0.3c0,0-0.4,0.8,0,1.3c0,0-0.5,0-0.6,0.2
		c-0.2,0.4,0.1,0.3,0.1,0.7c0,0-0.9,0.6,0,0.9c0.9,0.4-0.6-0.5-0.5,0.2c0.1,0.7-0.4,0.1,0.2,1c0.2,0.3,0.4,0.4-0.5,0
		c-1.2-0.5,1.4,2.1,0,0.9c-1.1-0.9-0.1,0.5,0.1,0.6c1.9,1.1-2.9-0.2-1.4,0.2c0.3,0.1,1.4-0.8,0.5-0.5c-1.9,0.6,1.4-2.2-0.5-0.7
		c-0.5,0.4-0.5-0.9,0.1-0.6c0,0-0.8-0.3-0.2-1.2c0,0-0.2-1.3-0.2-1.6c0-0.6-0.8,0.7-0.3-0.2c0.3-0.6-0.2-0.2,0-0.4
		c0.1-0.1-0.4-0.8-0.3-1c0.2-1.4-0.7-0.1-0.3,0.4c0,0-1.2,2.2-0.4,2.5c0.8,0.3-0.6-0.5-0.5,0.2c0,0.4-0.5,0.6,0.4,1
		c0.3,0.2-0.3,0.1-0.7,0c-1.1-0.4,0.5,0.7,0.4,1c-0.1,0.6-1.3-1.2-0.7,0c0.6,1,0.6,0.2-0.5,0.9c-0.3,0.2-1,0.5-0.8,0.2
		c1-1,0.9-0.5,0.1-0.4c-0.2,0,0.2-1,0.2-1c0.2,0-0.3-0.2-0.3-0.4c-0.1-0.3,0-0.7-0.1-0.7c0,0-0.2-0.5-0.2-0.5c0,0-0.3-0.6-0.2-0.6
		c0.2,0-0.4-1.2-0.4-0.6c0,0.9-0.7,1-0.4,1.5c0.5,0.8-0.7-0.1-0.3,0.3c0.6,0.5-0.8,0,0.1,0.7c0,0-1-0.2,0,0.6
		c0.6,0.5-1.2,0.2-1.2,0.2c0.6-0.3-0.1-0.6-0.1-1.3c0,0-0.3,0.5-0.2,0.6c0,0-0.2,0.5-0.2,0.9c0,0.1-0.8,0.6-1.6,0.4
		c0,0,1.4-1.2,1.4-1.2c-1,0.2-1.9,1.3-1.4,0.4c0.5-0.8,1.5-1.6,0-1.4c-0.3,0,2-0.8-0.7-0.6c0,0,2.3-1.9,0.5-0.8
		c-1,0.6,1.8-1.2-0.2-0.7c-0.1,0-1.1-0.1,0-0.3c0.2,0,0.3-0.7,0.2-0.6c-0.8,0.3,1.1-0.6-0.5-0.4c-0.2,0,0.1-0.4,0.2-0.6
		c-0.1,0-0.4-0.6-0.1-1.2c0.1-0.3-0.9,0.2-0.6-0.4c0.2-0.3,0-0.5-0.3-1.4c0-0.1-0.1,0.2-0.1,0.3c0,1.2-0.4,0.6-0.3,1.6
		c0.1,1-0.1,0.6-0.4,0.4c-0.8-0.4,0.7,0.6,0,0.4c-1.1-0.3,0.7,1.5-0.5,0.7c-0.6-0.4,0,0.3,0,0.3c0,0.8,1.7,1.1-0.7,0.7
		c-0.3-0.1,0.9,0.7,0.9,0.7c0.7,0.9-1.2,0.4-0.8-0.4c0.1-0.4-1.1,0.4-0.4-0.5c0.1-0.1-0.4-0.3-0.4-1.2c0-0.3-0.1,0.1-0.1,0.2
		c0.1,0.7,0,1.3-1.6,1.1c-1.1-0.1,2.7-1,0.2-0.6c-1,0.2,2.1-2.1-0.1-0.8c-0.4,0.2-0.7-0.6-0.1-0.5c0.1,0,0.6-0.5,0.8-0.6
		c0,0-1,0.1-1,0.1c-1,0.2,0.5-0.7,0.5-1c0-0.2-1.3,0-0.4-0.5c0.8-0.5-1,0.2,0.1-0.8c0,0-0.9-0.1-0.2-0.3c0,0-0.2-0.5-0.2-0.5
		c0,0-0.8-0.6-0.5-1.3c0.3-0.7-0.6,1-0.6,0.9c-0.6-0.3,0.8,0.8,0.1,0.6c-0.5-0.2-0.7,0.6-0.3,0.9c0.3,0.2-0.1,0.1-0.3,0.1
		c-0.7-0.2,0.3,0.6,0.3,0.8c0,0.2-0.7-0.7-0.6,0.2c0,0-0.5,1.1,0.6,0.9c1.1-0.1-1.3-0.1-1.3-0.8c0,0-0.4-0.3-0.4-0.3
		c0,0-0.2-0.8-0.2-0.8c0-0.1-0.2-0.7-0.2-0.4c0.1,0.7-0.6,1.1-0.6,1.1c0,0,0,0,0,0.1c0.4,0.6-0.4,0.1,0.2,0.5c0,0-0.5,1-0.5,1
		c0.4,0.3,0.9,0.7-0.1,0.4c-0.7-0.2,0.2,0.6,0.4,0.7c0.3,0.1-0.8-0.5-0.8-0.4c-0.7,0.1-0.1-1.1-0.8-1.4c-0.7-0.3-0.3,0.9-0.3,1
		c0,0,0,0.7-0.8,0.4c-0.1,0,1.2-0.5-0.2-0.2c-0.1,0,1.1-0.8,0.2-0.5c0,0-0.1-0.5-0.1-0.5c0.1-0.4-0.4-0.2-0.3-1.2c0.1-1-0.3,1-0.4,1
		c0,0-1.1,0.2-1.1,0.2c-1.6,0.3,2.5-1.7,0-0.7c-0.6,0.2-1.3,0.5-0.8,0c0,0,0.5-0.5,0.5-0.5c0,0-1.9-0.5-0.1-0.5c0.2,0,1.5-1,0.6-0.7
		c-1.4,0.4-2,0.3-0.5-0.1c2.1-0.6-1.9,0.2-0.2-0.7c0,0,1.4-1.5,0-0.6c-1,0.7-0.8-0.7-0.2-0.5c0.3,0.1-0.6-0.5-0.4-1.1
		c0-0.1,0.3-0.3,0.4-0.3c0.4-0.3-0.8,0.4-0.4-0.7c0,0-0.3-0.4-0.3-0.4c0-0.4-0.5-0.1-0.3-0.3c0.6-0.7,0-0.4,0-1.1
		c0-0.2-0.6-0.1-0.4-1.1c0,0-0.1-0.3-0.1-0.2c-0.3,1-0.7,1.2-0.1,1.8c0.1,0.1-0.8-0.7-0.5,0c0,0-0.3,0.7-0.3,0.7
		c0,0.1,0.8,0.5,0.2,0.3c-1.2-0.3,0.7,1.5-0.5,0.7c-0.6-0.4,0,0.3,0.1,0.4c0.1,0.1-0.8,0.4,0.4,0.9c0.3,0.1-0.6,0.2-1-0.5
		c-0.3-0.4-0.4,0.1-1.6-0.1c-1-0.2,0.5-0.1,0.8-0.2c0.2-0.1,0.7-0.4,0.6-0.5c0,0-2.5,0-1.2-0.2c0.6-0.1,0.7-0.9,1.1-1.1
		c0.4-0.1-1.3,0.8-1.8,0c0,0,1.4-0.8,1.4-0.8c0.2-0.1-1.4,0.2-1.3-0.3c0.1-0.3,1.4-1.6,0.3-1.1c-0.9,0.4-0.2-0.3-0.2-0.5
		c0-0.3,0.9-0.8-0.2-0.5c-0.7,0.2-0.1-0.2-0.1-0.2c0-0.1-0.7-0.4-0.2-0.4c0.2,0,0.2-0.6,0.2-1c0-0.1-1,0.2-0.2-0.2
		c0,0-0.6-0.2-0.5-0.5c0.3-0.5,0-0.1,0-0.6c0-0.1,0-0.1,0-0.2c0,0-1.2,1.4-0.4,1.8c0,0-0.4-0.8-0.4,0.3c0.1,1.1-0.1,0.3-0.3,0.9
		c-0.2,0.5,0.6,0.4-0.4,0c-0.6-0.2,1,1.4,0.2,1.1c-1.2-0.4-0.4-0.2-0.4,0.2c0.1,0.9-0.4,0.1-0.1,0.5c0.5,0.9,1.6,1-0.5,0.4
		c-1-0.3,2.3,2.7,0.2,1.2c-2-1.4,1.1,1,1.1,1c0.1,0.2-1.2,0.1-1.4,0c-0.6-0.1-0.8,0.9-1.7,0.4c0,0,0.5-0.8,0.9-1.1
		c1-0.6-1.4,0.3-0.7-0.3c1-0.8-0.4-0.8-0.4-0.8c0.8-0.2,0.9-0.5-0.3-0.3c-0.1,0,0.7-0.7,0.6-0.7c-0.1-0.2-0.5,0-0.3-0.2
		c0.6-0.7-0.7-0.1-0.3-0.3c1.2-0.6-1,0.1,0.2-0.6c0,0-0.5-0.5-0.5-0.9c0-0.1-0.6,1.1-0.7,1.1c-0.7-0.3,1.4,1.1-0.1,0.4
		c0,0-0.9,0.2-0.9,0.2c-0.2-0.1,1.4-1.2,0.2-0.7c-0.7,0.3-0.1-0.2-0.1-0.3c0-0.5-0.1-0.7-0.2-0.7c-0.4,0.3,0-0.7,0-0.9
		c0-0.1-0.8-0.1-0.1-0.2c0,0-0.7,0.2-0.1-0.2c0,0-0.1-1-0.5-0.7c-0.3,0.2-0.4,1.5-0.4,1.6c0,0-0.1,0.2-0.2,0.3v0.3
		c0.2,0.1,0.4,0.3,0,0.2c0,0,0,0,0,0v1.6c0.1,0.2,0.2,0.3,0,0.3v1.3c0,0,0,0,0,0.1V303.4L0,303.4z M265,277.7h0.7
		c-0.1-0.3-0.1-0.5-0.1-0.5c0.1-0.2-0.3-0.7-0.3-0.4C265.3,277.3,265.1,277.6,265,277.7L265,277.7z M197.5,224.1
		C197.5,224.1,197.5,224.1,197.5,224.1c0.1-0.2,0.4-0.4,0.4-0.5C198.5,223.6,198,224.3,197.5,224.1L197.5,224.1z M106.4,177.8
		c0.1,0,0.2,0,0.5,0.1c0.8,0.1,0,0.1-0.5,0.2C106.4,178,106.4,177.9,106.4,177.8L106.4,177.8z M104.6,177.7
		c-0.1-0.1-0.1-0.2,0.1-0.3C104.6,177.5,104.6,177.6,104.6,177.7L104.6,177.7z M101,174.4c-0.3,0.1-0.2,0.3,0,0.2
		C101,174.6,101,174.5,101,174.4L101,174.4z M99.7,173.1c1,1.4-0.2-0.6-0.1,1c0,0-0.1-0.1-0.2-0.1C99.5,173.7,99.6,173.3,99.7,173.1
		L99.7,173.1z M193,222.2c0,0,0,0.1,0,0.2c-0.2,0.1-0.6,0.1-0.3-0.1C192.9,222.3,193,222.2,193,222.2L193,222.2z M190.2,215.3
		c0-0.1-0.1-0.2-0.1-0.3C190.3,215.2,190.5,215.4,190.2,215.3L190.2,215.3z M186.2,215.3c0,0.2,0.1,0.3,0.3,0.5
		C186.2,215.9,186,215.5,186.2,215.3L186.2,215.3z M186.7,216.1c0.1,0.2,0.2,0.3,0.2,0.4c-0.1,0-0.1,0-0.2,0
		C186.3,216.7,186.4,216.4,186.7,216.1L186.7,216.1z M186.5,217.8c0,0.1-0.1,0.1-0.1,0.1C186.2,217.9,186.2,217.9,186.5,217.8
		L186.5,217.8z M184,215.9c-0.1,0-0.2,0-0.3,0.1c0,0,0,0,0,0c0.1,0,0.1-0.1,0.2-0.1C184,215.8,184,215.9,184,215.9L184,215.9z
		 M184.5,215c0-0.1,0-0.1,0-0.2C184.9,214.9,185.1,214.9,184.5,215C184.6,215,184.5,215,184.5,215L184.5,215z M184,214.7
		c0,0-0.1,0.1-0.1,0.1c0,0,0-0.1-0.1-0.1c0,0,0,0,0,0C183.9,214.7,184,214.7,184,214.7L184,214.7z M189.3,217.1
		C189.2,217.1,189.2,217.1,189.3,217.1c-0.2,0-0.2-0.1-0.2-0.2c0,0-0.4,0.1-0.4,0.1C189.1,217,189.3,217.1,189.3,217.1L189.3,217.1z
		 M188.4,217.2c0,0,0.1-0.1,0.1-0.2c0,0,0,0,0,0c0,0.1,0.1,0.2,0.1,0.2C188.7,217.3,188.5,217.3,188.4,217.2L188.4,217.2z
		 M182.4,215.7c0,0,0,0.1,0,0.1c0,0-0.1,0-0.3,0c0.4-0.4-0.6,0.3-0.1-0.4C182.2,215.5,182.3,215.6,182.4,215.7L182.4,215.7z
		 M198.2,221.3C198.2,221.3,198.2,221.3,198.2,221.3C198.2,221.3,198.2,221.3,198.2,221.3L198.2,221.3z M198.2,221.4
		c-0.3,0.1-0.2,0.4,0.3,0.4C199.4,221.7,198.4,221.5,198.2,221.4L198.2,221.4z M197.9,221.8c0,0-0.8,0.4-0.8,0.5
		C197,222.3,198.5,222.6,197.9,221.8L197.9,221.8z M198.2,222.2c0.1,0.4-1.2,0.3,0.3,0.2C199,222.5,198.6,222.3,198.2,222.2
		L198.2,222.2z M198.4,222.7c-0.1,0.2-0.3,0.4-0.5,0.5C199.7,224,198.5,223.3,198.4,222.7L198.4,222.7z M197.7,223.3
		c0,0.1-0.1,0.4,0.1,0.1C197.8,223.4,197.7,223.4,197.7,223.3L197.7,223.3z M197.9,223.6C197.9,223.6,197.9,223.6,197.9,223.6
		L197.9,223.6L197.9,223.6z M198.6,224C198.6,224.1,198.3,224.1,198.6,224C198.9,224.1,198.7,223.9,198.6,224L198.6,224z
		 M198.2,224.3C198,224.4,198.1,224.4,198.2,224.3C198.2,224.4,198.2,224.4,198.2,224.3L198.2,224.3z M197.6,224.6
		C197.6,224.6,197.7,224.6,197.6,224.6C197.7,224.6,197.7,224.6,197.6,224.6L197.6,224.6z M198.5,225C198.5,225,198.5,225,198.5,225
		L198.5,225L198.5,225z M260.2,276.1c0,0-0.3,0-0.4,0C260,275.9,260.2,276.1,260.2,276.1L260.2,276.1z M259.7,275.4
		c0.1-0.1,0.1-0.2,0.2-0.2C260.1,275.3,260,275.4,259.7,275.4L259.7,275.4z M259.9,275.2c0.2-0.5-0.9,0.4-0.3-0.3
		C260.9,274.4,260.1,275.2,259.9,275.2L259.9,275.2z M260.3,274.5c0,0,0.1-0.1,0.1-0.1C260.6,274.4,260.5,274.7,260.3,274.5
		L260.3,274.5z M262.1,277.6C262.1,277.6,262.1,277.6,262.1,277.6C262.1,277.6,262.1,277.6,262.1,277.6L262.1,277.6z M261.3,277.5
		L261.3,277.5C261.3,277.5,261.3,277.5,261.3,277.5L261.3,277.5z M261.4,277.4L261.4,277.4C261.5,277.3,261.5,277.4,261.4,277.4
		L261.4,277.4z M261.5,277.1C261.5,277.1,261.6,277.1,261.5,277.1C261.6,277.1,261.7,277.2,261.5,277.1L261.5,277.1z M261.6,276.7
		c-0.7,0.5,0-0.8,0.1-0.8C261.4,276.2,261.5,276.7,261.6,276.7L261.6,276.7z M261.7,275.9L261.7,275.9
		C261.7,275.9,261.7,275.9,261.7,275.9L261.7,275.9z M247.8,267.5l-0.4,0.1C247.1,267.4,247.7,267.5,247.8,267.5L247.8,267.5z
		 M248.1,266.5c0,0-0.1,0.1-0.1,0.1C248.1,266.5,248.1,266.4,248.1,266.5L248.1,266.5z M247.7,266L247.7,266L247.7,266L247.7,266z
		 M247.9,265.9c0.1-0.1,0.1-0.2,0.2-0.1L247.9,265.9L247.9,265.9z M247.9,265.6c-0.1-0.3,0.4-1.3,0.4-0.9
		C248.2,265.8,248.3,265.2,247.9,265.6L247.9,265.6z M248.3,264.4L248.3,264.4L248.3,264.4L248.3,264.4z M247.5,263.8
		C247.5,263.8,247.5,263.8,247.5,263.8L247.5,263.8L247.5,263.8z M246.3,261.8c-0.2,0.1-0.6,0.1-0.1-0.1
		C246.2,261.7,246.3,261.7,246.3,261.8L246.3,261.8z M246.3,260.5c-0.2,0-0.3,0.1-0.5,0.1C245,260.6,246.8,260,246.3,260.5
		L246.3,260.5z M257.6,272.7c0.2,0.2,0.7,0.6,0.4,0.8C257.5,273.2,257.6,273.2,257.6,272.7L257.6,272.7z M257.8,273.7
		c0.6,0.5,0.1,0.4-0.2,0.3C257.6,274,257.8,273.8,257.8,273.7L257.8,273.7z M257,274.1c-0.9,0.1-0.3-0.1,0.1-0.2
		C257.1,274,257,274,257,274.1L257,274.1z M257.1,274.6c0.2,0.4-0.5,0.2-0.6,0.2C256,274.6,256.9,274.5,257.1,274.6L257.1,274.6z
		 M257.1,274.8C257.1,274.8,257.1,274.8,257.1,274.8L257.1,274.8L257.1,274.8z M256.6,274.8l0.1,0.1
		C256.5,275.1,256.7,275,256.6,274.8L256.6,274.8z M256.8,275.1c0.1,0.1,0,0.2-0.1,0.1L256.8,275.1L256.8,275.1z M256.6,275.3
		c0,0.1,0,0.1,0.1,0.2C256.5,275.5,256.5,275.4,256.6,275.3L256.6,275.3z M255.4,272.5l0.1-0.2C255.5,272.4,255.4,272.5,255.4,272.5
		L255.4,272.5z M255.5,270.8c-0.4,0.2-0.1-0.3-0.1-0.1C255.4,270.7,255.4,270.8,255.5,270.8L255.5,270.8z M255.7,270
		C255.6,270,255.6,270,255.7,270C255.6,270,255.7,269.9,255.7,270L255.7,270z M256,269.1L256,269.1C256,269.2,256,269.1,256,269.1
		L256,269.1z M249.7,268.7c-0.1-0.3,0.5,0,0.2,0C249.9,268.7,249.8,268.7,249.7,268.7L249.7,268.7z M249.7,268.5
		c0,0-0.1,0.1-0.1,0.1C249.4,268.7,249.6,268.4,249.7,268.5L249.7,268.5z M249.1,267.4C249.1,267.4,249.1,267.4,249.1,267.4
		C249.1,267.4,249.1,267.4,249.1,267.4L249.1,267.4z M248.3,264.4L248.3,264.4C248.3,264.4,248.3,264.4,248.3,264.4L248.3,264.4z
		 M253.3,274.7c0,0,0-0.1-0.1-0.2C253,274.6,252.9,274.8,253.3,274.7L253.3,274.7z M253.6,274.5c0.3,0.2,0.4-0.2,0.1-0.1
		C253.5,274.3,253.6,274.4,253.6,274.5L253.6,274.5z M253.2,273.3c0.1,0,0.9-0.1,0.9-0.2C254.1,272.8,253.3,273.2,253.2,273.3
		L253.2,273.3z M252.7,272.6c0.1-0.2,1.2-0.4,0.4-0.8C253,271.9,251.5,273.1,252.7,272.6L252.7,272.6z M253.8,272.6
		C253.9,272.6,253.9,272.6,253.8,272.6C253.9,272.5,253.8,272.5,253.8,272.6L253.8,272.6z M252.8,271.4c-0.1,0,0.8,0.1,1,0.1
		c0.8-0.1-0.6-0.5-0.7-0.6C252.9,270.8,252.3,271.9,252.8,271.4L252.8,271.4z M253.4,270.7c0.7,0.2,0.9-0.5,0.5-0.6
		C253.8,270.2,253.4,270.7,253.4,270.7L253.4,270.7z M253.7,269.9c-0.2-0.6-1.3,0-1.3,0C252.8,270.4,253.2,270.1,253.7,269.9
		L253.7,269.9z M249.4,267.8c0,0.1-0.4,0.3-0.4,0.4C249,268.1,250.4,268,249.4,267.8L249.4,267.8z M249.9,267.9
		c0,0.2-0.1,0.1-0.1,0.3C250,268.2,250.3,267.8,249.9,267.9L249.9,267.9z M249.5,268.3C249.5,268.3,249.5,268.4,249.5,268.3
		C249.6,268.3,249.5,268.3,249.5,268.3L249.5,268.3z M249.8,269.5C249.8,269.5,249.8,269.5,249.8,269.5L249.8,269.5L249.8,269.5z
		 M242.2,255.9c0,0-0.1,0-0.1-0.1C242.1,255.8,242.1,255.9,242.2,255.9L242.2,255.9z M242.4,255.4
		C242.4,255.4,242.4,255.4,242.4,255.4L242.4,255.4L242.4,255.4z M242.1,255.1c0,0-0.6,0.2-0.4,0C241.7,255.1,242,255.1,242.1,255.1
		L242.1,255.1z M242.7,254.2c-0.7,0.4-1.7-0.2-0.7-0.2C242,254,242.9,253.7,242.7,254.2L242.7,254.2z M242,254.5c0-0.1,0-0.1,0.2,0
		C242.2,254.5,242,254.5,242,254.5L242,254.5z M242.1,253.5c-0.1,0.1-0.3,0.1-0.4,0.2C240.2,254.1,241.9,252.8,242.1,253.5
		L242.1,253.5z M241.8,252.8c-0.1-0.6-0.2,0.2,0.2-0.4C242.2,252.2,243,253.4,241.8,252.8L241.8,252.8z M241.5,252.9
		C241.1,253.2,241.5,252.6,241.5,252.9C241.5,252.8,241.6,252.8,241.5,252.9L241.5,252.9z M242.1,251.9c-1.1,0.5-0.7-0.3-0.3-0.2
		C241.9,251.9,241.9,251.9,242.1,251.9L242.1,251.9z M242,251.6c0,0,0.2-0.3,0.2-0.3C242.5,251.6,243.2,252,242,251.6L242,251.6z
		 M238.8,253.2L238.8,253.2C238.8,253.2,238.8,253.2,238.8,253.2L238.8,253.2z M238.6,253.2c-0.1,0-0.3,0-0.1-0.1
		C238.6,253.1,238.6,253.2,238.6,253.2L238.6,253.2z M238.6,253.1c0,0,0.7-0.5,0.7-0.2C239.2,253.1,238.7,253.1,238.6,253.1
		L238.6,253.1z M239,252.1c-0.1,0.1-0.5,0.2-0.3,0C238.8,252.2,238.8,252.1,239,252.1L239,252.1z M239,251.5c-0.1,0-0.2,0.1-0.3,0.1
		C238.3,251.6,238.9,251.4,239,251.5L239,251.5z M238.9,251c0.1-0.1,0-0.1,0.1-0.1C239.2,251.1,239.1,251.1,238.9,251L238.9,251z
		 M238.9,250.4c-0.1,0.1-0.9,0.4-0.8,0.2C238.3,250.4,238.8,250.4,238.9,250.4L238.9,250.4z M239.2,249.9c0-0.1,0.2-0.3,0.2-0.2
		C239.4,249.8,239.3,249.9,239.2,249.9L239.2,249.9z M239.2,249.5c-0.1,0.1-0.7,0.6-0.7,0.3c0-0.5-0.9-0.2-0.3-0.3
		C239.1,249.3,238.3,249.1,239.2,249.5L239.2,249.5z M238.9,248.8c0,0,0.1,0,0.2-0.1C239.1,248.4,239.6,249.1,238.9,248.8
		L238.9,248.8z M231.7,247.8C231.7,247.5,232.1,247.8,231.7,247.8C231.8,247.8,231.7,247.8,231.7,247.8L231.7,247.8z M231.6,246.7
		C231.6,246.7,231.6,246.7,231.6,246.7L231.6,246.7L231.6,246.7z M231.7,246.7c0-0.3,0.9,0,0.4,0C232,246.8,231.8,246.7,231.7,246.7
		L231.7,246.7z M231.6,245.7c0.1-0.2,0-0.9,0.6-1c0.8,0.5,0.3,0.3,0.2,0.3C232.1,244.8,232.5,245.5,231.6,245.7L231.6,245.7z
		 M231.7,244.7c0-0.3-0.2-0.1-0.1-0.2C231.7,243.8,232.3,244.7,231.7,244.7L231.7,244.7z M231.5,242.9l-0.1,0.1
		C231.2,243,231.4,242.9,231.5,242.9L231.5,242.9z M231.4,242.5L231.4,242.5C231.3,242.5,231.3,242.5,231.4,242.5L231.4,242.5z
		 M230.7,241.9c-0.4,0.2-0.1-0.4,0-0.1C230.7,241.8,230.7,241.9,230.7,241.9L230.7,241.9z M230.5,242.1c-0.3,0.2-0.2,0,0-0.2
		C230.4,242,230.4,242,230.5,242.1L230.5,242.1z M230.7,241.6c0,0,0.1-0.2,0.1-0.1C230.8,241.5,231,241.7,230.7,241.6L230.7,241.6z
		 M230.7,241.3c0,0-1.4,0.3,0-0.2C230.7,241.1,230.9,241.4,230.7,241.3L230.7,241.3z M232.2,248c0,0,0-0.1,0.1-0.1
		C232.5,247.8,232.5,248,232.2,248L232.2,248z M232.7,246.1c-0.2-0.5-0.7,0.3-0.3-0.6C232.5,245.5,233.7,246.4,232.7,246.1
		L232.7,246.1z M231.7,246.2C231.7,246.2,231.7,246.2,231.7,246.2C231.7,246.2,231.7,246.2,231.7,246.2L231.7,246.2z M231.8,244
		c0.3-0.8,0.2,0,0.7-0.1C233.2,243.7,232.4,244.1,231.8,244L231.8,244z M235.7,241.2L235.7,241.2L235.7,241.2L235.7,241.2z
		 M235.7,241.3C235.7,241.4,235.7,241.4,235.7,241.3L235.7,241.3L235.7,241.3z M235.5,241.6c0.1,0.4,0.7,0.2-0.4,0.1
		C235.1,241.7,235.5,241.6,235.5,241.6L235.5,241.6z M235.1,241.7c0,0.1,0.1,0.2,0.1,0.2C235.1,242.1,234.6,241.8,235.1,241.7
		L235.1,241.7z M235.4,242C235.4,242.1,235.4,242.1,235.4,242C235.4,242.1,235.4,242.1,235.4,242L235.4,242z M235.3,242.2
		c0.1,0.3-0.3,0.2-0.3,0.2C235,242.3,235.3,242.2,235.3,242.2L235.3,242.2z M235.7,242.7C235.9,242.9,235.3,242.9,235.7,242.7
		C235.7,242.8,235.6,242.8,235.7,242.7L235.7,242.7z M235.1,243.1C235.2,243.1,235.2,243.1,235.1,243.1L235.1,243.1L235.1,243.1z
		 M235.2,245.2C235.2,245.2,235.2,245.2,235.2,245.2L235.2,245.2L235.2,245.2z M215.8,231.4L215.8,231.4
		C215.9,231.5,215.6,231.5,215.8,231.4L215.8,231.4z M216.2,231.1c0.1,0,0.2,0,0.2-0.1C216.6,231.1,216.3,231.1,216.2,231.1
		L216.2,231.1z M215.5,229.9c0.5-1.2-0.4-0.4-0.4-0.4c0.2-0.1,1.2-1.2,1.2-1.2c0.3,0.4,1,1.2,0.4,0.9
		C215.3,228.7,217,230,215.5,229.9L215.5,229.9z M216.5,228.1c0.1,0,0-0.1,0.1-0.2C217,228.2,217.1,228.6,216.5,228.1L216.5,228.1z
		 M228.3,239.1c0.2,0.2,0.7,0.6,0.4,0.8C228.2,239.6,228.4,239.6,228.3,239.1L228.3,239.1z M228.6,240.1c0.3,0.2,0.6,0.5,0.1,0.4
		C229,240.1,228.1,240.8,228.6,240.1L228.6,240.1z M227.7,240.5c-0.9,0.1-0.3-0.1,0.1-0.2C227.8,240.5,227.7,240.4,227.7,240.5
		L227.7,240.5z M227.8,241c0.2,0.4-0.5,0.2-0.6,0.2C226.7,241,227.7,241,227.8,241L227.8,241z M227.8,241.2
		C227.8,241.2,227.8,241.3,227.8,241.2L227.8,241.2L227.8,241.2z M227.3,241.3l0.1,0.1C227.3,241.5,227.4,241.4,227.3,241.3
		L227.3,241.3z M227.5,241.5c0.1,0.1,0,0.2-0.1,0.1L227.5,241.5L227.5,241.5z M227.3,241.7c0,0.1,0,0.1,0.1,0.2
		C227.2,241.9,227.2,241.9,227.3,241.7L227.3,241.7z M226.1,238.9l0.1-0.2C226.2,238.8,226.2,238.9,226.1,238.9L226.1,238.9z
		 M226.2,237.2c-0.4,0.2-0.1-0.3-0.1-0.1C226.1,237.2,226.2,237.2,226.2,237.2L226.2,237.2z M226.4,236.4
		C226.4,236.4,226.3,236.4,226.4,236.4C226.4,236.4,226.4,236.3,226.4,236.4L226.4,236.4z M226.8,235.6L226.8,235.6
		C226.7,235.6,226.8,235.6,226.8,235.6L226.8,235.6z M220.4,235.1c-0.1-0.3,0.5,0,0.2,0C220.6,235.1,220.5,235.1,220.4,235.1
		L220.4,235.1z M220.4,234.9c0,0-0.1,0.1-0.1,0.1C220.1,235.1,220.3,234.8,220.4,234.9L220.4,234.9z M219.9,233.9
		C219.9,233.9,219.8,233.9,219.9,233.9C219.8,233.9,219.9,233.9,219.9,233.9L219.9,233.9z M218.7,234.3c0.1-0.1,0.1-0.3,0.1,0
		C218.8,234.3,218.7,234.3,218.7,234.3L218.7,234.3z M218.8,234.1c-0.5,0.3-0.9-0.2-0.5-0.1C218.4,234,218.5,233.9,218.8,234.1
		L218.8,234.1z M218.3,233.7C218.3,233.7,218.3,233.6,218.3,233.7C218.3,233.6,218.4,233.6,218.3,233.7L218.3,233.7z M218.5,233.4
		c0,0,0-0.1,0-0.1C218.6,233.3,218.7,233.4,218.5,233.4L218.5,233.4z M218.8,233C218.8,233,218.8,232.9,218.8,233
		C218.8,232.9,219,233,218.8,233L218.8,233z M218.9,232.2c-1.3,0.8,0-1.3,0.1-1.4C218.6,231.2,218.8,232.2,218.9,232.2L218.9,232.2z
		 M219,230.8L219,230.8C219,230.8,219,230.9,219,230.8L219,230.8z M224,241.1c0,0,0-0.1-0.1-0.2C223.7,241,223.6,241.2,224,241.1
		L224,241.1z M224.3,240.9c0.3,0.2,0.4-0.2,0.1-0.1C224.3,240.8,224.4,240.9,224.3,240.9L224.3,240.9z M223.9,239.7
		c0.1,0,0.9-0.1,0.9-0.2C224.8,239.3,224,239.6,223.9,239.7L223.9,239.7z M223.4,239.1c0.1-0.2,1.2-0.4,0.4-0.8
		C223.7,238.3,222.2,239.6,223.4,239.1L223.4,239.1z M224.6,239C224.6,239,224.6,239,224.6,239C224.6,239,224.6,239,224.6,239
		L224.6,239z M223.5,237.9c-0.1,0,0.8,0.1,1,0.1c0.8-0.1-0.6-0.5-0.7-0.6C223.6,237.2,223,238.4,223.5,237.9L223.5,237.9z
		 M224.1,237.2c0.7,0.2,0.9-0.5,0.5-0.6C224.5,236.6,224.1,237.1,224.1,237.2L224.1,237.2z M224.4,236.4c-0.2-0.6-1.3,0-1.3,0
		C223.5,236.8,223.9,236.5,224.4,236.4L224.4,236.4z M220.1,234.2c-0.1,0.4-0.7,0.5,0.4,0.1L220.1,234.2L220.1,234.2z M220.6,234.3
		c0,0.2-0.1,0.1-0.1,0.3C220.8,234.6,221,234.3,220.6,234.3L220.6,234.3z M220.2,234.7C220.2,234.8,220.3,234.8,220.2,234.7
		C220.3,234.8,220.2,234.7,220.2,234.7L220.2,234.7z M220.5,235.9C220.5,235.9,220.5,235.9,220.5,235.9L220.5,235.9L220.5,235.9z
		 M205.7,227.3C205.6,227.3,205.6,227.3,205.7,227.3L205.7,227.3L205.7,227.3z M205.8,224.1c-0.5,0.1-0.4-0.1-0.2-0.1
		C205.7,224,205.8,224,205.8,224.1L205.8,224.1z M205.4,223.5c-0.2,0.1-1.1,0.2-0.5,0C205.3,223.4,205.3,223.1,205.4,223.5
		L205.4,223.5z M205.3,223.1c0.1-0.4,0.1-0.3,0.2-0.2C205.8,223.1,206.1,223.5,205.3,223.1L205.3,223.1z M205.5,222.7
		c0-0.1-0.1,0-0.1-0.1c-0.4-0.2-1.4,0.9,0.3-0.3C205.7,222.3,206.1,222.9,205.5,222.7L205.5,222.7z M205.8,222.2
		c0-0.1,0.1-0.1,0.2,0C206,222.4,205.8,222.2,205.8,222.2L205.8,222.2z M206,221.9c0,0,0.1-0.4,0.1-0.1
		C206.1,222,206.3,222.4,206,221.9L206,221.9z M206.1,221.7C206.1,221.6,206.1,221.6,206.1,221.7
		C206.1,221.6,206.1,221.6,206.1,221.7L206.1,221.7z M206.1,221.5c-0.5,0-2.1-0.1-0.9,0.1C205.5,221.7,205.9,220.9,206.1,221.5
		L206.1,221.5z M205.8,221.2C205.8,221.2,205.8,221.2,205.8,221.2L205.8,221.2L205.8,221.2z M205.8,221.2c0,0,0.1-0.3,0.3,0
		C206.4,221.5,206.2,221.3,205.8,221.2L205.8,221.2z M208,229.5c0-0.1,0-0.2,0.1-0.2C208.4,229.3,208.5,229.5,208,229.5L208,229.5z
		 M207.7,229.3c-0.3,0.2-0.3-0.1-0.3-0.1C207.5,229.2,207.7,229.3,207.7,229.3L207.7,229.3z M208.1,227.9c-0.9,0.1-1.2-0.3-0.5-0.1
		C207.9,227.9,207.7,227.7,208.1,227.9L208.1,227.9z M208.7,227.2c-0.3-0.7-0.9,0.3-0.3-0.8C208.4,226.4,210,227.5,208.7,227.2
		L208.7,227.2z M207.4,227.3C207.4,227.3,207.4,227.3,207.4,227.3C207.4,227.2,207.4,227.2,207.4,227.3L207.4,227.3z M208.5,225.9
		c0,0,0-0.2-0.5,0.3c-0.3,0.3-0.9,0.2-0.9-0.2c0-0.1,0.6-0.2,0.6-0.2C208.3,224.8,208.7,226.1,208.5,225.9L208.5,225.9z
		 M207.9,225.2c-0.8,0.3-1-0.2-0.5-0.6C207.5,224.7,207.9,225.1,207.9,225.2L207.9,225.2z M207.6,224.4c0.4-1,0.3,0,1-0.1
		C209.3,224.1,208.3,224.5,207.6,224.4L207.6,224.4z M212.5,220.9L212.5,220.9L212.5,220.9L212.5,220.9z M212.5,221
		C212.5,221.1,212.5,221.1,212.5,221L212.5,221L212.5,221z M212.3,221.3c0,0,0.9,0.5,0.1,0.3C211.4,221.4,212.1,221.6,212.3,221.3
		L212.3,221.3z M211.7,221.5c0,0.2,0.1,0.1,0.1,0.3C211.6,221.9,211.2,221.6,211.7,221.5L211.7,221.5z M212.2,221.9
		C212.2,222,212.1,222.1,212.2,221.9C212.1,222,212.1,221.9,212.2,221.9L212.2,221.9z M212,222.1c0.1,0.4-0.4,0.3-0.4,0.2
		C211.6,222.3,212,222.2,212,222.1L212,222.1z M212.5,222.8c0.2,0.1,0,0.2-0.2,0.1C212.2,222.9,212.4,222.9,212.5,222.8L212.5,222.8
		z M211.8,223.3C211.8,223.3,211.8,223.2,211.8,223.3L211.8,223.3L211.8,223.3z M211.8,226C211.9,226,211.9,226,211.8,226L211.8,226
		L211.8,226z M202,226.1c0,0-0.1,0-0.1,0C201.9,226,201.9,226,202,226.1L202,226.1z M202.4,225.4c0,0-0.6-0.4-0.1-0.1
		C202.3,225.3,202.4,225.3,202.4,225.4L202.4,225.4z M202.6,224.3c-0.1,0-0.3,0.2-0.3,0C202.3,224.3,202.5,224.3,202.6,224.3
		L202.6,224.3z M202.1,224.7c-0.1,0.1-0.1,0.1-0.2,0C201.6,224.6,202.1,224.5,202.1,224.7L202.1,224.7z M202.6,223.8
		c0.1-0.1,0.1-0.2,0.2-0.2C203.2,223.7,202.9,223.9,202.6,223.8L202.6,223.8z M202.7,223.6c-0.2,0.7-1-0.8-0.4-0.3
		C202.4,223.3,202.6,223.6,202.7,223.6L202.7,223.6z M201.9,224.1C201.7,224.1,201.9,223.9,201.9,224.1
		C201.9,224.1,201.8,224.1,201.9,224.1L201.9,224.1z M201.6,223.9C201.2,223.9,201.2,223.8,201.6,223.9
		C201.6,223.8,201.6,223.8,201.6,223.9L201.6,223.9z M202.4,222.9c0.2-0.4,0.3,0.2,0.3,0.2C202.6,223.1,202.4,222.9,202.4,222.9
		L202.4,222.9z M202.4,222.7c-1.6,1.2-1,0.4-1,0.2c0,0,0.5-0.7,0.2-0.6C200,222.8,201.5,221.6,202.4,222.7L202.4,222.7z M201.8,222
		c0.5-0.1-0.1-0.3,0.5-0.1C203.1,222.1,202.3,222.1,201.8,222L201.8,222z M184.2,216.8C184.2,216.8,184.3,216.8,184.2,216.8
		C184.3,216.8,184.3,216.8,184.2,216.8C184.3,216.8,184.2,216.8,184.2,216.8L184.2,216.8z M184.2,216.4L184.2,216.4
		c-0.2,0.1-0.3,0.1-0.4,0.2c-0.1,0.1-0.1,0.1-0.1,0.1c0.2,0,0.6-0.1,0.6-0.1C184.4,216.7,184.2,216.5,184.2,216.4L184.2,216.4z
		 M193.7,221.8C194.1,221.8,193.9,221.8,193.7,221.8L193.7,221.8L193.7,221.8z M193.9,221.5C194.4,221.6,194,221.3,193.9,221.5
		C194,221.5,193.9,221.5,193.9,221.5L193.9,221.5z M195.2,224.1c0,0-0.2-0.1-0.2,0C195,224.2,195.2,224.2,195.2,224.1L195.2,224.1z
		 M195.4,223.9c0.2,0.1,0.3-0.1,0.2-0.1C195.5,223.8,195.4,223.7,195.4,223.9L195.4,223.9z M195.6,223.6c0.1,0,0.2-0.1,0.3-0.2
		C195.9,223.4,195.6,223.5,195.6,223.6L195.6,223.6z M195.2,223.5C195.2,223.4,195.2,223.4,195.2,223.5
		C195.1,223.5,195.2,223.5,195.2,223.5L195.2,223.5z M195,223.4C195,223.4,195,223.4,195,223.4C194.9,223.4,195,223.4,195,223.4
		L195,223.4z M195.5,222.9c0.1,0,0.4,0,0.3-0.1C195.8,222.8,195.3,222.7,195.5,222.9L195.5,222.9z M195.4,222.4L195.4,222.4
		C195.5,222.4,195.4,222.4,195.4,222.4L195.4,222.4z M195.5,222.4c0,0,0.2,0,0.1-0.1C195.5,222.1,195.6,222.3,195.5,222.4
		L195.5,222.4z M195.3,222.3C195,222,194.7,222.6,195.3,222.3C195.3,222.3,195.3,222.3,195.3,222.3L195.3,222.3z M195.1,222.2
		C195.1,222.1,195.1,222.1,195.1,222.2C195.1,222.1,195.1,222.2,195.1,222.2L195.1,222.2z M195,221.6c0.2,0.3,0.4-0.3,0.4,0.1
		C195.3,221.9,196.2,221.4,195,221.6L195,221.6z M195.2,221.3c-0.1-0.2-0.3-0.1-0.3,0C194.7,221.5,195,221.4,195.2,221.3
		L195.2,221.3z M194.9,221C194.8,221,194.9,221,194.9,221C194.8,221,194.8,221.1,194.9,221L194.9,221z M151.7,196.6
		C151.7,196.7,151.8,196.6,151.7,196.6C151.8,196.6,151.7,196.6,151.7,196.6L151.7,196.6z M151.7,196.7c-0.3,0.1-0.2,0.4,0.3,0.4
		C152.9,197,151.9,196.8,151.7,196.7L151.7,196.7z M151.4,197.1c0,0-0.8,0.4-0.8,0.5C150.5,197.6,152,197.9,151.4,197.1L151.4,197.1
		z M151.7,197.6c0.1,0.4-1.2,0.3,0.3,0.2C152.5,197.8,152.1,197.6,151.7,197.6L151.7,197.6z M151.9,198c-0.1,0.2-0.3,0.4-0.5,0.5
		C153.2,199.3,152,198.6,151.9,198L151.9,198z M151.2,198.6c0,0.1-0.1,0.4,0.1,0.1C151.3,198.7,151.2,198.7,151.2,198.6L151.2,198.6
		z M151.4,198.9C151.4,198.9,151.4,198.9,151.4,198.9L151.4,198.9L151.4,198.9z M151.4,199c0,0.1-0.4,0.4-0.5,0.4
		C151.4,199.7,152.1,198.9,151.4,199L151.4,199z M150.8,199.4C150.7,199.4,150.8,199.5,150.8,199.4
		C150.8,199.5,150.8,199.4,150.8,199.4L150.8,199.4z M152.1,199.3C152.1,199.4,151.8,199.4,152.1,199.3
		C152.4,199.4,152.2,199.2,152.1,199.3L152.1,199.3z M151.7,199.7C151.5,199.7,151.6,199.7,151.7,199.7
		C151.7,199.7,151.7,199.7,151.7,199.7L151.7,199.7z M151.1,199.9C151.1,199.9,151.2,199.9,151.1,199.9
		C151.2,199.9,151.2,199.9,151.1,199.9L151.1,199.9z M152,200.4C152,200.3,152,200.3,152,200.4L152,200.4L152,200.4z M189.2,216.6
		L189.2,216.6L189.2,216.6L189.2,216.6z M189.2,216.7C189.2,216.7,189.2,216.7,189.2,216.7L189.2,216.7L189.2,216.7z M169.3,206.7
		L169.3,206.7C169.4,206.8,169.1,206.8,169.3,206.7L169.3,206.7z M169.7,206.4c0.1,0,0.2,0,0.2-0.1
		C170.1,206.4,169.8,206.4,169.7,206.4L169.7,206.4z M169,205.2c0.5-1.2-0.4-0.4-0.4-0.4c0.2-0.1,1.2-1.2,1.2-1.2
		c0.3,0.4,1,1.2,0.4,0.9C168.8,204,170.6,205.3,169,205.2L169,205.2z M170,203.4c0.1-0.1,0-0.1,0.1-0.2
		C170.5,203.5,170.7,203.9,170,203.4L170,203.4z M181.8,214.4c0.2,0.2,0.7,0.6,0.4,0.8C181.7,214.9,181.9,214.9,181.8,214.4
		L181.8,214.4z M181.2,215.8c-0.9,0.1-0.3-0.1,0.1-0.2C181.4,215.8,181.2,215.7,181.2,215.8L181.2,215.8z M181.3,216.3
		c0.2,0.4-0.5,0.2-0.6,0.2C180.2,216.4,181.2,216.3,181.3,216.3L181.3,216.3z M181.3,216.5C181.3,216.5,181.3,216.6,181.3,216.5
		L181.3,216.5L181.3,216.5z M180.9,216.6l0.1,0.1C180.8,216.8,180.9,216.7,180.9,216.6L180.9,216.6z M181.1,216.8
		c0.1,0.1,0,0.1-0.1,0.1L181.1,216.8L181.1,216.8z M180.8,217c0,0.1,0,0.1,0.1,0.2C180.7,217.3,180.7,217.2,180.8,217L180.8,217z
		 M179.6,214.2l0.1-0.2C179.7,214.1,179.7,214.2,179.6,214.2L179.6,214.2z M179.7,212.6c-0.4,0.2-0.1-0.3-0.1-0.1
		C179.6,212.5,179.7,212.5,179.7,212.6L179.7,212.6z M179.9,211.7C179.9,211.7,179.8,211.7,179.9,211.7
		C179.9,211.7,179.9,211.6,179.9,211.7L179.9,211.7z M180.3,210.9L180.3,210.9C180.2,210.9,180.3,210.9,180.3,210.9L180.3,210.9z
		 M174,210.4c-0.1-0.3,0.5,0,0.2,0C174.1,210.4,174,210.4,174,210.4L174,210.4z M173.9,210.2c0,0-0.1,0.1-0.1,0.1
		C173.6,210.4,173.8,210.2,173.9,210.2L173.9,210.2z M173.4,209.2C173.4,209.2,173.4,209.2,173.4,209.2
		C173.4,209.2,173.4,209.2,173.4,209.2L173.4,209.2z M172.2,209.6c0.1-0.1,0.1-0.3,0.1,0C172.4,209.6,172.2,209.6,172.2,209.6
		L172.2,209.6z M172.3,209.4c-0.5,0.3-0.9-0.2-0.5-0.1C172,209.3,172,209.2,172.3,209.4L172.3,209.4z M171.8,209
		C171.8,209,171.8,209,171.8,209C171.8,208.9,171.9,208.9,171.8,209L171.8,209z M172,208.7c0,0,0-0.1,0-0.1
		C172.1,208.6,172.2,208.7,172,208.7L172,208.7z M172.3,208.3C172.3,208.3,172.3,208.2,172.3,208.3
		C172.3,208.2,172.5,208.3,172.3,208.3L172.3,208.3z M172.4,207.5c-1.3,0.8,0-1.3,0.1-1.4C172.1,206.6,172.3,207.5,172.4,207.5
		L172.4,207.5z M172.5,206.1L172.5,206.1C172.6,206.1,172.5,206.2,172.5,206.1L172.5,206.1z M177.5,216.4c0,0,0-0.1-0.1-0.2
		C177.2,216.3,177.1,216.5,177.5,216.4L177.5,216.4z M177.8,216.2c0.3,0.2,0.4-0.2,0.1-0.1C177.8,216.1,177.9,216.2,177.8,216.2
		L177.8,216.2z M177.4,215c0.1,0,0.9-0.1,0.9-0.2C178.3,214.6,177.6,214.9,177.4,215L177.4,215z M176.9,214.4
		c0.1-0.2,1.2-0.4,0.4-0.8C177.2,213.6,175.7,214.9,176.9,214.4L176.9,214.4z M178.1,214.3C178.1,214.3,178.1,214.3,178.1,214.3
		C178.1,214.3,178.1,214.3,178.1,214.3L178.1,214.3z M177.1,213.2c-0.1,0,0.8,0.1,1,0.1c0.8-0.1-0.6-0.5-0.7-0.6
		C177.1,212.6,176.5,213.7,177.1,213.2L177.1,213.2z M177.7,212.5c0.7,0.2,0.9-0.5,0.5-0.6C178,211.9,177.7,212.4,177.7,212.5
		L177.7,212.5z M177.9,211.7c-0.2-0.6-1.3,0-1.3,0C177,212.1,177.4,211.8,177.9,211.7L177.9,211.7z M173.6,209.5
		c-0.1,0.4-0.7,0.5,0.4,0.1L173.6,209.5L173.6,209.5z M174.1,209.6c0,0.2-0.1,0.1-0.1,0.3C174.3,209.9,174.5,209.6,174.1,209.6
		L174.1,209.6z M173.7,210.1C173.7,210.1,173.8,210.2,173.7,210.1C173.8,210.1,173.7,210.1,173.7,210.1L173.7,210.1z M174,211.2
		C174,211.2,174,211.2,174,211.2L174,211.2L174,211.2z M159.2,202.6C159.1,202.6,159.1,202.7,159.2,202.6L159.2,202.6L159.2,202.6z
		 M159.3,199.4c-0.5,0.1-0.4-0.1-0.2-0.1C159.2,199.3,159.3,199.3,159.3,199.4L159.3,199.4z M158.9,198.8c-0.2,0.1-1.1,0.2-0.5,0
		C158.8,198.7,158.9,198.4,158.9,198.8L158.9,198.8z M158.8,198.4c0.1-0.4,0.1-0.3,0.2-0.2C159.3,198.5,159.6,198.8,158.8,198.4
		L158.8,198.4z M159,198c0-0.1-0.1,0-0.1-0.1c-0.4-0.2-1.4,0.9,0.3-0.3C159.2,197.6,159.6,198.2,159,198L159,198z M159.3,197.5
		c0-0.1,0.1-0.1,0.2,0C159.5,197.7,159.3,197.5,159.3,197.5L159.3,197.5z M159.5,197.2c0,0,0.1-0.4,0.1-0.1
		C159.7,197.3,159.8,197.7,159.5,197.2L159.5,197.2z M159.6,197C159.6,196.9,159.6,196.9,159.6,197C159.6,196.9,159.6,197,159.6,197
		L159.6,197z M159.6,196.9c-0.5,0-2.1-0.1-0.9,0.1C159,197,159.4,196.2,159.6,196.9L159.6,196.9z M159.3,196.6
		C159.3,196.5,159.3,196.5,159.3,196.6L159.3,196.6L159.3,196.6z M159.4,196.5c0,0,0.1-0.3,0.3,0
		C159.9,196.8,159.7,196.6,159.4,196.5L159.4,196.5z M161.5,204.8c0-0.1,0-0.2,0.1-0.2C161.9,204.6,162,204.8,161.5,204.8
		L161.5,204.8z M161.2,204.6c-0.3,0.2-0.3-0.1-0.3-0.1C161,204.5,161.2,204.6,161.2,204.6L161.2,204.6z M161.6,203.2
		c-0.9,0.1-1.2-0.3-0.5-0.1C161.4,203.2,161.2,203,161.6,203.2L161.6,203.2z M162.2,202.5c-0.3-0.7-0.9,0.3-0.3-0.8
		C161.9,201.7,163.5,202.8,162.2,202.5L162.2,202.5z M160.9,202.6C160.9,202.6,160.9,202.6,160.9,202.6
		C160.9,202.5,160.9,202.5,160.9,202.6L160.9,202.6z M162,201.2c0,0,0-0.2-0.5,0.3c-0.3,0.3-0.9,0.2-0.9-0.2c0-0.1,0.6-0.1,0.6-0.2
		C161.8,200.1,162.3,201.4,162,201.2L162,201.2z M161.4,200.5c-0.8,0.3-1-0.2-0.5-0.6C161,200,161.4,200.4,161.4,200.5L161.4,200.5z
		 M161.1,199.7c0.4-1,0.3,0,1-0.1C162.8,199.4,161.8,199.8,161.1,199.7L161.1,199.7z M166.1,196.2L166.1,196.2L166.1,196.2
		L166.1,196.2z M166,196.3C166,196.4,166.1,196.4,166,196.3L166,196.3L166,196.3z M165.8,196.6c0,0,0.9,0.5,0.1,0.3
		C165,196.7,165.6,196.9,165.8,196.6L165.8,196.6z M165.2,196.8c0,0.2,0.1,0.1,0.1,0.3C165.1,197.2,164.8,196.9,165.2,196.8
		L165.2,196.8z M165.7,197.2C165.7,197.3,165.6,197.4,165.7,197.2C165.6,197.3,165.6,197.2,165.7,197.2L165.7,197.2z M165.5,197.4
		c0.1,0.4-0.4,0.3-0.4,0.2C165.1,197.6,165.5,197.5,165.5,197.4L165.5,197.4z M166,198.1c0.2,0.1,0,0.2-0.2,0.1
		C165.7,198.2,165.9,198.2,166,198.1L166,198.1z M165.3,198.6C165.3,198.6,165.3,198.6,165.3,198.6L165.3,198.6L165.3,198.6z
		 M165.3,201.3C165.4,201.3,165.4,201.3,165.3,201.3L165.3,201.3L165.3,201.3z M155.5,201.4c0,0-0.1,0-0.1,0
		C155.4,201.3,155.5,201.3,155.5,201.4L155.5,201.4z M155.9,200.7c0,0-0.6-0.4-0.1-0.1C155.8,200.6,155.9,200.6,155.9,200.7
		L155.9,200.7z M156.1,199.7c-0.1,0-0.3,0.2-0.3,0C155.8,199.7,156,199.6,156.1,199.7L156.1,199.7z M155.6,200
		c-0.1,0.1-0.1,0.1-0.2,0C155.1,199.9,155.6,199.8,155.6,200L155.6,200z M156.1,199.1c0.1-0.1,0.1-0.2,0.2-0.2
		C156.7,199,156.4,199.2,156.1,199.1L156.1,199.1z M156.2,198.9c-0.2,0.7-1-0.8-0.4-0.3C155.9,198.6,156.1,198.9,156.2,198.9
		L156.2,198.9z M155.4,199.4C155.2,199.4,155.4,199.2,155.4,199.4C155.4,199.4,155.4,199.4,155.4,199.4L155.4,199.4z M155.1,199.2
		C154.7,199.2,154.7,199.1,155.1,199.2C155.1,199.1,155.1,199.1,155.1,199.2L155.1,199.2z M155.9,198.2c0.2-0.4,0.3,0.2,0.3,0.2
		C156.1,198.4,155.9,198.2,155.9,198.2L155.9,198.2z M155.9,198c-1.6,1.2-1,0.4-1,0.2c0,0,0.5-0.7,0.2-0.6
		C153.5,198.1,155,196.9,155.9,198L155.9,198z M155.3,197.3c0.5-0.1-0.1-0.3,0.5-0.1C156.7,197.4,155.8,197.4,155.3,197.3
		L155.3,197.3z M102.3,179.2C102.4,179.2,102.4,179.2,102.3,179.2C102.4,179.2,102.4,179.2,102.3,179.2L102.3,179.2z M102.6,178.7
		C102.7,178.7,102.7,178.7,102.6,178.7c0-0.1,0.1-0.1,0.1-0.2c0,0,0,0,0,0C102.8,178.6,102.7,178.6,102.6,178.7L102.6,178.7z
		 M102.9,178.7C102.9,178.6,102.9,178.6,102.9,178.7C102.9,178.6,102.9,178.6,102.9,178.7L102.9,178.7z M102,178
		c0.1-0.9,1,0.6-0.1-0.6c0,0,0,0,0,0c-0.1,0.2-0.2,0.4-0.3,0.6C101.6,177.9,101.7,177.9,102,178L102,178z M101.9,177.2
		c0.2-0.1,1.4,0,1,0c-0.5,0.1-0.6-0.8-0.6-1c0-0.1-0.1,0.1-0.3,0.4C102,176.7,102,177,101.9,177.2L101.9,177.2z M102.6,178.2
		c0.1,0,0.1,0,0.2,0C102.9,178.2,102.8,178.1,102.6,178.2L102.6,178.2z M102.3,176.1L102.3,176.1L102.3,176.1L102.3,176.1z
		 M99.4,175.2c0.2,0.1,0.5,0.3-0.1,0.2c-0.1,0-0.1,0-0.2,0C99.2,175.3,99.3,175.2,99.4,175.2L99.4,175.2z M99.4,176.5
		c0.1,0.1,0,0.1-0.1,0.1C99.4,176.6,99.4,176.6,99.4,176.5L99.4,176.5z M106.5,181.6c0,0,0-0.1-0.1,0c0,0,0,0,0,0
		C106.4,181.6,106.4,181.6,106.5,181.6L106.5,181.6z M108.3,182.8c0.1,0,0.2,0,0.3-0.1C108.6,182.8,108.3,182.7,108.3,182.8
		L108.3,182.8z M108.2,180.1c1,0.1,0.8-0.2,0-0.2C108.1,179.8,108.1,180,108.2,180.1L108.2,180.1z M108.7,179.3c0.1,0,0.2,0,0.1-0.1
		C108.8,179.2,108.7,179.1,108.7,179.3L108.7,179.3z M108.3,178.8C108.3,178.8,108.3,178.7,108.3,178.8
		C108.2,178.7,108.2,178.8,108.3,178.8L108.3,178.8z M108.6,178.2C108.7,178.2,108.6,178.2,108.6,178.2
		C108.6,178.2,108.6,178.2,108.6,178.2L108.6,178.2z M108.7,178.1c0.6,0.1,0.5-0.3,0-0.1C108.5,178.1,108.7,178,108.7,178.1
		L108.7,178.1z M108.4,177.8c-0.1-0.2-0.5,0.1-0.2,0C108.2,177.8,108.3,177.8,108.4,177.8L108.4,177.8z M108,177.5
		c0,0,0.2-0.2,0.2-0.2C108.6,177.1,107,177.7,108,177.5L108,177.5z M108.2,177.1c0.3,0.1,0.5,0.1,0.3-0.1
		C108.4,176.8,108.2,177,108.2,177.1L108.2,177.1z M108.3,176.7c0,0-0.3,0-0.3,0C107.9,176.9,108.2,176.8,108.3,176.7L108.3,176.7z
		 M112.4,187.8c-0.1,0-0.1,0-0.2,0C112.3,187.9,112.4,187.9,112.4,187.8C112.4,187.9,112.4,187.9,112.4,187.8L112.4,187.8z
		 M112.4,186.8C112.4,186.8,112.4,186.8,112.4,186.8c0.1,0,0.1,0,0.1-0.1C112.5,186.7,112.4,186.7,112.4,186.8L112.4,186.8z
		 M112.8,185.6c-0.1-0.1-0.5,0.2-0.2,0.1c0,0,0.1,0,0.1,0C112.8,185.7,112.8,185.7,112.8,185.6L112.8,185.6z M112.4,185.1
		C112.5,185.1,112.5,185.1,112.4,185.1C113.1,185.2,113,184.2,112.4,185.1L112.4,185.1z M112.9,184.6c0.1,0,0.2,0.1,0.2,0.1
		c0,0,0.1-0.1,0.1-0.1c0,0,0,0,0-0.1C113.1,184.5,112.9,184.6,112.9,184.6L112.9,184.6z M112.8,184.1c-0.2,0,1.1-0.1-0.2,0
		C111.8,184.1,111.8,184.5,112.8,184.1L112.8,184.1z M113.4,184.2c0.3,0,0.1-0.1,0.1-0.1C113.3,184.1,113.5,184.2,113.4,184.2
		L113.4,184.2z M113.3,183.4c0.1,0,0.5,0,0.3,0C113.5,183.3,113.4,183.2,113.3,183.4L113.3,183.4z M114.8,187.8c0.1,0,0.8,0.1,0.5,0
		L114.8,187.8L114.8,187.8z M114.9,187.1C114.7,187.1,115,187.1,114.9,187.1C114.8,187,114.7,187.1,114.9,187.1L114.9,187.1z
		 M115.3,187L115.3,187C115.3,187,115.3,186.9,115.3,187L115.3,187z M115.4,187L115.4,187C115.5,187,115.5,186.9,115.4,187
		L115.4,187z M115.6,186.9L115.6,186.9L115.6,186.9L115.6,186.9z M115.3,186.4c0.1,0,0.7,0.1,0.7,0
		C115.9,186.1,115.4,186.4,115.3,186.4L115.3,186.4z M115.2,186c-0.2-0.1,0.2-0.2-0.3,0C114.6,186.2,115.1,186,115.2,186L115.2,186z
		 M115.2,185.8C115.2,185.8,115.2,185.8,115.2,185.8C115.2,185.7,115.2,185.8,115.2,185.8L115.2,185.8z M115.2,185.7
		c0.1-0.4,0.1,0.2,0.4,0C115.4,185.3,114.2,185.5,115.2,185.7L115.2,185.7z M114.7,185C114.7,185,114.6,185,114.7,185
		C114.6,185,114.7,185,114.7,185L114.7,185z M114.6,184.9C114.6,184.9,114.7,184.9,114.6,184.9L114.6,184.9L114.6,184.9z
		 M114.8,184.9C114.9,184.9,114.9,184.9,114.8,184.9C116.3,185.1,115,184.1,114.8,184.9L114.8,184.9z M115.1,184.3
		c0.8,0.2,1.8-0.3,0.5-0.2C115.3,184.2,115.5,183.9,115.1,184.3L115.1,184.3z M115.3,183.9c0,0-0.2-0.3-0.3-0.3
		C114.8,183.9,114.5,184.4,115.3,183.9L115.3,183.9z M115,183.5C115,183.5,115,183.5,115,183.5C114.9,183.5,114.9,183.5,115,183.5
		L115,183.5z M114.9,183.3c-0.2-0.2,0.9,0.4,1,0.5C116,183.8,114.9,183.3,114.9,183.3L114.9,183.3z M117.8,186.3
		C117.8,186.3,117.8,186.3,117.8,186.3C117.8,186.3,117.8,186.2,117.8,186.3C117.8,186.2,117.8,186.2,117.8,186.3
		C117.8,186.2,117.8,186.3,117.8,186.3L117.8,186.3z M118.5,186.1C118.6,186,118.6,186,118.5,186.1C118.5,186,118.5,186,118.5,186.1
		L118.5,186.1z M117.6,185.4C117.5,185.3,117.5,185.4,117.6,185.4C117.6,185.4,117.6,185.4,117.6,185.4L117.6,185.4z M118.3,184.7
		C118.3,184.7,118.3,184.7,118.3,184.7c0.2,0,0.1-0.1,0-0.1C118.3,184.6,118.3,184.6,118.3,184.7L118.3,184.7z M118.1,184.2
		c0.1-0.4-0.7,0-0.2,0C118,184.2,118.1,184.2,118.1,184.2L118.1,184.2z M117.8,183.7C117.7,183.6,117.7,183.6,117.8,183.7
		C117.8,183.5,117.5,183.7,117.8,183.7L117.8,183.7z M117.8,183.5c1.4,0.1-1.1-0.7,0.1-0.2C118.1,183.3,117.9,183.4,117.8,183.5
		L117.8,183.5z M118.6,183.6C118.8,183.6,118.7,183.6,118.6,183.6C118.6,183.6,118.6,183.6,118.6,183.6L118.6,183.6z M118.1,183
		c0.7,0.3,0.4-0.3,0.2-0.3C118.3,182.8,118.1,183,118.1,183L118.1,183z M118.5,182.6c0.1,0,0.1,0,0.1-0.1
		C118.6,182.6,118.5,182.6,118.5,182.6L118.5,182.6z M121.4,192.4L121.4,192.4C121.4,192.4,121.4,192.4,121.4,192.4L121.4,192.4z
		 M121,189.7c0.1,0,0.1,0.1,0.2,0.1c0.3-0.1,0.1-0.2-0.1-0.2C121,189.6,121,189.7,121,189.7L121,189.7z M121.5,189.9
		c0.1,0,0.4,0.1,0.3-0.1C121.7,189.7,121.2,189.6,121.5,189.9L121.5,189.9z M122,188.8c0,0,0.2,0,0.2-0.1
		C122.2,188.6,122.1,188.7,122,188.8L122,188.8z M121.4,188.5c0.1-0.3-0.7-0.1-0.7-0.1c-0.2-0.1-0.3-0.1-0.4-0.1c0,0,0,0,0,0.1
		C120.5,188.5,120.9,188.6,121.4,188.5L121.4,188.5z M120.6,187.8c0-0.1-0.1-0.2-0.2-0.2C120.4,187.9,120.4,187.9,120.6,187.8
		L120.6,187.8z M120.8,187.6c1.3,0.5,0.8-0.2,0.8-0.7c0,0,1.1,0.3,0.4-0.2c-0.4-0.3-0.5,0.5-0.7,0.4
		C121.2,187.1,121,187.6,120.8,187.6L120.8,187.6z M121.8,188c0.8,0.1,0.9,0.3,0.5-0.1C122.1,187.7,121.8,187.8,121.8,188L121.8,188
		z M121.4,186.6c0-0.4-1.1-0.7-0.8,0.3C120.6,186.9,120.1,187.7,121.4,186.6L121.4,186.6z M121.3,185.9c0.7,0.2,1.6,0,0.5-0.2
		C121.7,185.7,121.3,185.7,121.3,185.9L121.3,185.9z M126.5,193.2C126.6,193.1,126.4,193.1,126.5,193.2
		C126.3,193.1,126.5,193.2,126.5,193.2L126.5,193.2z M126.8,191.8c0.1,0,0.3,0,0.1-0.1C126.9,191.8,126.8,191.8,126.8,191.8
		L126.8,191.8z M126.8,190.9c0.7,0,0.4-0.2,0.1,0C126.8,190.9,126.8,190.8,126.8,190.9L126.8,190.9z M126.7,190.2
		c0.4,0.1,1.2,0.4,0.7-0.1C126.9,189.7,127.2,190,126.7,190.2L126.7,190.2z M126.8,189.4C126.8,189.3,126.8,189.3,126.8,189.4
		C127.1,189.3,125.4,189.9,126.8,189.4L126.8,189.4z M126,188.5C126,188.4,126.1,188.4,126,188.5C128.2,188.1,126,188.5,126,188.5
		L126,188.5z M126.7,187.9c0.4,0.1,1.4,0.3,1.1-0.2C127.8,187.6,126.7,187.6,126.7,187.9L126.7,187.9z M127.1,187.6L127.1,187.6
		L127.1,187.6L127.1,187.6z M126.9,187.3c-0.1-1.2-0.9,0.3,0.6-0.4c0-0.1-1-0.7-0.7-0.9c0,0-0.5,0.2-1.4,0.5
		c-1.2,0.4,0.6,0.4,0.2,0.4c-0.5,0-0.3,0.4,0.4,0c0.9-0.6-0.1,0.7-0.5,0.8C124.7,187.9,126.4,187.5,126.9,187.3L126.9,187.3z
		 M127.4,187.2c0.1,0.1,0.9,0.2,0.4,0C127.6,187.1,127.5,186.9,127.4,187.2L127.4,187.2z M131.5,195c0,0,0.3,0,0.2-0.1
		C131.7,195,131.5,195,131.5,195L131.5,195z M130.9,194.6C130.9,194.6,130.9,194.6,130.9,194.6L130.9,194.6L130.9,194.6z
		 M131.3,194.4c0.1,0,0.3,0.1,0.4,0C131.6,194.3,131.4,194.3,131.3,194.4L131.3,194.4z M130.9,193.7L130.9,193.7L130.9,193.7
		L130.9,193.7z M131.1,193.5c0.3,0.1,1.1-0.1,0.5-0.1C131.3,193.4,131.3,193.5,131.1,193.5L131.1,193.5z M131,192.8
		c0.3,0.2,0.4,0,0.1-0.1C130.9,192.5,131.1,192.8,131,192.8L131,192.8z M131,192.3L131,192.3L131,192.3L131,192.3z M131,192.2
		c0.2-0.2,0.7,0.2,0.5-0.3c0.3,0-0.1-0.1-0.1-0.1C131.3,191.8,131,192.2,131,192.2L131,192.2z M131.4,192.4c0.4,0.1,0.4,0,0.1-0.1
		C131.6,192.3,131.4,192.3,131.4,192.4L131.4,192.4z M131.6,191.7c0.1,0,0.5,0,0.3,0C131.6,191.6,131.8,191.5,131.6,191.7
		L131.6,191.7z M131.4,191.3c0-0.1,0.5-0.2,0.2-0.3C131.5,191.2,129.6,191.9,131.4,191.3L131.4,191.3z M131.8,191.4L131.8,191.4
		L131.8,191.4L131.8,191.4z M131.7,190.9c0.3,0.2,0.2,0.1,0.1-0.1C131.8,190.7,131.7,190.8,131.7,190.9L131.7,190.9z M131.9,190.6
		c0.1,0.1,0.5,0.3,0.3,0.1C131.9,190.5,132.2,190.4,131.9,190.6L131.9,190.6z M133,193.9c0.1,0,0.3,0,0.4,0
		C133.8,193.8,133,193.6,133,193.9L133,193.9z M133.2,193.3C133.3,193.3,133.2,193.3,133.2,193.3
		C133.2,193.3,133.2,193.3,133.2,193.3L133.2,193.3z M133.1,193.2c-0.1-0.1,0-0.1-0.2-0.1C132.7,193.1,132.9,193.3,133.1,193.2
		L133.1,193.2z M133.1,192.9c0.2,0.2,0.9,0,0.2-0.1C133.1,192.8,133.2,192.8,133.1,192.9L133.1,192.9z M133.2,192.3
		c0-0.1-0.3-0.2-0.3,0C132.9,192.4,133.1,192.3,133.2,192.3L133.2,192.3z M133.1,192.2L133.1,192.2L133.1,192.2L133.1,192.2z
		 M133.1,192.1c0.5,0.2,0.3,0,0.2-0.2C133.4,191.9,133.1,191.8,133.1,192.1L133.1,192.1z M133.3,191.8
		C133.3,191.6,133.1,191.8,133.3,191.8C133.2,191.8,133.3,191.8,133.3,191.8L133.3,191.8z M133.4,191.7c0.1,0,0.4,0,0.2,0
		C133.5,191.7,133.4,191.4,133.4,191.7L133.4,191.7z M134.5,194.6C134.5,194.6,134.2,194.4,134.5,194.6
		C134.7,194.5,134.7,194.6,134.5,194.6L134.5,194.6z M134.6,195c0.1,0,0.3,0,0.3,0C134.8,194.9,134.7,195,134.6,195L134.6,195z
		 M134.8,194.4L134.8,194.4C134.8,194.4,134.8,194.4,134.8,194.4L134.8,194.4z M135,194.4c0,0,0.1,0,0.1,0
		C135.1,194.4,135,194.4,135,194.4L135,194.4z M134.4,194.1C134.4,194,134.4,194.1,134.4,194.1C134.4,194.1,134.4,194.1,134.4,194.1
		L134.4,194.1z M134.9,194c0.2,0,0.3,0.1,0.5,0C135.3,193.9,135,193.9,134.9,194L134.9,194z M134.9,193.7c0-0.2-0.3-0.1-0.4,0
		C134.4,193.8,134.9,193.7,134.9,193.7L134.9,193.7z M135,193.4C135.3,193.6,135,193.2,135,193.4C135,193.4,134.9,193.4,135,193.4
		L135,193.4z M134.9,193.2c-0.3-0.1-0.2,0-0.4,0.1C134.2,193.5,134.8,193.3,134.9,193.2L134.9,193.2z M134.7,193.2
		C134.6,192.9,134.1,193.2,134.7,193.2C134.6,193.2,134.6,193.2,134.7,193.2L134.7,193.2z M134.3,192.7c0.9-0.2,0-0.1,0-0.1
		C134.2,192.6,134.3,192.7,134.3,192.7L134.3,192.7z M134.8,192.9L134.8,192.9C134.9,192.9,134.8,192.8,134.8,192.9L134.8,192.9z
		 M134.9,192.9c0.3,0,0.5-0.2,0.1-0.1C135,192.8,134.9,192.8,134.9,192.9L134.9,192.9z M134.5,192.4c0.1,0,0.2,0,0.2,0
		C136.1,192.7,135.1,191.8,134.5,192.4L134.5,192.4z M134.8,192L134.8,192L134.8,192L134.8,192z M134.8,191.9
		C134.4,191.3,134.2,192.5,134.8,191.9C134.8,192,134.8,192,134.8,191.9L134.8,191.9z M137.3,194.9
		C137.3,194.8,137.2,194.8,137.3,194.9C137.3,194.9,137.3,194.9,137.3,194.9L137.3,194.9z M137.5,194.3c0.1,0,0.2,0,0.3-0.1
		C137.8,194.2,137.5,194.2,137.5,194.3L137.5,194.3z M137.5,194.2c-0.1,0-0.6,0.1-0.3,0C137.3,194.2,137.4,194.2,137.5,194.2
		L137.5,194.2z M137.1,193.9c-0.1-0.1-0.4,0-0.2,0C136.9,193.9,137,193.9,137.1,193.9L137.1,193.9z M136.9,193.5c0,0-0.2-0.1-0.2,0
		C136.7,193.5,136.8,193.5,136.9,193.5L136.9,193.5z M136.9,193.4c0.6,0.4,0-0.6-0.3-0.2C136.6,193.2,136.9,193.4,136.9,193.4
		L136.9,193.4z M137.2,193.6c0,0,0.1,0.1,0.1,0.1C137.4,193.6,137.3,193.4,137.2,193.6L137.2,193.6z M136.7,192.6
		c0.9,0.2,0.8-0.5,0.5-0.1C137.2,192.6,136.8,192.6,136.7,192.6L136.7,192.6z M136.7,192.3L136.7,192.3L136.7,192.3L136.7,192.3z
		 M137.2,192.1c0.5,0,1,0.2,0.7-0.2C137.6,191.5,137.2,192.1,137.2,192.1L137.2,192.1z M137.2,191.7c0-0.1-0.5-0.3-0.5,0.2
		C136.6,192,137.1,191.7,137.2,191.7L137.2,191.7z M136.7,191.1c0,0-0.3-0.2-0.2,0C136.5,191.2,136.6,191.1,136.7,191.1L136.7,191.1
		z M136.6,190.9c0.3,0.2,0.3,0.3,0.7,0.1C137.2,190.5,136.9,190.5,136.6,190.9L136.6,190.9z M137.2,191.2c1.2,0.5,0.2-0.2,0.1-0.1
		C137.3,191.1,137.2,191.2,137.2,191.2L137.2,191.2z M137.5,191L137.5,191C137.4,191,137.4,191,137.5,191L137.5,191z M136.9,190.5
		C136.9,190.5,136.9,190.5,136.9,190.5C136.9,190.5,136.9,190.5,136.9,190.5L136.9,190.5z M136.8,190.4c0-0.1,0-0.2-0.1-0.2
		C136.6,190.3,136.3,190.5,136.8,190.4L136.8,190.4z M141,196.2C141,196.2,140.9,196.2,141,196.2C140.9,196.2,140.9,196.2,141,196.2
		L141,196.2z M140.9,195.5c-0.1-0.1-0.1-0.2-0.3,0C140.2,195.7,140.7,195.5,140.9,195.5L140.9,195.5z M140.9,195.3
		C141,195.3,141,195.3,140.9,195.3C140.9,195.2,140.9,195.3,140.9,195.3L140.9,195.3z M140.3,194.7c0-0.1,0.1-0.1-0.1,0
		C140.1,194.6,140.2,194.7,140.3,194.7L140.3,194.7z M140.6,194.6c0.4,0.1,0.5-0.1,0.2-0.2C140.8,194.4,140.6,194.6,140.6,194.6
		L140.6,194.6z M141,194.6C141,194.6,141,194.6,141,194.6L141,194.6L141,194.6z M140.7,193.9c0,0-0.3-0.5,0.6-0.4
		c0.3,0-0.5-0.5-0.5-0.6c0-0.1-0.6,0.2-0.6,0.2c-1.1,0.2,0.5,0,0.1,0.8C140.1,194,139.3,194.5,140.7,193.9L140.7,193.9z
		 M140.8,192.8c0.5,0.1,0.4,0.2,0.3-0.1C141,192.4,140.8,192.7,140.8,192.8L140.8,192.8z M141.1,192.5c0.6,0.2,0.4-0.1,0.1-0.2
		C141.1,192.3,141.2,192.5,141.1,192.5L141.1,192.5z M141.2,192.3L141.2,192.3L141.2,192.3L141.2,192.3z M142.4,197.3L142.4,197.3
		L142.4,197.3L142.4,197.3z M142.4,197.1c0.2,0,0.4,0,0.6,0C143.1,197.1,142.4,197.1,142.4,197.1L142.4,197.1z M142.7,196.5
		L142.7,196.5C142.7,196.5,142.7,196.5,142.7,196.5L142.7,196.5z M142.7,196.5c0.4,0.1,0.4-0.3,0.1-0.1
		C142.8,196.4,142.8,196.5,142.7,196.5L142.7,196.5z M142.6,195.8L142.6,195.8C142.6,195.8,142.6,195.8,142.6,195.8L142.6,195.8z
		 M142.6,195.7c0-0.1,0.9,0.1,0.3-0.2C142.6,195.3,141.8,195.9,142.6,195.7L142.6,195.7z M143.1,195.9c0.1,0,0.4,0.1,0.4-0.1
		C143.5,195.6,143.1,195.9,143.1,195.9L143.1,195.9z M143.4,195.7c0.2-0.1,0.5-0.4,0.2-0.2C143.7,195.5,143.4,195.6,143.4,195.7
		L143.4,195.7z M142.7,194.9c1.3,0,1-0.1,0.1-0.1C142.7,194.8,142.7,194.8,142.7,194.9L142.7,194.9z M142.4,194.5
		C142.3,194.4,142.4,194.5,142.4,194.5C142.3,194.5,142.3,194.5,142.4,194.5L142.4,194.5z M142.5,194.2c1.2,0.2,0.9-0.1,0.3-0.4
		C142.5,193.7,142.8,194,142.5,194.2L142.5,194.2z M142.6,193.6c0-0.1-0.1,0.1-0.1-0.1C142.5,193.5,141.7,193.9,142.6,193.6
		L142.6,193.6z M142.4,193.3l-0.1,0C142.3,193.4,142.3,193.3,142.4,193.3L142.4,193.3z M142.3,193.3
		C142.4,193.1,142.1,193.2,142.3,193.3C142.3,193.2,142.3,193.3,142.3,193.3L142.3,193.3z M147.1,201.9L147.1,201.9
		C147,201.9,147,201.9,147.1,201.9L147.1,201.9z M147.2,201.2c0.3-0.1,0-0.2-0.1-0.1C147,201.2,147.1,201.2,147.2,201.2L147.2,201.2
		z M146.5,200.6c0.7,0,1-0.4,0.4-0.1C146.9,200.5,146.5,200.6,146.5,200.6L146.5,200.6z M146.6,199.8c0.1-0.1-0.1,0-0.1,0
		C146.4,199.8,146.5,199.8,146.6,199.8L146.6,199.8z M146.9,199.5c0.1,0,0.5,0.1,0.2,0C147,199.5,147,199.4,146.9,199.5L146.9,199.5
		z M147.3,199.2C147.4,199.2,147.3,199.1,147.3,199.2C147.3,199.2,147.3,199.2,147.3,199.2L147.3,199.2z M146.7,199L146.7,199
		C146.6,198.9,146.6,198.9,146.7,199L146.7,199z M147,198.7C147.1,198.7,147.1,198.7,147,198.7C147,198.7,147,198.7,147,198.7
		L147,198.7z M147,198.6c0.7,0.3,0-0.5-0.1-0.5C146.3,198.2,147,198.4,147,198.6L147,198.6z M146.6,197.7c0,0,0.7-0.7-0.3,0
		C146,197.9,146.5,197.7,146.6,197.7L146.6,197.7z M147.2,197.8c0.1,0,0.2-0.1,0.1-0.1C147.3,197.7,147.3,197.7,147.2,197.8
		L147.2,197.8z M147.1,197.3L147.1,197.3L147.1,197.3L147.1,197.3z M147.2,197.1C147.6,197.1,147.5,197.1,147.2,197.1L147.2,197.1
		L147.2,197.1z M147.4,196.9C147.9,196.9,147.5,196.6,147.4,196.9C147.5,196.8,147.4,196.8,147.4,196.9L147.4,196.9z M148.7,199.5
		c0,0-0.2-0.1-0.2,0C148.5,199.5,148.7,199.5,148.7,199.5L148.7,199.5z M148.9,199.2c0.2,0.1,0.3-0.1,0.2-0.1
		C149,199.1,149,199,148.9,199.2L148.9,199.2z M149.1,198.9c0.1,0,0.2-0.1,0.3-0.2C149.4,198.7,149.1,198.8,149.1,198.9L149.1,198.9
		z M148.7,198.8C148.7,198.7,148.7,198.7,148.7,198.8C148.7,198.8,148.7,198.8,148.7,198.8L148.7,198.8z M148.5,198.7
		C148.5,198.7,148.5,198.7,148.5,198.7C148.4,198.7,148.5,198.7,148.5,198.7L148.5,198.7z M149,198.2c0.1,0,0.4,0,0.3-0.1
		C149.3,198.1,148.8,198,149,198.2L149,198.2z M148.9,197.7L148.9,197.7C149,197.7,148.9,197.7,148.9,197.7L148.9,197.7z M149,197.7
		c0,0,0.2,0,0.1-0.1C149,197.4,149.1,197.6,149,197.7L149,197.7z M148.8,197.6C148.5,197.3,148.3,197.9,148.8,197.6
		C148.8,197.6,148.8,197.6,148.8,197.6L148.8,197.6z M148.6,197.5C148.6,197.5,148.7,197.4,148.6,197.5
		C148.6,197.4,148.6,197.5,148.6,197.5L148.6,197.5z M148.5,196.9c0.2,0.3,0.4-0.3,0.4,0.1C148.8,197.2,149.7,196.7,148.5,196.9
		L148.5,196.9z M148.7,196.6c-0.1-0.2-0.3-0.1-0.3,0C148.2,196.8,148.6,196.7,148.7,196.6L148.7,196.6z M148.4,196.4
		C148.4,196.3,148.4,196.3,148.4,196.4C148.3,196.3,148.3,196.4,148.4,196.4L148.4,196.4z M76.8,168.1c0,0,0,0.1,0,0.2
		c-0.2,0-0.6,0.1-0.3-0.1C76.7,168.1,76.8,168.1,76.8,168.1L76.8,168.1z M74,161c0-0.1-0.1-0.2-0.1-0.3
		C74.1,160.9,74.3,161.1,74,161L74,161z M70,160.7c0,0.2,0.1,0.4,0.3,0.5C70,161.3,69.8,160.8,70,160.7L70,160.7z M70.5,161.5
		c0.1,0.2,0.2,0.3,0.2,0.4c-0.1,0-0.1,0-0.2,0C70.1,162,70.2,161.8,70.5,161.5L70.5,161.5z M70.3,163.2c0,0.1-0.1,0.1-0.1,0.1
		C70,163.3,70,163.2,70.3,163.2L70.3,163.2z M67.9,161.1c-0.1,0-0.2,0-0.3,0c0,0,0,0,0,0c0.1,0,0.1-0.1,0.2-0.1
		C67.8,161.1,67.8,161.1,67.9,161.1L67.9,161.1z M68.3,160.3c0-0.1,0-0.1,0-0.2C68.7,160.2,68.9,160.2,68.3,160.3
		C68.4,160.2,68.3,160.3,68.3,160.3L68.3,160.3z M67.9,160c0,0-0.1,0.1-0.1,0.1c0,0,0-0.1-0.1-0.1c0,0,0,0,0,0
		C67.7,159.9,67.8,160,67.9,160L67.9,160z M73.1,162.7C73.1,162.7,73,162.7,73.1,162.7c-0.2,0-0.2-0.1-0.2-0.2c0,0-0.4,0.1-0.4,0.1
		C72.9,162.6,73.1,162.7,73.1,162.7L73.1,162.7z M72.3,162.7c0,0,0.1-0.1,0.1-0.2c0,0,0,0,0,0c0,0.1,0.1,0.2,0.1,0.2
		C72.5,162.9,72.3,162.8,72.3,162.7L72.3,162.7z M66.2,160.8c0,0,0,0.1,0,0.1c0,0-0.1,0-0.3,0c0.4-0.4-0.6,0.3-0.1-0.4
		C66,160.7,66.1,160.8,66.2,160.8L66.2,160.8z M82,167.5C82,167.6,82.1,167.6,82,167.5C82.1,167.5,82,167.6,82,167.5L82,167.5z
		 M82,167.6c-0.3,0.1-0.2,0.4,0.3,0.4C83.2,168,82.2,167.7,82,167.6L82,167.6z M81.7,168c0,0-0.8,0.4-0.8,0.4
		C80.8,168.5,82.3,168.8,81.7,168L81.7,168z M82,168.5c0.1,0.4-1.2,0.2,0.3,0.3C82.8,168.8,82.4,168.5,82,168.5L82,168.5z M82.2,169
		c-0.1,0.2-0.3,0.4-0.5,0.4C83.5,170.3,82.3,169.6,82.2,169L82.2,169z M81.5,169.5c0,0.1-0.1,0.4,0.1,0.1
		C81.6,169.6,81.5,169.6,81.5,169.5L81.5,169.5z M81.7,169.8C81.7,169.8,81.7,169.8,81.7,169.8L81.7,169.8L81.7,169.8z M82.4,170.3
		c0,0.1-0.3,0.1,0,0.1C82.7,170.3,82.5,170.2,82.4,170.3L82.4,170.3z M82,170.6C81.8,170.6,81.9,170.7,82,170.6
		C82,170.6,82,170.6,82,170.6L82,170.6z M81.4,170.8C81.4,170.8,81.5,170.8,81.4,170.8C81.5,170.8,81.5,170.8,81.4,170.8L81.4,170.8
		z M82.3,171.3C82.3,171.3,82.3,171.3,82.3,171.3L82.3,171.3L82.3,171.3z M89.5,174.1C89.4,174.1,89.4,174.1,89.5,174.1L89.5,174.1
		L89.5,174.1z M89.6,170.9c-0.5,0-0.4-0.1-0.2-0.1C89.5,170.7,89.6,170.8,89.6,170.9L89.6,170.9z M89.2,170.3
		c-0.2,0.1-1.1,0.1-0.5,0C89.1,170.2,89.2,169.8,89.2,170.3L89.2,170.3z M89.1,169.8c0.1-0.4,0.1-0.3,0.2-0.2
		C89.6,169.9,89.9,170.3,89.1,169.8L89.1,169.8z M89.3,169.4c0-0.1-0.1,0-0.1-0.1c-0.4-0.3-1.4,0.8,0.3-0.3
		C89.5,169.1,89.9,169.7,89.3,169.4L89.3,169.4z M89.6,168.9c0-0.1,0.1-0.1,0.2,0C89.8,169.2,89.6,168.9,89.6,168.9L89.6,168.9z
		 M89.8,168.7c0,0,0.1-0.4,0.1-0.1C90,168.8,90.1,169.2,89.8,168.7L89.8,168.7z M89.9,168.4C89.9,168.4,89.9,168.4,89.9,168.4
		C89.9,168.4,89.9,168.4,89.9,168.4L89.9,168.4z M89.9,168.3c-0.5-0.1-2.1-0.3-0.9,0C89.3,168.5,89.7,167.7,89.9,168.3L89.9,168.3z
		 M89.6,168C89.6,168,89.6,168,89.6,168L89.6,168L89.6,168z M89.7,168c0,0,0.1-0.3,0.3,0C90.2,168.3,90,168.1,89.7,168L89.7,168z
		 M91.8,176.4c0-0.1,0-0.2,0.1-0.2C92.2,176.2,92.3,176.5,91.8,176.4L91.8,176.4z M91.5,176.2c-0.3,0.2-0.3-0.1-0.3-0.1
		C91.3,176.1,91.5,176.2,91.5,176.2L91.5,176.2z M91.9,174.9c-0.9,0.1-1.2-0.4-0.5-0.1C91.7,174.8,91.5,174.6,91.9,174.9L91.9,174.9
		z M92.5,174.1c-0.3-0.7-0.9,0.3-0.3-0.8C92.2,173.3,93.8,174.6,92.5,174.1L92.5,174.1z M91.2,174.2
		C91.2,174.2,91.2,174.1,91.2,174.2C91.2,174.1,91.2,174.1,91.2,174.2L91.2,174.2z M92.3,172.8c0,0,0-0.2-0.5,0.3
		c-0.3,0.3-0.9,0.1-0.9-0.3c0-0.1,0.6-0.1,0.6-0.1C92.1,171.7,92.6,173,92.3,172.8L92.3,172.8z M91.7,172.1c-0.8,0.3-1-0.3-0.5-0.6
		C91.3,171.6,91.7,172,91.7,172.1L91.7,172.1z M91.4,171.3c0.4-0.9,0.3,0.1,1,0C93.1,171.1,92.1,171.5,91.4,171.3L91.4,171.3z
		 M96.4,168.2L96.4,168.2L96.4,168.2L96.4,168.2z M96.3,168.3C96.3,168.3,96.3,168.4,96.3,168.3L96.3,168.3L96.3,168.3z M96.1,168.6
		c0,0,0.9,0.6,0.1,0.3C95.2,168.6,95.9,168.8,96.1,168.6L96.1,168.6z M95.5,168.7c0,0.2,0.1,0.1,0.1,0.3
		C95.4,169.1,95.1,168.7,95.5,168.7L95.5,168.7z M96,169.2C96,169.2,95.9,169.3,96,169.2C95.9,169.2,95.9,169.2,96,169.2L96,169.2z
		 M95.8,169.3c0.1,0.4-0.4,0.2-0.4,0.2C95.4,169.5,95.8,169.4,95.8,169.3L95.8,169.3z M96.3,170.1c0.2,0.1,0,0.2-0.2,0.1
		C96,170.1,96.2,170.1,96.3,170.1L96.3,170.1z M95.6,170.5C95.6,170.5,95.6,170.4,95.6,170.5L95.6,170.5L95.6,170.5z M95.6,173.2
		C95.7,173.2,95.7,173.2,95.6,173.2L95.6,173.2L95.6,173.2z M85.8,172.6c0,0-0.1,0-0.1,0C85.7,172.5,85.8,172.5,85.8,172.6
		L85.8,172.6z M86.2,171.9c0,0-0.6-0.5-0.1-0.1C86.1,171.8,86.2,171.9,86.2,171.9L86.2,171.9z M86.4,170.9c-0.1,0-0.3,0.2-0.3,0
		C86.1,170.9,86.3,170.9,86.4,170.9L86.4,170.9z M85.9,171.2c-0.1,0.1-0.1,0.1-0.2,0C85.4,171.1,85.9,171,85.9,171.2L85.9,171.2z
		 M86.4,170.4c0.1-0.1,0.1-0.2,0.2-0.1C87,170.3,86.7,170.4,86.4,170.4L86.4,170.4z M86.5,170.2c-0.2,0.7-1-0.8-0.4-0.4
		C86.2,169.9,86.4,170.2,86.5,170.2L86.5,170.2z M85.7,170.6C85.5,170.6,85.7,170.4,85.7,170.6C85.7,170.6,85.7,170.6,85.7,170.6
		L85.7,170.6z M85.4,170.3C85,170.4,85,170.3,85.4,170.3C85.4,170.3,85.4,170.3,85.4,170.3L85.4,170.3z M86.2,169.4
		c0.2-0.4,0.3,0.2,0.3,0.2C86.4,169.7,86.2,169.5,86.2,169.4L86.2,169.4z M86.2,169.2c-1.6,1.1-1,0.3-1,0.2c0,0,0.5-0.7,0.2-0.6
		C83.8,169.1,85.3,168.1,86.2,169.2L86.2,169.2z M85.6,168.5c0.5-0.1-0.1-0.3,0.5-0.1C87,168.6,86.1,168.7,85.6,168.5L85.6,168.5z
		 M68,162.1C68.1,162.1,68.1,162.1,68,162.1C68.1,162,68.1,162,68,162.1C68.1,162,68,162,68,162.1L68,162.1z M68,161.7
		C68,161.7,68,161.7,68,161.7c-0.2,0.1-0.3,0.1-0.4,0.1c-0.1,0.1-0.1,0.1-0.1,0.1c0.2,0,0.6-0.1,0.6-0.1C68.2,162,68,161.7,68,161.7
		L68,161.7z M77.5,167.7C77.9,167.8,77.7,167.7,77.5,167.7L77.5,167.7L77.5,167.7z M77.7,167.5C78.2,167.6,77.8,167.3,77.7,167.5
		C77.8,167.5,77.7,167.4,77.7,167.5L77.7,167.5z M79,170.2c0,0-0.2-0.1-0.2,0C78.8,170.2,79,170.2,79,170.2L79,170.2z M79.2,169.9
		c0.2,0.1,0.3-0.1,0.2-0.1C79.3,169.8,79.3,169.7,79.2,169.9L79.2,169.9z M79.4,169.7c0.1,0,0.2-0.1,0.3-0.1
		C79.7,169.5,79.4,169.6,79.4,169.7L79.4,169.7z M79,169.5C79,169.5,79,169.4,79,169.5C79,169.5,79,169.5,79,169.5L79,169.5z
		 M78.8,169.4C78.8,169.4,78.8,169.4,78.8,169.4C78.7,169.4,78.8,169.4,78.8,169.4L78.8,169.4z M79.3,168.9c0.1,0,0.4,0.1,0.3-0.1
		C79.6,168.8,79.1,168.7,79.3,168.9L79.3,168.9z M79.2,168.5L79.2,168.5C79.3,168.5,79.2,168.4,79.2,168.5L79.2,168.5z M79.3,168.5
		c0,0,0.2,0,0.1-0.1C79.3,168.2,79.4,168.4,79.3,168.5L79.3,168.5z M79.1,168.3C78.8,168,78.5,168.6,79.1,168.3
		C79.1,168.3,79.1,168.3,79.1,168.3L79.1,168.3z M78.9,168.2C78.9,168.2,79,168.2,78.9,168.2C78.9,168.1,78.9,168.2,78.9,168.2
		L78.9,168.2z M78.8,167.6c0.2,0.3,0.4-0.3,0.4,0.2C79.1,168,80,167.5,78.8,167.6L78.8,167.6z M79,167.3c-0.1-0.2-0.3-0.1-0.3-0.1
		C78.5,167.5,78.8,167.4,79,167.3L79,167.3z M78.7,167C78.6,167,78.7,167,78.7,167C78.6,167,78.6,167.1,78.7,167L78.7,167z
		 M35.5,139.6C35.5,139.6,35.6,139.6,35.5,139.6C35.6,139.6,35.5,139.6,35.5,139.6L35.5,139.6z M35.5,139.6
		c-0.3,0.1-0.2,0.4,0.3,0.4C36.7,140,35.7,139.7,35.5,139.6L35.5,139.6z M35.2,140c0,0-0.8,0.4-0.8,0.4
		C34.3,140.5,35.8,140.8,35.2,140L35.2,140z M35.6,140.5c0.1,0.4-1.2,0.2,0.3,0.3C36.3,140.8,35.9,140.5,35.6,140.5L35.6,140.5z
		 M35.7,141c-0.1,0.2-0.3,0.4-0.5,0.4C37,142.3,35.8,141.6,35.7,141L35.7,141z M35,141.6c0,0.1-0.1,0.4,0.1,0.1
		C35.1,141.6,35,141.6,35,141.6L35,141.6z M35.2,141.8C35.2,141.8,35.2,141.8,35.2,141.8L35.2,141.8L35.2,141.8z M35.2,141.9
		c0,0.1-0.4,0.4-0.5,0.4C35.2,142.6,35.9,141.9,35.2,141.9L35.2,141.9z M34.6,142.3C34.5,142.3,34.6,142.4,34.6,142.3
		C34.6,142.3,34.6,142.3,34.6,142.3L34.6,142.3z M35.9,142.3c0,0.1-0.3,0.1,0,0.1C36.2,142.4,36,142.2,35.9,142.3L35.9,142.3z
		 M35.5,142.6C35.4,142.6,35.5,142.7,35.5,142.6C35.5,142.6,35.5,142.6,35.5,142.6L35.5,142.6z M34.9,142.8
		C34.9,142.8,35,142.8,34.9,142.8C35,142.8,35,142.8,34.9,142.8L34.9,142.8z M35.8,143.3C35.8,143.3,35.8,143.3,35.8,143.3
		L35.8,143.3L35.8,143.3z M73,162.2L73,162.2L73,162.2L73,162.2z M73,162.3C73,162.3,73,162.3,73,162.3L73,162.3L73,162.3z
		 M53.1,150.9L53.1,150.9C53.2,151,52.9,151,53.1,150.9L53.1,150.9z M53.5,150.6c0.1,0,0.2,0,0.2-0.1
		C53.9,150.7,53.6,150.6,53.5,150.6L53.5,150.6z M52.8,149.4c0.5-1.2-0.4-0.4-0.4-0.4c0.2,0,1.2-1.1,1.2-1.2c0.3,0.4,1,1.2,0.4,0.9
		C52.6,148.2,54.4,149.5,52.8,149.4L52.8,149.4z M53.8,147.7c0.1,0,0-0.1,0.1-0.2C54.3,147.8,54.5,148.2,53.8,147.7L53.8,147.7z
		 M65.6,159.5c0.2,0.2,0.7,0.7,0.4,0.9C65.5,160,65.7,160,65.6,159.5L65.6,159.5z M65,160.9c-0.9,0-0.3-0.1,0.1-0.2
		C65.2,160.8,65,160.8,65,160.9L65,160.9z M65.1,161.3c0.2,0.4-0.5,0.2-0.6,0.2C64,161.3,65,161.3,65.1,161.3L65.1,161.3z
		 M65.1,161.5C65.1,161.6,65.1,161.6,65.1,161.5L65.1,161.5L65.1,161.5z M64.7,161.6l0.1,0.1C64.6,161.9,64.7,161.7,64.7,161.6
		L64.7,161.6z M64.9,161.8C64.9,161.9,64.9,162,64.9,161.8L64.9,161.8L64.9,161.8z M64.7,162c0,0.1,0,0.1,0.1,0.2
		C64.5,162.3,64.5,162.2,64.7,162L64.7,162z M63.4,159.2l0.1-0.2C63.5,159,63.5,159.1,63.4,159.2L63.4,159.2z M63.6,157.5
		c-0.4,0.1-0.1-0.3-0.1-0.1C63.4,157.4,63.5,157.5,63.6,157.5L63.6,157.5z M63.7,156.7C63.7,156.7,63.7,156.7,63.7,156.7
		C63.7,156.7,63.7,156.6,63.7,156.7L63.7,156.7z M64.1,155.9L64.1,155.9C64,155.9,64.1,155.9,64.1,155.9L64.1,155.9z M57.8,154.9
		c-0.1-0.3,0.5,0,0.2,0C57.9,155,57.8,155,57.8,154.9L57.8,154.9z M57.7,154.7c0,0-0.1,0.1-0.1,0.1
		C57.4,154.9,57.6,154.7,57.7,154.7L57.7,154.7z M57.2,153.7C57.2,153.7,57.2,153.6,57.2,153.7C57.2,153.6,57.2,153.7,57.2,153.7
		L57.2,153.7z M56,154c0.1-0.1,0.1-0.3,0.1,0C56.2,154,56,154,56,154L56,154z M56.1,153.8c-0.5,0.2-0.9-0.2-0.5-0.2
		C55.8,153.7,55.8,153.6,56.1,153.8L56.1,153.8z M55.6,153.3C55.6,153.3,55.6,153.3,55.6,153.3C55.6,153.3,55.7,153.3,55.6,153.3
		L55.6,153.3z M55.8,153.1c0,0,0-0.1,0.1-0.1C55.9,153,56,153.1,55.8,153.1L55.8,153.1z M56.1,152.7
		C56.1,152.7,56.1,152.6,56.1,152.7C56.1,152.6,56.3,152.8,56.1,152.7L56.1,152.7z M56.2,151.9c-1.3,0.7,0-1.3,0.1-1.4
		C55.9,150.9,56.1,151.9,56.2,151.9L56.2,151.9z M56.3,150.6L56.3,150.6C56.4,150.5,56.3,150.6,56.3,150.6L56.3,150.6z M61.3,161.2
		c0,0,0-0.1-0.1-0.2C61,161.1,60.9,161.3,61.3,161.2L61.3,161.2z M61.6,161c0.3,0.2,0.4-0.2,0.1-0.1C61.6,160.9,61.7,161,61.6,161
		L61.6,161z M61.2,159.8c0.1,0,0.9,0,0.9-0.1C62.2,159.4,61.4,159.7,61.2,159.8L61.2,159.8z M60.7,159.1c0.1-0.2,1.2-0.3,0.4-0.8
		C61,158.4,59.5,159.5,60.7,159.1L60.7,159.1z M61.9,159.1C61.9,159.1,61.9,159.1,61.9,159.1C61.9,159.1,61.9,159.1,61.9,159.1
		L61.9,159.1z M60.9,157.9c-0.1-0.1,0.8,0.2,1,0.2c0.8,0-0.6-0.6-0.7-0.7C60.9,157.3,60.3,158.4,60.9,157.9L60.9,157.9z M61.5,157.3
		c0.7,0.2,0.9-0.4,0.5-0.6C61.8,156.8,61.5,157.2,61.5,157.3L61.5,157.3z M61.7,156.5c-0.2-0.6-1.3-0.1-1.3-0.1
		C60.8,156.9,61.3,156.6,61.7,156.5L61.7,156.5z M57.4,154c-0.1,0.4-0.7,0.4,0.4,0.1L57.4,154L57.4,154z M57.9,154.1
		c0,0.2-0.1,0.1-0.1,0.3C58.1,154.5,58.3,154.2,57.9,154.1L57.9,154.1z M57.5,154.6C57.5,154.6,57.6,154.7,57.5,154.6
		C57.6,154.6,57.6,154.6,57.5,154.6L57.5,154.6z M57.8,155.8C57.8,155.8,57.8,155.7,57.8,155.8L57.8,155.8L57.8,155.8z M43,146.1
		C42.9,146.1,42.9,146.1,43,146.1L43,146.1L43,146.1z M43.1,142.9c-0.5,0-0.4-0.1-0.2-0.1C43,142.8,43.1,142.8,43.1,142.9
		L43.1,142.9z M42.7,142.3c-0.2,0.1-1.1,0.1-0.5,0C42.6,142.2,42.7,141.8,42.7,142.3L42.7,142.3z M42.7,141.9
		c0.1-0.4,0.1-0.3,0.2-0.2C43.1,141.9,43.4,142.4,42.7,141.9L42.7,141.9z M42.8,141.4c0-0.1-0.1,0-0.1-0.1c-0.4-0.3-1.4,0.8,0.3-0.3
		C43,141.1,43.4,141.8,42.8,141.4L42.8,141.4z M43.1,140.9c0-0.1,0.1-0.1,0.2,0C43.3,141.2,43.1,140.9,43.1,140.9L43.1,140.9z
		 M43.3,140.7c0,0,0.1-0.4,0.1-0.1C43.5,140.8,43.6,141.2,43.3,140.7L43.3,140.7z M43.4,140.5C43.4,140.4,43.4,140.4,43.4,140.5
		C43.4,140.5,43.4,140.5,43.4,140.5L43.4,140.5z M43.4,140.4c-0.5-0.1-2.1-0.3-0.9,0C42.8,140.5,43.2,139.7,43.4,140.4L43.4,140.4z
		 M43.1,140C43.1,140,43.1,140,43.1,140L43.1,140L43.1,140z M43.2,140c0,0,0.1-0.3,0.3,0C43.7,140.3,43.5,140.2,43.2,140L43.2,140z
		 M45.3,148.4c0-0.1,0-0.2,0.1-0.2C45.7,148.3,45.8,148.5,45.3,148.4L45.3,148.4z M45,148.2c-0.3,0.2-0.3-0.1-0.3-0.1
		C44.8,148.1,45,148.2,45,148.2L45,148.2z M45.4,146.9c-0.9,0.1-1.2-0.4-0.5-0.1C45.2,146.9,45,146.6,45.4,146.9L45.4,146.9z
		 M46,146.2c-0.3-0.7-0.9,0.3-0.3-0.8C45.7,145.3,47.3,146.6,46,146.2L46,146.2z M44.7,146.2C44.7,146.2,44.7,146.2,44.7,146.2
		C44.7,146.1,44.7,146.1,44.7,146.2L44.7,146.2z M45.8,144.9c0,0,0-0.2-0.5,0.3c-0.3,0.3-0.9,0.1-0.9-0.3c0-0.1,0.6-0.1,0.6-0.1
		C45.7,143.7,46.1,145.1,45.8,144.9L45.8,144.9z M45.2,144.1c-0.8,0.3-1-0.3-0.5-0.6C44.8,143.6,45.2,144.1,45.2,144.1L45.2,144.1z
		 M44.9,143.3c0.4-0.9,0.3,0.1,1,0C46.7,143.1,45.6,143.5,44.9,143.3L44.9,143.3z M49.9,140.2L49.9,140.2L49.9,140.2L49.9,140.2z
		 M49.8,140.3C49.8,140.3,49.9,140.4,49.8,140.3L49.8,140.3L49.8,140.3z M49.6,140.6c0,0,0.9,0.6,0.1,0.3
		C48.8,140.6,49.4,140.8,49.6,140.6L49.6,140.6z M49,140.7c0,0.2,0.1,0.1,0.1,0.3C48.9,141.1,48.6,140.7,49,140.7L49,140.7z
		 M49.5,141.2C49.5,141.2,49.4,141.3,49.5,141.2C49.4,141.2,49.4,141.2,49.5,141.2L49.5,141.2z M49.3,141.3c0.1,0.4-0.4,0.2-0.4,0.2
		C48.9,141.5,49.3,141.4,49.3,141.3L49.3,141.3z M49.8,142.1c0.2,0.1,0,0.2-0.2,0.1C49.5,142.1,49.7,142.1,49.8,142.1L49.8,142.1z
		 M49.1,142.5C49.1,142.5,49.1,142.5,49.1,142.5L49.1,142.5L49.1,142.5z M49.1,145.2C49.2,145.2,49.2,145.2,49.1,145.2L49.1,145.2
		L49.1,145.2z M39.3,144.6c0,0-0.1,0-0.1,0C39.2,144.6,39.3,144.5,39.3,144.6L39.3,144.6z M39.7,143.9c0,0-0.6-0.5-0.1-0.1
		C39.6,143.8,39.7,143.9,39.7,143.9L39.7,143.9z M39.9,142.9c-0.1,0-0.3,0.2-0.3,0C39.6,142.9,39.8,142.9,39.9,142.9L39.9,142.9z
		 M39.4,143.2c-0.1,0-0.1,0.1-0.2,0C38.9,143.1,39.4,143.1,39.4,143.2L39.4,143.2z M39.9,142.4c0.1-0.1,0.1-0.2,0.2-0.1
		C40.5,142.3,40.2,142.5,39.9,142.4L39.9,142.4z M40,142.2c-0.2,0.7-1-0.8-0.4-0.4C39.7,141.9,39.9,142.2,40,142.2L40,142.2z
		 M39.2,142.6C39,142.6,39.2,142.4,39.2,142.6C39.2,142.6,39.2,142.6,39.2,142.6L39.2,142.6z M38.9,142.3
		C38.5,142.4,38.5,142.3,38.9,142.3C38.9,142.3,38.9,142.3,38.9,142.3L38.9,142.3z M39.7,141.4c0.2-0.4,0.3,0.2,0.3,0.2
		C39.9,141.7,39.7,141.5,39.7,141.4L39.7,141.4z M39.7,141.2c-1.6,1.1-1,0.3-1,0.2c0,0,0.5-0.7,0.2-0.6
		C37.3,141.1,38.8,140.1,39.7,141.2L39.7,141.2z M39.1,140.5c0.5-0.1-0.1-0.3,0.5-0.1C40.5,140.7,39.6,140.7,39.1,140.5L39.1,140.5z
		 M1.6,126.8c0.1,0,0.1,0,0.2,0C2.1,126.8,1.4,126.7,1.6,126.8L1.6,126.8z M1.9,126.7c0.4,0,0.7-0.2,0.2-0.1
		C2,126.6,1.9,126.7,1.9,126.7L1.9,126.7z M1.4,126C1.4,126,1.5,125.9,1.4,126C1.4,125.9,1.2,125.8,1.4,126L1.4,126z M1.7,125.1
		c0.1,0.1,0.3,0.1,0.4,0.1C2.5,125.3,1.9,125,1.7,125.1L1.7,125.1z M1.9,124.8c0.1-0.4-0.7-0.1-0.2,0C1.8,124.7,1.9,124.7,1.9,124.8
		L1.9,124.8z M1.6,124.2C1.5,124.2,1.5,124.2,1.6,124.2C1.6,124.1,1.3,124.2,1.6,124.2L1.6,124.2z M1.6,124.1
		c1.4,0.2-1.1-0.8,0.1-0.2C1.9,123.9,1.7,124,1.6,124.1L1.6,124.1z M2.4,124.2C2.6,124.2,2.5,124.2,2.4,124.2
		C2.4,124.2,2.4,124.2,2.4,124.2L2.4,124.2z M1.9,123.6c0.7,0.4,0.4-0.3,0.2-0.2C2.1,123.4,1.9,123.6,1.9,123.6L1.9,123.6z
		 M2.3,123.2c0.1,0,0.1,0.1,0.1-0.1C2.4,123.2,2.3,123.2,2.3,123.2L2.3,123.2z M5.2,133.2L5.2,133.2C5.2,133.2,5.2,133.2,5.2,133.2
		L5.2,133.2z M4.9,132.1C4.9,132,4.9,132.1,4.9,132.1L4.9,132.1L4.9,132.1z M4.5,131.4c0,0,0.9-0.3,0.1-0.2
		C4.4,131.3,4.1,131.4,4.5,131.4L4.5,131.4z M4.3,130.7C4.3,130.7,4.3,130.7,4.3,130.7C4.3,130.7,4.3,130.7,4.3,130.7L4.3,130.7z
		 M3.9,130.2c0.2-0.1,0.9,0.4,1,0.4c0.5-0.2-0.3-0.2-0.3-0.3C4.6,130.1,3.9,130.1,3.9,130.2L3.9,130.2z M5.3,130.7
		c0.1,0,0.4,0.1,0.3,0C5.6,130.5,5.1,130.4,5.3,130.7L5.3,130.7z M5.8,129.6c0,0,0.2,0,0.2-0.1C6,129.5,5.9,129.5,5.8,129.6
		L5.8,129.6z M5.2,129.3c0.1-0.3-0.7-0.1-0.7-0.1C3.6,128.8,4.2,129.4,5.2,129.3L5.2,129.3z M4.4,128.6c0-0.1-0.1-0.2-0.2-0.2
		C4.2,128.6,4.2,128.6,4.4,128.6L4.4,128.6z M4.6,128.4c1.3,0.6,0.8-0.2,0.8-0.7c0,0,1.1,0.4,0.4-0.2c-0.4-0.3-0.5,0.4-0.7,0.4
		C5,127.9,4.8,128.4,4.6,128.4L4.6,128.4z M5.6,128.8c0.8,0.2,0.9,0.3,0.5-0.1C5.9,128.5,5.6,128.6,5.6,128.8L5.6,128.8z M5.2,127.4
		c0-0.4-1.1-0.8-0.8,0.3C4.4,127.7,3.9,128.4,5.2,127.4L5.2,127.4z M5.1,126.7c0.7,0.2,1.6,0.1,0.5-0.1
		C5.5,126.6,5.1,126.5,5.1,126.7L5.1,126.7z M10.3,134.3C10.4,134.3,10.2,134.2,10.3,134.3C10.1,134.2,10.3,134.3,10.3,134.3
		L10.3,134.3z M10.6,133c0.1,0,0.3,0,0.1-0.1C10.7,133,10.6,133,10.6,133L10.6,133z M10.6,132.1c0.7,0.1,0.4-0.2,0.1,0
		C10.6,132.1,10.6,132,10.6,132.1L10.6,132.1z M10.5,131.4c0.4,0.2,1.2,0.5,0.7,0C10.7,130.9,11,131.2,10.5,131.4L10.5,131.4z
		 M10.6,130.6C10.6,130.5,10.6,130.5,10.6,130.6C10.9,130.5,9.2,131,10.6,130.6L10.6,130.6z M9.9,129.6
		C9.9,129.6,9.9,129.5,9.9,129.6C12,129.3,9.8,129.6,9.9,129.6L9.9,129.6z M10.6,129.1c0.4,0.1,1.4,0.4,1.1-0.1
		C11.6,128.9,10.5,128.7,10.6,129.1L10.6,129.1z M10.9,128.8L10.9,128.8L10.9,128.8L10.9,128.8z M10.7,128.4
		c-0.1-1.2-0.9,0.2,0.6-0.3c0-0.1-1-0.8-0.7-0.9c0,0-0.5,0.2-1.4,0.4c-1.2,0.3,0.6,0.4,0.2,0.4c-0.5,0-0.3,0.4,0.4,0
		c0.9-0.5-0.1,0.7-0.5,0.7C8.5,128.9,10.2,128.6,10.7,128.4L10.7,128.4z M11.2,128.4c0.1,0.1,0.9,0.3,0.4,0.1
		C11.4,128.4,11.3,128.1,11.2,128.4L11.2,128.4z M15.3,136.5c0,0,0.3,0,0.2-0.1C15.5,136.5,15.3,136.5,15.3,136.5L15.3,136.5z
		 M14.7,136.1C14.7,136.1,14.7,136.1,14.7,136.1L14.7,136.1L14.7,136.1z M15.1,135.9c0.1,0,0.3,0.1,0.4,0.1
		C15.4,135.8,15.2,135.8,15.1,135.9L15.1,135.9z M14.7,135.2L14.7,135.2L14.7,135.2L14.7,135.2z M14.9,135c0.3,0.2,1.1,0,0.5-0.1
		C15.1,134.9,15.1,135,14.9,135L14.9,135z M14.8,134.3c0.3,0.2,0.4,0.1,0.1-0.1C14.7,134,14.9,134.3,14.8,134.3L14.8,134.3z
		 M14.8,133.8L14.8,133.8L14.8,133.8L14.8,133.8z M14.8,133.7c0.2-0.1,0.7,0.2,0.5-0.3c0.3,0-0.1-0.1-0.1-0.1
		C15.1,133.3,14.8,133.7,14.8,133.7L14.8,133.7z M15.2,133.9c0.4,0.1,0.4,0,0.2-0.1C15.4,133.8,15.2,133.8,15.2,133.9L15.2,133.9z
		 M15.4,133.2c0.1,0,0.5,0,0.3,0C15.5,133.1,15.6,133.1,15.4,133.2L15.4,133.2z M15.3,132.8c0-0.1,0.5-0.1,0.2-0.3
		C15.3,132.7,13.4,133.3,15.3,132.8L15.3,132.8z M15.6,132.9L15.6,132.9L15.6,132.9L15.6,132.9z M15.5,132.4
		c0.3,0.2,0.2,0.1,0.1-0.1C15.6,132.3,15.5,132.4,15.5,132.4L15.5,132.4z M15.7,132.1c0.1,0.1,0.5,0.3,0.3,0.2
		C15.7,132,16,132,15.7,132.1L15.7,132.1z M16.8,135.5c0.1,0,0.3,0,0.4,0C17.6,135.5,16.8,135.3,16.8,135.5L16.8,135.5z M17,135
		C17.1,134.9,17,134.9,17,135C17,135,17,135,17,135L17,135z M16.9,134.9c-0.1-0.1,0-0.1-0.2-0.1C16.6,134.7,16.7,134.9,16.9,134.9
		L16.9,134.9z M16.9,134.5c0.2,0.2,0.9,0.1,0.2,0C17,134.4,17,134.4,16.9,134.5L16.9,134.5z M17,133.9c0-0.1-0.3-0.2-0.3,0
		C16.7,134,16.9,134,17,133.9L17,133.9z M16.9,133.8L16.9,133.8L16.9,133.8L16.9,133.8z M17,133.7c0.5,0.3,0.3,0,0.2-0.2
		C17.2,133.5,16.9,133.4,17,133.7L17,133.7z M17.1,133.4C17.1,133.3,16.9,133.4,17.1,133.4C17,133.4,17.1,133.4,17.1,133.4
		L17.1,133.4z M17.2,133.4c0.1,0,0.4,0,0.2,0C17.3,133.3,17.2,133.1,17.2,133.4L17.2,133.4z M18.3,136.3
		C18.3,136.3,18,136.1,18.3,136.3C18.5,136.3,18.5,136.4,18.3,136.3L18.3,136.3z M18.4,136.8c0.1,0,0.3,0.1,0.3,0
		C18.6,136.6,18.5,136.8,18.4,136.8L18.4,136.8z M18.6,136.2L18.6,136.2C18.6,136.2,18.6,136.1,18.6,136.2L18.6,136.2z M18.8,136.2
		c0,0,0.1,0,0.1,0C18.9,136.1,18.8,136.1,18.8,136.2L18.8,136.2z M18.2,135.8C18.2,135.8,18.2,135.8,18.2,135.8
		C18.2,135.8,18.2,135.8,18.2,135.8L18.2,135.8z M18.7,135.7c0.2,0,0.3,0.1,0.5,0C19.1,135.6,18.8,135.6,18.7,135.7L18.7,135.7z
		 M18.8,135.5c0-0.2-0.3-0.2-0.4,0C18.3,135.5,18.7,135.5,18.8,135.5L18.8,135.5z M18.8,135.2C19.1,135.4,18.8,135,18.8,135.2
		C18.8,135.2,18.8,135.1,18.8,135.2L18.8,135.2z M18.7,135c-0.3-0.1-0.2,0-0.4,0.1C18,135.2,18.6,135,18.7,135L18.7,135z
		 M18.5,134.9C18.4,134.6,17.9,134.9,18.5,134.9C18.4,134.9,18.4,134.9,18.5,134.9L18.5,134.9z M18.1,134.5c0.9-0.2,0-0.1,0-0.1
		C18,134.4,18.1,134.4,18.1,134.5L18.1,134.5z M18.6,134.6L18.6,134.6C18.7,134.6,18.6,134.6,18.6,134.6L18.6,134.6z M18.7,134.6
		C19,134.6,19.2,134.5,18.7,134.6C18.8,134.5,18.7,134.5,18.7,134.6L18.7,134.6z M18.3,134.1c0.1,0,0.2,0,0.2,0
		C19.9,134.5,18.9,133.5,18.3,134.1L18.3,134.1z M18.6,133.7L18.6,133.7L18.6,133.7L18.6,133.7z M18.6,133.7
		C18.2,133,18.1,134.3,18.6,133.7C18.6,133.7,18.6,133.7,18.6,133.7L18.6,133.7z M21.1,136.8C21.1,136.8,21,136.7,21.1,136.8
		C21.1,136.8,21.1,136.8,21.1,136.8L21.1,136.8z M21.3,136.3c0.1,0,0.2,0,0.3-0.1C21.6,136.2,21.3,136.1,21.3,136.3L21.3,136.3z
		 M21.3,136.1c-0.1,0-0.6,0-0.3,0C21.1,136.2,21.2,136.1,21.3,136.1L21.3,136.1z M20.9,135.8c-0.1-0.2-0.4,0-0.2,0
		C20.7,135.8,20.8,135.8,20.9,135.8L20.9,135.8z M20.7,135.4c0,0-0.2-0.1-0.2-0.1C20.5,135.4,20.6,135.4,20.7,135.4L20.7,135.4z
		 M20.7,135.3c0.6,0.5,0-0.6-0.3-0.2C20.4,135,20.7,135.3,20.7,135.3L20.7,135.3z M21,135.5c0,0,0.1,0.1,0.1,0.1
		C21.2,135.5,21.1,135.3,21,135.5L21,135.5z M20.5,134.5c0.9,0.2,0.8-0.4,0.5-0.1C21,134.5,20.6,134.5,20.5,134.5L20.5,134.5z
		 M20.5,134.2L20.5,134.2L20.5,134.2L20.5,134.2z M21,134c0.5,0.1,1,0.2,0.7-0.2C21.4,133.4,21,134,21,134L21,134z M21,133.6
		c0-0.1-0.5-0.3-0.5,0.2C20.4,133.9,20.9,133.7,21,133.6L21,133.6z M20.5,133c0,0-0.3-0.2-0.2,0C20.3,133,20.4,133,20.5,133
		L20.5,133z M20.4,132.7c0.3,0.2,0.3,0.4,0.7,0.2C21,132.4,20.7,132.4,20.4,132.7L20.4,132.7z M21,133.2c1.2,0.6,0.2-0.2,0.1-0.1
		C21.1,133.1,21,133.1,21,133.2L21,133.2z M21.3,132.9L21.3,132.9C21.3,132.9,21.3,132.9,21.3,132.9L21.3,132.9z M20.7,132.4
		C20.7,132.4,20.7,132.4,20.7,132.4C20.7,132.4,20.7,132.4,20.7,132.4L20.7,132.4z M20.6,132.3c0-0.1,0-0.2,0-0.2
		C20.4,132.2,20.1,132.4,20.6,132.3L20.6,132.3z M24.8,138.4C24.8,138.3,24.7,138.4,24.8,138.4C24.7,138.4,24.7,138.4,24.8,138.4
		L24.8,138.4z M24.7,137.7c-0.1-0.1-0.1-0.2-0.3-0.1C24.1,137.8,24.5,137.7,24.7,137.7L24.7,137.7z M24.7,137.5
		C24.8,137.5,24.8,137.5,24.7,137.5C24.7,137.4,24.7,137.4,24.7,137.5L24.7,137.5z M24.1,136.8c0-0.1,0.1-0.1-0.1,0
		C24,136.8,24.1,136.8,24.1,136.8L24.1,136.8z M24.4,136.7c0.4,0.2,0.5-0.1,0.2-0.2C24.6,136.6,24.4,136.7,24.4,136.7L24.4,136.7z
		 M24.8,136.8C24.8,136.8,24.8,136.8,24.8,136.8L24.8,136.8L24.8,136.8z M24.5,136.1c0,0-0.3-0.5,0.6-0.4c0.3,0-0.5-0.5-0.5-0.7
		c-0.1-0.1-0.6,0.1-0.6,0.2c-1.1,0.1,0.5,0,0.1,0.8C23.9,136.1,23.1,136.6,24.5,136.1L24.5,136.1z M24.6,135
		c0.5,0.1,0.4,0.3,0.3-0.1C24.8,134.6,24.6,134.9,24.6,135L24.6,135z M24.9,134.7c0.6,0.3,0.4-0.1,0.1-0.2
		C25,134.5,25,134.7,24.9,134.7L24.9,134.7z M25,134.5L25,134.5L25,134.5L25,134.5z M26.2,139.6L26.2,139.6L26.2,139.6L26.2,139.6z
		 M26.2,139.4c0.2,0,0.4,0.1,0.6,0C26.9,139.4,26.2,139.4,26.2,139.4L26.2,139.4z M26.5,138.8L26.5,138.8
		C26.5,138.8,26.5,138.8,26.5,138.8L26.5,138.8z M26.5,138.8c0.4,0.1,0.4-0.2,0.1-0.1C26.6,138.7,26.6,138.8,26.5,138.8L26.5,138.8z
		 M26.5,138.1L26.5,138.1C26.4,138.1,26.4,138.1,26.5,138.1L26.5,138.1z M26.4,138c0-0.1,0.9,0.1,0.3-0.2
		C26.4,137.6,25.6,138.2,26.4,138L26.4,138z M26.9,138.3c0.1,0,0.4,0.2,0.4,0C27.3,138,26.9,138.3,26.9,138.3L26.9,138.3z M27.2,138
		c0.2-0.1,0.5-0.3,0.2-0.2C27.5,137.9,27.2,138,27.2,138L27.2,138z M26.5,137.2c1.3,0.1,1,0,0.1-0.1
		C26.6,137.1,26.5,137.1,26.5,137.2L26.5,137.2z M26.2,136.8C26.1,136.7,26.2,136.7,26.2,136.8C26.1,136.8,26.1,136.8,26.2,136.8
		L26.2,136.8z M26.4,136.5c1.2,0.3,0.9,0,0.3-0.3C26.3,136,26.6,136.3,26.4,136.5L26.4,136.5z M26.4,135.9c0-0.1-0.1,0.1-0.1-0.1
		C26.3,135.8,25.5,136.1,26.4,135.9L26.4,135.9z M26.2,135.6l-0.1,0C26.1,135.6,26.1,135.6,26.2,135.6L26.2,135.6z M26.1,135.5
		C26.3,135.4,25.9,135.4,26.1,135.5C26.1,135.5,26.1,135.5,26.1,135.5L26.1,135.5z M30.9,144.5L30.9,144.5
		C30.8,144.5,30.8,144.5,30.9,144.5L30.9,144.5z M31,143.8c0.3-0.1,0-0.2-0.1-0.1C30.8,143.8,30.9,143.8,31,143.8L31,143.8z
		 M30.3,143.2c0.7,0.1,1-0.3,0.4-0.1C30.7,143.1,30.3,143.2,30.3,143.2L30.3,143.2z M30.4,142.4c0.1-0.1-0.1,0-0.1,0
		C30.2,142.4,30.3,142.4,30.4,142.4L30.4,142.4z M30.7,142.1c0.1,0.1,0.5,0.1,0.2,0C30.8,142.1,30.8,142.1,30.7,142.1L30.7,142.1z
		 M31.1,141.9C31.2,141.8,31.1,141.8,31.1,141.9C31.1,141.8,31.1,141.8,31.1,141.9L31.1,141.9z M30.5,141.6L30.5,141.6
		C30.5,141.5,30.4,141.5,30.5,141.6L30.5,141.6z M30.8,141.3C30.9,141.3,30.9,141.3,30.8,141.3C30.8,141.3,30.8,141.3,30.8,141.3
		L30.8,141.3z M30.8,141.2c0.7,0.3,0-0.5-0.1-0.5C30.1,140.8,30.8,141.1,30.8,141.2L30.8,141.2z M30.4,140.3c0,0,0.7-0.7-0.3-0.1
		C29.8,140.4,30.3,140.3,30.4,140.3L30.4,140.3z M31,140.4c0.1,0,0.2,0,0.1-0.1C31.1,140.3,31.1,140.3,31,140.4L31,140.4z
		 M30.9,139.9L30.9,139.9L30.9,139.9L30.9,139.9z M31,139.7C31.4,139.8,31.3,139.7,31,139.7L31,139.7L31,139.7z M31.2,139.5
		C31.7,139.6,31.3,139.3,31.2,139.5C31.3,139.5,31.2,139.4,31.2,139.5L31.2,139.5z M32.5,142.2c0,0-0.2-0.1-0.2,0
		C32.3,142.2,32.5,142.2,32.5,142.2L32.5,142.2z M32.7,141.9c0.2,0.1,0.3-0.1,0.2-0.1C32.8,141.8,32.8,141.7,32.7,141.9L32.7,141.9z
		 M32.9,141.7c0.1,0,0.2-0.1,0.3-0.1C33.2,141.5,32.9,141.6,32.9,141.7L32.9,141.7z M32.5,141.5C32.5,141.5,32.5,141.5,32.5,141.5
		C32.5,141.5,32.5,141.5,32.5,141.5L32.5,141.5z M32.3,141.4C32.3,141.4,32.3,141.4,32.3,141.4C32.2,141.4,32.3,141.4,32.3,141.4
		L32.3,141.4z M32.8,140.9c0.1,0,0.4,0.1,0.3-0.1C33.1,140.8,32.6,140.7,32.8,140.9L32.8,140.9z M32.7,140.5L32.7,140.5
		C32.8,140.5,32.7,140.5,32.7,140.5L32.7,140.5z M32.8,140.5c0,0,0.2,0,0.1-0.1C32.8,140.2,32.9,140.4,32.8,140.5L32.8,140.5z
		 M32.6,140.3C32.3,140,32.1,140.6,32.6,140.3C32.6,140.3,32.6,140.3,32.6,140.3L32.6,140.3z M32.4,140.2
		C32.4,140.2,32.5,140.2,32.4,140.2C32.4,140.2,32.4,140.2,32.4,140.2L32.4,140.2z M32.3,139.7c0.2,0.3,0.4-0.3,0.4,0.2
		C32.6,140,33.5,139.5,32.3,139.7L32.3,139.7z M32.5,139.3c-0.1-0.2-0.3-0.1-0.3-0.1C32.1,139.5,32.4,139.4,32.5,139.3L32.5,139.3z
		 M32.2,139.1C32.2,139,32.2,139,32.2,139.1C32.1,139.1,32.1,139.1,32.2,139.1L32.2,139.1z"/>
</g>
</svg>
