<?xml version="1.0" encoding="utf-8"?>
<!-- Generator: Adobe Illustrator 18.0.0, SVG Export Plug-In . SVG Version: 6.00 Build 0)  -->
<!DOCTYPE svg PUBLIC "-//W3C//DTD SVG 1.1//EN" "http://www.w3.org/Graphics/SVG/1.1/DTD/svg11.dtd">
<svg version="1.1" xmlns="http://www.w3.org/2000/svg" xmlns:xlink="http://www.w3.org/1999/xlink" x="0px" y="0px"
	 viewBox="0 0 567.4 304.5" enable-background="new 0 0 567.4 304.5" xml:space="preserve">
<g id="Grid" display="none">
</g>
<g id="Layer_1">
</g>
<g id="Desktop">
</g>
<g id="Guides">
</g>
<g id="Page_1">
</g>
<g id="Layer_1_1_">
	<path fill-rule="evenodd" clip-rule="evenodd" fill="#282739" d="M233.8,173.9c4.7-1.9,3.9-2.2,8.6-4.7c4.7-2.5,2.2-2.5,7.7-5
		c5.5-2.5,5-2.5,11.1-4.4c6.1-1.9,7.5-2.8,11.1-2.8c3.6,0,4.4-0.3,8.8-0.6c4.4-0.3,3,0.3,9.4-1.9c6.4-2.2,8.8-3.6,13.3-3
		c4.4,0.6,6.6,0.8,9.7-0.8c3-1.7,1.4-2.2,7.2-3.6c5.8-1.4,5.3-1.7,10.8-2.8c5.5-1.1,4.7-2.8,9.4-2.2c4.7,0.6,5.5,0,8.6,0.8
		c3,0.8,3,1.1,7.2,1.4c4.1,0.3,3-0.3,9.4-0.6c6.4-0.3-0.3,0.3,10.2-1.7c10.5-1.9,10.2-3.9,14.1-3.9s-1.1-1.1,9.7-1.4
		c10.8-0.3,8-2.8,15.8-1.1c7.7,1.7,8.8,3,13.3,1.4c4.4-1.7,1.4-0.8,8.8-3.3c7.5-2.5,3.6-0.6,8.8-3c5.3-2.5,4.7-1.7,10-4.1
		c5.3-2.5,2.5-3.3,6.9-3.3c4.4,0,5.3-0.6,9.1-1.4c3.9-0.8,4.1-1.4,6.1-1.4c1.9,0,1.7-0.6,4.7-1.1c3-0.6,15.5-1.9,17.4-1.4
		c1.9,0.6,8.8,0.8,10.2,1.4c1.4,0.6,6.4,1.1,10.2,1.7c3.9,0.6,9.7-0.8,14.7,1.1c5,1.9,12.7,10,12.7,10L538,203.4l-291.6,7.9
		L233.8,173.9L233.8,173.9z"/>
</g>
</svg>
