<?xml version="1.0" encoding="utf-8"?>
<!-- Generator: Adobe Illustrator 18.0.0, SVG Export Plug-In . SVG Version: 6.00 Build 0)  -->
<!DOCTYPE svg PUBLIC "-//W3C//DTD SVG 1.1//EN" "http://www.w3.org/Graphics/SVG/1.1/DTD/svg11.dtd">
<svg version="1.1" xmlns="http://www.w3.org/2000/svg" xmlns:xlink="http://www.w3.org/1999/xlink" x="0px" y="0px"
	 viewBox="0 0 567.4 304.5" enable-background="new 0 0 567.4 304.5" xml:space="preserve">
<g id="Grid" display="none">
</g>
<g id="Layer_1">
</g>
<g id="Desktop">
</g>
<g id="Guides">
</g>
<g id="Page_1">
</g>
<g id="Layer_1_1_">
	<path fill-rule="evenodd" clip-rule="evenodd" fill="#412833" d="M148,97.5c7.8-2.5,4.4-2.3,9.9-3.7c5.5-1.4,4.4-0.2,9.2-2.3
		c4.8-2.1,1.8-2.1,7.4-2.8c5.5-0.7,2.5-0.9,8.8-1.6c6.2-0.7,7.1-0.9,12-1.6c4.8-0.7,2.3-0.7,9.9-1.6c7.6-0.9,5.5-1.4,11.1-2.1
		c5.5-0.7,6.5-1.2,8.5,0.9c2.1,2.1,4.4,2.5,8.5,5.5c4.1,3,3.9,1.8,8.5,4.1c4.6,2.3,2.3,5.1,10.4,4.4c8.1-0.7,3.9,0.7,10.1-1.8
		c7-2.9,8-4.2,15.2-0.5c4.4,2.3,9.2,2.3,14.5,4.6c5.3,2.3,4.6,0.7,11.3,3.5c6.7,2.8,5.8,3.2,14.1,3.7c8.3,0.5,2.8,0.5,6-0.9
		c3.2-1.4,2.1-0.9,6-2.5c3.9-1.6,1.6-0.2,5.8-2.5c4.1-2.3,4.1-3.7,7.6-3.2c3.5,0.5,5.8,0.7,8.8,2.8c3,2.1,4.8,3.2,7.1,4.6
		c2.3,1.4,3.7,2.8,6.4,4.1c2.8,1.4,1.8,0.9,4.8,2.5c3,1.6,5.4,0.6,8.8,2c3.3,1.5,0.8,2.7,6.9,1.3c6.1-1.5,5-1.5,10.6-2.7
		c5.6-1.3,4.8-1.7,10.2-2.5c5.4-0.8,5.8-2.1,10.8-2.5c5-0.4,1.5-1.3,8.6,0.6c7.1,1.9,6.5,2.1,11.1,2.9c4.6,0.8,4.2,2.1,8.1,0
		c4-2.1,5.4-3.5,8.8-3.5c3.3,0,4.4,0.2,7.7-0.8c3.3-1,5-3.3,8.1-1.9c3.1,1.5,2.1,2.9,6.7,1.5c4.6-1.5,4-4.4,8.1-2.5
		c4.2,1.9,5.4,3.1,9.4,3.1c4,0,4.4-0.6,8.8,0.4c4.4,1,8.3,1,11.1,2.3c2.7,1.3,2.7,1,6.3,1c3.5,0,7.3-1.5,9.6-0.4
		c2.3,1,2.3,1.5,7.1,2.7c4.8,1.3,7.1,1.3,9.8,1.3c2.7,0,4.4,6.5,4.4,6.5l-1.4,43L309,173.8l-170.9-30.1L148,97.5L148,97.5z"/>
</g>
</svg>
