<?xml version="1.0" encoding="utf-8"?>
<!-- Generator: Adobe Illustrator 18.0.0, SVG Export Plug-In . SVG Version: 6.00 Build 0)  -->
<!DOCTYPE svg PUBLIC "-//W3C//DTD SVG 1.1//EN" "http://www.w3.org/Graphics/SVG/1.1/DTD/svg11.dtd">
<svg version="1.1" xmlns="http://www.w3.org/2000/svg" xmlns:xlink="http://www.w3.org/1999/xlink" x="0px" y="0px"
	 viewBox="0 0 567.4 304.5" enable-background="new 0 0 567.4 304.5" xml:space="preserve">
<g id="Grid" display="none">
</g>
<g id="Layer_1">
</g>
<g id="Desktop">
</g>
<g id="Guides">
</g>
<g id="Page_1">
</g>
<g id="Layer_1_1_">
	<path fill-rule="evenodd" clip-rule="evenodd" fill="#1C202F" d="M0,96.8c1.1,0.5,2.4,1,3.8,1.6c5.3,2.2,16.4,4,21.7,4.9
		c5.3,0.9,8.4,0.9,12.8,2.7c4.4,1.8,8.4,3.5,12.8,6.6c4.4,3.1,6.2,2.2,12.8,8c6.6,5.8,10.2,7.5,15,10.2c4.9,2.7,5.3,1.8,11.1,4.9
		c5.8,3.1,3.5,1.3,10.6,4.4c7.1,3.1,6.6,1.8,13.3,4c6.6,2.2,5.3,0.9,15.9,3.5c10.6,2.7,9.3,1.3,18.6,3.1c9.3,1.8,8.4,0,18.1,4
		c9.7,4,9.7,1.3,17.3,6.6c7.5,5.3,8.4,4.9,18.6,10.6c10.2,5.8,23,8,28.3,10.6c5.3,2.7,2.7,2.2,14.2,5.8
		c11.5,3.5,12.7,10.7,22.9,13.4c10.2,2.7,19,6.3,25.2,9.9c6.2,3.5,4,33.4-8.6,36.5C274.3,250.6,74.4,233.9,0,225.3V96.8L0,96.8z"/>
</g>
</svg>
